<svg xmlns="http://www.w3.org/2000/svg" viewBox="0 0 360 180" width="360" height="180" shape-rendering="crispEdges">
<rect width="100%" height="100%" fill="#fff"/>
<g fill="#111">
<rect x="39" y="17" width="1" height="1"/>
<rect x="58" y="17" width="1" height="1"/>
<rect x="63" y="17" width="2" height="1"/>
<rect x="71" y="17" width="2" height="1"/>
<rect x="39" y="18" width="1" height="1"/>
<rect x="58" y="18" width="1" height="1"/>
<rect x="63" y="18" width="3" height="1"/>
<rect x="70" y="18" width="3" height="1"/>
<rect x="18" y="19" width="4" height="1"/>
<rect x="24" y="19" width="4" height="1"/>
<rect x="31" y="19" width="1" height="1"/>
<rect x="33" y="19" width="3" height="1"/>
<rect x="38" y="19" width="4" height="1"/>
<rect x="45" y="19" width="3" height="1"/>
<rect x="50" y="19" width="2" height="1"/>
<rect x="55" y="19" width="6" height="1"/>
<rect x="63" y="19" width="1" height="1"/>
<rect x="65" y="19" width="1" height="1"/>
<rect x="70" y="19" width="3" height="1"/>
<rect x="76" y="19" width="3" height="1"/>
<rect x="82" y="19" width="1" height="1"/>
<rect x="84" y="19" width="3" height="1"/>
<rect x="90" y="19" width="1" height="1"/>
<rect x="95" y="19" width="1" height="1"/>
<rect x="17" y="20" width="1" height="1"/>
<rect x="23" y="20" width="1" height="1"/>
<rect x="27" y="20" width="2" height="1"/>
<rect x="31" y="20" width="2" height="1"/>
<rect x="36" y="20" width="1" height="1"/>
<rect x="39" y="20" width="1" height="1"/>
<rect x="44" y="20" width="1" height="1"/>
<rect x="48" y="20" width="1" height="1"/>
<rect x="51" y="20" width="2" height="1"/>
<rect x="54" y="20" width="1" height="1"/>
<rect x="58" y="20" width="1" height="1"/>
<rect x="63" y="20" width="1" height="1"/>
<rect x="65" y="20" width="1" height="1"/>
<rect x="69" y="20" width="1" height="1"/>
<rect x="71" y="20" width="2" height="1"/>
<rect x="75" y="20" width="1" height="1"/>
<rect x="79" y="20" width="1" height="1"/>
<rect x="82" y="20" width="2" height="1"/>
<rect x="87" y="20" width="1" height="1"/>
<rect x="90" y="20" width="1" height="1"/>
<rect x="95" y="20" width="1" height="1"/>
<rect x="17" y="21" width="1" height="1"/>
<rect x="23" y="21" width="1" height="1"/>
<rect x="28" y="21" width="1" height="1"/>
<rect x="31" y="21" width="1" height="1"/>
<rect x="36" y="21" width="1" height="1"/>
<rect x="39" y="21" width="1" height="1"/>
<rect x="44" y="21" width="1" height="1"/>
<rect x="48" y="21" width="2" height="1"/>
<rect x="52" y="21" width="1" height="1"/>
<rect x="54" y="21" width="1" height="1"/>
<rect x="58" y="21" width="1" height="1"/>
<rect x="63" y="21" width="1" height="1"/>
<rect x="66" y="21" width="1" height="1"/>
<rect x="69" y="21" width="1" height="1"/>
<rect x="71" y="21" width="2" height="1"/>
<rect x="75" y="21" width="1" height="1"/>
<rect x="79" y="21" width="2" height="1"/>
<rect x="82" y="21" width="1" height="1"/>
<rect x="87" y="21" width="1" height="1"/>
<rect x="90" y="21" width="1" height="1"/>
<rect x="95" y="21" width="1" height="1"/>
<rect x="17" y="22" width="1" height="1"/>
<rect x="23" y="22" width="1" height="1"/>
<rect x="28" y="22" width="1" height="1"/>
<rect x="31" y="22" width="1" height="1"/>
<rect x="36" y="22" width="1" height="1"/>
<rect x="39" y="22" width="1" height="1"/>
<rect x="44" y="22" width="6" height="1"/>
<rect x="53" y="22" width="1" height="1"/>
<rect x="58" y="22" width="1" height="1"/>
<rect x="63" y="22" width="1" height="1"/>
<rect x="66" y="22" width="1" height="1"/>
<rect x="69" y="22" width="1" height="1"/>
<rect x="71" y="22" width="2" height="1"/>
<rect x="75" y="22" width="6" height="1"/>
<rect x="82" y="22" width="1" height="1"/>
<rect x="87" y="22" width="1" height="1"/>
<rect x="90" y="22" width="1" height="1"/>
<rect x="95" y="22" width="1" height="1"/>
<rect x="17" y="23" width="1" height="1"/>
<rect x="23" y="23" width="1" height="1"/>
<rect x="28" y="23" width="1" height="1"/>
<rect x="31" y="23" width="1" height="1"/>
<rect x="36" y="23" width="1" height="1"/>
<rect x="39" y="23" width="1" height="1"/>
<rect x="44" y="23" width="1" height="1"/>
<rect x="52" y="23" width="1" height="1"/>
<rect x="54" y="23" width="1" height="1"/>
<rect x="58" y="23" width="1" height="1"/>
<rect x="63" y="23" width="1" height="1"/>
<rect x="66" y="23" width="1" height="1"/>
<rect x="68" y="23" width="1" height="1"/>
<rect x="71" y="23" width="2" height="1"/>
<rect x="75" y="23" width="1" height="1"/>
<rect x="82" y="23" width="1" height="1"/>
<rect x="87" y="23" width="1" height="1"/>
<rect x="90" y="23" width="1" height="1"/>
<rect x="95" y="23" width="1" height="1"/>
<rect x="17" y="24" width="1" height="1"/>
<rect x="23" y="24" width="1" height="1"/>
<rect x="27" y="24" width="2" height="1"/>
<rect x="31" y="24" width="1" height="1"/>
<rect x="36" y="24" width="1" height="1"/>
<rect x="39" y="24" width="1" height="1"/>
<rect x="44" y="24" width="1" height="1"/>
<rect x="51" y="24" width="2" height="1"/>
<rect x="54" y="24" width="2" height="1"/>
<rect x="58" y="24" width="1" height="1"/>
<rect x="63" y="24" width="1" height="1"/>
<rect x="67" y="24" width="2" height="1"/>
<rect x="71" y="24" width="2" height="1"/>
<rect x="75" y="24" width="1" height="1"/>
<rect x="82" y="24" width="1" height="1"/>
<rect x="87" y="24" width="1" height="1"/>
<rect x="90" y="24" width="1" height="1"/>
<rect x="94" y="24" width="2" height="1"/>
<rect x="18" y="25" width="4" height="1"/>
<rect x="24" y="25" width="4" height="1"/>
<rect x="31" y="25" width="1" height="1"/>
<rect x="36" y="25" width="1" height="1"/>
<rect x="40" y="25" width="2" height="1"/>
<rect x="45" y="25" width="4" height="1"/>
<rect x="50" y="25" width="2" height="1"/>
<rect x="55" y="25" width="2" height="1"/>
<rect x="59" y="25" width="2" height="1"/>
<rect x="63" y="25" width="1" height="1"/>
<rect x="67" y="25" width="2" height="1"/>
<rect x="71" y="25" width="2" height="1"/>
<rect x="76" y="25" width="4" height="1"/>
<rect x="82" y="25" width="1" height="1"/>
<rect x="87" y="25" width="1" height="1"/>
<rect x="91" y="25" width="3" height="1"/>
<rect x="95" y="25" width="1" height="1"/>
<rect x="16" y="30" width="328" height="1"/>
<rect x="90" y="49" width="180" height="1"/>
<rect x="90" y="50" width="180" height="1"/>
<rect x="90" y="51" width="2" height="1"/>
<rect x="268" y="51" width="2" height="1"/>
<rect x="90" y="52" width="2" height="1"/>
<rect x="268" y="52" width="2" height="1"/>
<rect x="90" y="53" width="2" height="1"/>
<rect x="268" y="53" width="2" height="1"/>
<rect x="90" y="54" width="2" height="1"/>
<rect x="268" y="54" width="2" height="1"/>
<rect x="90" y="55" width="2" height="1"/>
<rect x="268" y="55" width="2" height="1"/>
<rect x="90" y="56" width="2" height="1"/>
<rect x="268" y="56" width="2" height="1"/>
<rect x="90" y="57" width="2" height="1"/>
<rect x="268" y="57" width="2" height="1"/>
<rect x="90" y="58" width="2" height="1"/>
<rect x="268" y="58" width="2" height="1"/>
<rect x="90" y="59" width="2" height="1"/>
<rect x="268" y="59" width="2" height="1"/>
<rect x="90" y="60" width="2" height="1"/>
<rect x="268" y="60" width="2" height="1"/>
<rect x="90" y="61" width="2" height="1"/>
<rect x="268" y="61" width="2" height="1"/>
<rect x="90" y="62" width="2" height="1"/>
<rect x="268" y="62" width="2" height="1"/>
<rect x="90" y="63" width="2" height="1"/>
<rect x="120" y="63" width="1" height="1"/>
<rect x="268" y="63" width="2" height="1"/>
<rect x="90" y="64" width="2" height="1"/>
<rect x="103" y="64" width="2" height="1"/>
<rect x="115" y="64" width="1" height="1"/>
<rect x="268" y="64" width="2" height="1"/>
<rect x="90" y="65" width="2" height="1"/>
<rect x="103" y="65" width="2" height="1"/>
<rect x="115" y="65" width="1" height="1"/>
<rect x="268" y="65" width="2" height="1"/>
<rect x="90" y="66" width="2" height="1"/>
<rect x="103" y="66" width="1" height="1"/>
<rect x="105" y="66" width="1" height="1"/>
<rect x="110" y="66" width="8" height="1"/>
<rect x="120" y="66" width="1" height="1"/>
<rect x="124" y="66" width="4" height="1"/>
<rect x="131" y="66" width="1" height="1"/>
<rect x="133" y="66" width="3" height="1"/>
<rect x="139" y="66" width="5" height="1"/>
<rect x="268" y="66" width="2" height="1"/>
<rect x="90" y="67" width="2" height="1"/>
<rect x="102" y="67" width="1" height="1"/>
<rect x="105" y="67" width="1" height="1"/>
<rect x="109" y="67" width="1" height="1"/>
<rect x="115" y="67" width="1" height="1"/>
<rect x="120" y="67" width="1" height="1"/>
<rect x="123" y="67" width="1" height="1"/>
<rect x="127" y="67" width="2" height="1"/>
<rect x="131" y="67" width="2" height="1"/>
<rect x="136" y="67" width="1" height="1"/>
<rect x="139" y="67" width="1" height="1"/>
<rect x="268" y="67" width="2" height="1"/>
<rect x="90" y="68" width="2" height="1"/>
<rect x="102" y="68" width="1" height="1"/>
<rect x="105" y="68" width="1" height="1"/>
<rect x="109" y="68" width="1" height="1"/>
<rect x="115" y="68" width="1" height="1"/>
<rect x="120" y="68" width="1" height="1"/>
<rect x="123" y="68" width="1" height="1"/>
<rect x="128" y="68" width="1" height="1"/>
<rect x="131" y="68" width="1" height="1"/>
<rect x="136" y="68" width="1" height="1"/>
<rect x="139" y="68" width="1" height="1"/>
<rect x="268" y="68" width="2" height="1"/>
<rect x="90" y="69" width="2" height="1"/>
<rect x="101" y="69" width="6" height="1"/>
<rect x="109" y="69" width="1" height="1"/>
<rect x="115" y="69" width="1" height="1"/>
<rect x="120" y="69" width="1" height="1"/>
<rect x="123" y="69" width="1" height="1"/>
<rect x="128" y="69" width="1" height="1"/>
<rect x="131" y="69" width="1" height="1"/>
<rect x="136" y="69" width="1" height="1"/>
<rect x="140" y="69" width="3" height="1"/>
<rect x="268" y="69" width="2" height="1"/>
<rect x="90" y="70" width="2" height="1"/>
<rect x="101" y="70" width="1" height="1"/>
<rect x="106" y="70" width="1" height="1"/>
<rect x="109" y="70" width="1" height="1"/>
<rect x="115" y="70" width="1" height="1"/>
<rect x="120" y="70" width="1" height="1"/>
<rect x="123" y="70" width="1" height="1"/>
<rect x="128" y="70" width="1" height="1"/>
<rect x="131" y="70" width="1" height="1"/>
<rect x="136" y="70" width="1" height="1"/>
<rect x="142" y="70" width="2" height="1"/>
<rect x="268" y="70" width="2" height="1"/>
<rect x="90" y="71" width="2" height="1"/>
<rect x="101" y="71" width="1" height="1"/>
<rect x="107" y="71" width="1" height="1"/>
<rect x="109" y="71" width="1" height="1"/>
<rect x="115" y="71" width="1" height="1"/>
<rect x="120" y="71" width="1" height="1"/>
<rect x="123" y="71" width="1" height="1"/>
<rect x="127" y="71" width="2" height="1"/>
<rect x="131" y="71" width="1" height="1"/>
<rect x="136" y="71" width="1" height="1"/>
<rect x="142" y="71" width="2" height="1"/>
<rect x="268" y="71" width="2" height="1"/>
<rect x="90" y="72" width="2" height="1"/>
<rect x="100" y="72" width="1" height="1"/>
<rect x="107" y="72" width="1" height="1"/>
<rect x="110" y="72" width="4" height="1"/>
<rect x="116" y="72" width="2" height="1"/>
<rect x="120" y="72" width="1" height="1"/>
<rect x="124" y="72" width="4" height="1"/>
<rect x="131" y="72" width="1" height="1"/>
<rect x="136" y="72" width="1" height="1"/>
<rect x="139" y="72" width="4" height="1"/>
<rect x="268" y="72" width="2" height="1"/>
<rect x="90" y="73" width="2" height="1"/>
<rect x="268" y="73" width="2" height="1"/>
<rect x="90" y="74" width="2" height="1"/>
<rect x="268" y="74" width="2" height="1"/>
<rect x="90" y="75" width="2" height="1"/>
<rect x="268" y="75" width="2" height="1"/>
<rect x="90" y="76" width="2" height="1"/>
<rect x="268" y="76" width="2" height="1"/>
<rect x="90" y="77" width="2" height="1"/>
<rect x="268" y="77" width="2" height="1"/>
<rect x="90" y="78" width="2" height="1"/>
<rect x="268" y="78" width="2" height="1"/>
<rect x="90" y="79" width="2" height="1"/>
<rect x="100" y="79" width="160" height="1"/>
<rect x="268" y="79" width="2" height="1"/>
<rect x="90" y="80" width="2" height="1"/>
<rect x="100" y="80" width="1" height="1"/>
<rect x="259" y="80" width="1" height="1"/>
<rect x="268" y="80" width="2" height="1"/>
<rect x="90" y="81" width="2" height="1"/>
<rect x="100" y="81" width="1" height="1"/>
<rect x="259" y="81" width="1" height="1"/>
<rect x="268" y="81" width="2" height="1"/>
<rect x="90" y="82" width="2" height="1"/>
<rect x="100" y="82" width="1" height="1"/>
<rect x="259" y="82" width="1" height="1"/>
<rect x="268" y="82" width="2" height="1"/>
<rect x="90" y="83" width="2" height="1"/>
<rect x="100" y="83" width="1" height="1"/>
<rect x="259" y="83" width="1" height="1"/>
<rect x="268" y="83" width="2" height="1"/>
<rect x="90" y="84" width="2" height="1"/>
<rect x="100" y="84" width="1" height="1"/>
<rect x="259" y="84" width="1" height="1"/>
<rect x="268" y="84" width="2" height="1"/>
<rect x="90" y="85" width="2" height="1"/>
<rect x="100" y="85" width="1" height="1"/>
<rect x="259" y="85" width="1" height="1"/>
<rect x="268" y="85" width="2" height="1"/>
<rect x="90" y="86" width="2" height="1"/>
<rect x="100" y="86" width="1" height="1"/>
<rect x="259" y="86" width="1" height="1"/>
<rect x="268" y="86" width="2" height="1"/>
<rect x="90" y="87" width="2" height="1"/>
<rect x="100" y="87" width="1" height="1"/>
<rect x="259" y="87" width="1" height="1"/>
<rect x="268" y="87" width="2" height="1"/>
<rect x="90" y="88" width="2" height="1"/>
<rect x="100" y="88" width="1" height="1"/>
<rect x="259" y="88" width="1" height="1"/>
<rect x="268" y="88" width="2" height="1"/>
<rect x="90" y="89" width="2" height="1"/>
<rect x="100" y="89" width="1" height="1"/>
<rect x="259" y="89" width="1" height="1"/>
<rect x="268" y="89" width="2" height="1"/>
<rect x="90" y="90" width="2" height="1"/>
<rect x="100" y="90" width="1" height="1"/>
<rect x="259" y="90" width="1" height="1"/>
<rect x="268" y="90" width="2" height="1"/>
<rect x="90" y="91" width="2" height="1"/>
<rect x="100" y="91" width="1" height="1"/>
<rect x="259" y="91" width="1" height="1"/>
<rect x="268" y="91" width="2" height="1"/>
<rect x="90" y="92" width="2" height="1"/>
<rect x="100" y="92" width="1" height="1"/>
<rect x="259" y="92" width="1" height="1"/>
<rect x="268" y="92" width="2" height="1"/>
<rect x="90" y="93" width="2" height="1"/>
<rect x="100" y="93" width="1" height="1"/>
<rect x="259" y="93" width="1" height="1"/>
<rect x="268" y="93" width="2" height="1"/>
<rect x="90" y="94" width="2" height="1"/>
<rect x="100" y="94" width="1" height="1"/>
<rect x="259" y="94" width="1" height="1"/>
<rect x="268" y="94" width="2" height="1"/>
<rect x="90" y="95" width="2" height="1"/>
<rect x="100" y="95" width="1" height="1"/>
<rect x="107" y="95" width="4" height="1"/>
<rect x="259" y="95" width="1" height="1"/>
<rect x="268" y="95" width="2" height="1"/>
<rect x="90" y="96" width="2" height="1"/>
<rect x="100" y="96" width="1" height="1"/>
<rect x="106" y="96" width="1" height="1"/>
<rect x="111" y="96" width="2" height="1"/>
<rect x="259" y="96" width="1" height="1"/>
<rect x="268" y="96" width="2" height="1"/>
<rect x="90" y="97" width="2" height="1"/>
<rect x="100" y="97" width="1" height="1"/>
<rect x="105" y="97" width="1" height="1"/>
<rect x="112" y="97" width="1" height="1"/>
<rect x="115" y="97" width="1" height="1"/>
<rect x="117" y="97" width="3" height="1"/>
<rect x="124" y="97" width="3" height="1"/>
<rect x="130" y="97" width="1" height="1"/>
<rect x="132" y="97" width="3" height="1"/>
<rect x="259" y="97" width="1" height="1"/>
<rect x="268" y="97" width="2" height="1"/>
<rect x="90" y="98" width="2" height="1"/>
<rect x="100" y="98" width="1" height="1"/>
<rect x="105" y="98" width="1" height="1"/>
<rect x="112" y="98" width="1" height="1"/>
<rect x="115" y="98" width="2" height="1"/>
<rect x="120" y="98" width="1" height="1"/>
<rect x="123" y="98" width="1" height="1"/>
<rect x="127" y="98" width="1" height="1"/>
<rect x="130" y="98" width="2" height="1"/>
<rect x="135" y="98" width="1" height="1"/>
<rect x="259" y="98" width="1" height="1"/>
<rect x="268" y="98" width="2" height="1"/>
<rect x="90" y="99" width="2" height="1"/>
<rect x="100" y="99" width="1" height="1"/>
<rect x="105" y="99" width="1" height="1"/>
<rect x="112" y="99" width="1" height="1"/>
<rect x="115" y="99" width="1" height="1"/>
<rect x="120" y="99" width="1" height="1"/>
<rect x="123" y="99" width="1" height="1"/>
<rect x="127" y="99" width="2" height="1"/>
<rect x="130" y="99" width="1" height="1"/>
<rect x="135" y="99" width="1" height="1"/>
<rect x="259" y="99" width="1" height="1"/>
<rect x="268" y="99" width="2" height="1"/>
<rect x="90" y="100" width="2" height="1"/>
<rect x="100" y="100" width="1" height="1"/>
<rect x="105" y="100" width="1" height="1"/>
<rect x="112" y="100" width="1" height="1"/>
<rect x="115" y="100" width="1" height="1"/>
<rect x="120" y="100" width="1" height="1"/>
<rect x="123" y="100" width="6" height="1"/>
<rect x="130" y="100" width="1" height="1"/>
<rect x="135" y="100" width="1" height="1"/>
<rect x="259" y="100" width="1" height="1"/>
<rect x="268" y="100" width="2" height="1"/>
<rect x="90" y="101" width="2" height="1"/>
<rect x="100" y="101" width="1" height="1"/>
<rect x="105" y="101" width="1" height="1"/>
<rect x="112" y="101" width="1" height="1"/>
<rect x="115" y="101" width="1" height="1"/>
<rect x="120" y="101" width="1" height="1"/>
<rect x="123" y="101" width="1" height="1"/>
<rect x="130" y="101" width="1" height="1"/>
<rect x="135" y="101" width="1" height="1"/>
<rect x="259" y="101" width="1" height="1"/>
<rect x="268" y="101" width="2" height="1"/>
<rect x="90" y="102" width="2" height="1"/>
<rect x="100" y="102" width="1" height="1"/>
<rect x="106" y="102" width="1" height="1"/>
<rect x="111" y="102" width="1" height="1"/>
<rect x="115" y="102" width="2" height="1"/>
<rect x="119" y="102" width="2" height="1"/>
<rect x="123" y="102" width="1" height="1"/>
<rect x="130" y="102" width="1" height="1"/>
<rect x="135" y="102" width="1" height="1"/>
<rect x="259" y="102" width="1" height="1"/>
<rect x="268" y="102" width="2" height="1"/>
<rect x="90" y="103" width="2" height="1"/>
<rect x="100" y="103" width="1" height="1"/>
<rect x="107" y="103" width="4" height="1"/>
<rect x="115" y="103" width="1" height="1"/>
<rect x="117" y="103" width="3" height="1"/>
<rect x="124" y="103" width="4" height="1"/>
<rect x="130" y="103" width="1" height="1"/>
<rect x="135" y="103" width="1" height="1"/>
<rect x="259" y="103" width="1" height="1"/>
<rect x="268" y="103" width="2" height="1"/>
<rect x="90" y="104" width="2" height="1"/>
<rect x="100" y="104" width="1" height="1"/>
<rect x="115" y="104" width="1" height="1"/>
<rect x="259" y="104" width="1" height="1"/>
<rect x="268" y="104" width="2" height="1"/>
<rect x="90" y="105" width="2" height="1"/>
<rect x="100" y="105" width="1" height="1"/>
<rect x="115" y="105" width="1" height="1"/>
<rect x="259" y="105" width="1" height="1"/>
<rect x="268" y="105" width="2" height="1"/>
<rect x="90" y="106" width="2" height="1"/>
<rect x="100" y="106" width="1" height="1"/>
<rect x="115" y="106" width="1" height="1"/>
<rect x="259" y="106" width="1" height="1"/>
<rect x="268" y="106" width="2" height="1"/>
<rect x="90" y="107" width="2" height="1"/>
<rect x="100" y="107" width="1" height="1"/>
<rect x="259" y="107" width="1" height="1"/>
<rect x="268" y="107" width="2" height="1"/>
<rect x="90" y="108" width="2" height="1"/>
<rect x="100" y="108" width="1" height="1"/>
<rect x="259" y="108" width="1" height="1"/>
<rect x="268" y="108" width="2" height="1"/>
<rect x="90" y="109" width="2" height="1"/>
<rect x="100" y="109" width="1" height="1"/>
<rect x="259" y="109" width="1" height="1"/>
<rect x="268" y="109" width="2" height="1"/>
<rect x="90" y="110" width="2" height="1"/>
<rect x="100" y="110" width="1" height="1"/>
<rect x="259" y="110" width="1" height="1"/>
<rect x="268" y="110" width="2" height="1"/>
<rect x="90" y="111" width="2" height="1"/>
<rect x="100" y="111" width="1" height="1"/>
<rect x="259" y="111" width="1" height="1"/>
<rect x="268" y="111" width="2" height="1"/>
<rect x="90" y="112" width="2" height="1"/>
<rect x="100" y="112" width="1" height="1"/>
<rect x="259" y="112" width="1" height="1"/>
<rect x="268" y="112" width="2" height="1"/>
<rect x="90" y="113" width="2" height="1"/>
<rect x="100" y="113" width="1" height="1"/>
<rect x="259" y="113" width="1" height="1"/>
<rect x="268" y="113" width="2" height="1"/>
<rect x="90" y="114" width="2" height="1"/>
<rect x="100" y="114" width="1" height="1"/>
<rect x="259" y="114" width="1" height="1"/>
<rect x="268" y="114" width="2" height="1"/>
<rect x="90" y="115" width="2" height="1"/>
<rect x="100" y="115" width="1" height="1"/>
<rect x="259" y="115" width="1" height="1"/>
<rect x="268" y="115" width="2" height="1"/>
<rect x="90" y="116" width="2" height="1"/>
<rect x="100" y="116" width="1" height="1"/>
<rect x="259" y="116" width="1" height="1"/>
<rect x="268" y="116" width="2" height="1"/>
<rect x="90" y="117" width="2" height="1"/>
<rect x="100" y="117" width="1" height="1"/>
<rect x="259" y="117" width="1" height="1"/>
<rect x="268" y="117" width="2" height="1"/>
<rect x="90" y="118" width="2" height="1"/>
<rect x="100" y="118" width="160" height="1"/>
<rect x="268" y="118" width="2" height="1"/>
<rect x="90" y="119" width="2" height="1"/>
<rect x="268" y="119" width="2" height="1"/>
<rect x="90" y="120" width="2" height="1"/>
<rect x="268" y="120" width="2" height="1"/>
<rect x="90" y="121" width="2" height="1"/>
<rect x="268" y="121" width="2" height="1"/>
<rect x="90" y="122" width="2" height="1"/>
<rect x="268" y="122" width="2" height="1"/>
<rect x="90" y="123" width="2" height="1"/>
<rect x="268" y="123" width="2" height="1"/>
<rect x="90" y="124" width="2" height="1"/>
<rect x="268" y="124" width="2" height="1"/>
<rect x="90" y="125" width="2" height="1"/>
<rect x="268" y="125" width="2" height="1"/>
<rect x="90" y="126" width="2" height="1"/>
<rect x="268" y="126" width="2" height="1"/>
<rect x="90" y="127" width="2" height="1"/>
<rect x="268" y="127" width="2" height="1"/>
<rect x="90" y="128" width="2" height="1"/>
<rect x="268" y="128" width="2" height="1"/>
<rect x="90" y="129" width="2" height="1"/>
<rect x="268" y="129" width="2" height="1"/>
<rect x="90" y="130" width="2" height="1"/>
<rect x="268" y="130" width="2" height="1"/>
<rect x="90" y="131" width="2" height="1"/>
<rect x="268" y="131" width="2" height="1"/>
<rect x="90" y="132" width="2" height="1"/>
<rect x="268" y="132" width="2" height="1"/>
<rect x="90" y="133" width="2" height="1"/>
<rect x="268" y="133" width="2" height="1"/>
<rect x="90" y="134" width="2" height="1"/>
<rect x="268" y="134" width="2" height="1"/>
<rect x="90" y="135" width="2" height="1"/>
<rect x="268" y="135" width="2" height="1"/>
<rect x="90" y="136" width="2" height="1"/>
<rect x="268" y="136" width="2" height="1"/>
<rect x="90" y="137" width="2" height="1"/>
<rect x="268" y="137" width="2" height="1"/>
<rect x="90" y="138" width="2" height="1"/>
<rect x="268" y="138" width="2" height="1"/>
<rect x="90" y="139" width="2" height="1"/>
<rect x="268" y="139" width="2" height="1"/>
<rect x="90" y="140" width="2" height="1"/>
<rect x="268" y="140" width="2" height="1"/>
<rect x="90" y="141" width="2" height="1"/>
<rect x="268" y="141" width="2" height="1"/>
<rect x="90" y="142" width="2" height="1"/>
<rect x="268" y="142" width="2" height="1"/>
<rect x="90" y="143" width="2" height="1"/>
<rect x="268" y="143" width="2" height="1"/>
<rect x="90" y="144" width="2" height="1"/>
<rect x="268" y="144" width="2" height="1"/>
<rect x="90" y="145" width="2" height="1"/>
<rect x="268" y="145" width="2" height="1"/>
<rect x="90" y="146" width="2" height="1"/>
<rect x="268" y="146" width="2" height="1"/>
<rect x="90" y="147" width="2" height="1"/>
<rect x="268" y="147" width="2" height="1"/>
<rect x="90" y="148" width="2" height="1"/>
<rect x="268" y="148" width="2" height="1"/>
<rect x="90" y="149" width="2" height="1"/>
<rect x="268" y="149" width="2" height="1"/>
<rect x="90" y="150" width="2" height="1"/>
<rect x="268" y="150" width="2" height="1"/>
<rect x="90" y="151" width="2" height="1"/>
<rect x="268" y="151" width="2" height="1"/>
<rect x="90" y="152" width="2" height="1"/>
<rect x="268" y="152" width="2" height="1"/>
<rect x="90" y="153" width="180" height="1"/>
<rect x="90" y="154" width="180" height="1"/>
</g>
</svg>
