<svg xmlns="http://www.w3.org/2000/svg" viewBox="0 0 360 180" width="360" height="180" shape-rendering="crispEdges">
<rect width="100%" height="100%" fill="#fff"/>
<g fill="#111">
<rect x="99" y="16" width="1" height="1"/>
<rect x="52" y="17" width="5" height="1"/>
<rect x="99" y="17" width="1" height="1"/>
<rect x="51" y="18" width="1" height="1"/>
<rect x="99" y="18" width="1" height="1"/>
<rect x="18" y="19" width="4" height="1"/>
<rect x="24" y="19" width="4" height="1"/>
<rect x="30" y="19" width="1" height="1"/>
<rect x="35" y="19" width="2" height="1"/>
<rect x="39" y="19" width="3" height="1"/>
<rect x="45" y="19" width="1" height="1"/>
<rect x="47" y="19" width="2" height="1"/>
<rect x="50" y="19" width="1" height="1"/>
<rect x="59" y="19" width="4" height="1"/>
<rect x="65" y="19" width="1" height="1"/>
<rect x="67" y="19" width="2" height="1"/>
<rect x="71" y="19" width="4" height="1"/>
<rect x="78" y="19" width="1" height="1"/>
<rect x="83" y="19" width="1" height="1"/>
<rect x="86" y="19" width="5" height="1"/>
<rect x="93" y="19" width="3" height="1"/>
<rect x="99" y="19" width="1" height="1"/>
<rect x="17" y="20" width="1" height="1"/>
<rect x="23" y="20" width="1" height="1"/>
<rect x="27" y="20" width="2" height="1"/>
<rect x="31" y="20" width="1" height="1"/>
<rect x="35" y="20" width="1" height="1"/>
<rect x="38" y="20" width="1" height="1"/>
<rect x="42" y="20" width="1" height="1"/>
<rect x="45" y="20" width="2" height="1"/>
<rect x="50" y="20" width="1" height="1"/>
<rect x="58" y="20" width="1" height="1"/>
<rect x="62" y="20" width="1" height="1"/>
<rect x="65" y="20" width="2" height="1"/>
<rect x="70" y="20" width="1" height="1"/>
<rect x="74" y="20" width="2" height="1"/>
<rect x="78" y="20" width="1" height="1"/>
<rect x="83" y="20" width="1" height="1"/>
<rect x="86" y="20" width="1" height="1"/>
<rect x="92" y="20" width="1" height="1"/>
<rect x="96" y="20" width="1" height="1"/>
<rect x="99" y="20" width="1" height="1"/>
<rect x="17" y="21" width="1" height="1"/>
<rect x="23" y="21" width="1" height="1"/>
<rect x="28" y="21" width="1" height="1"/>
<rect x="31" y="21" width="1" height="1"/>
<rect x="34" y="21" width="2" height="1"/>
<rect x="38" y="21" width="1" height="1"/>
<rect x="42" y="21" width="2" height="1"/>
<rect x="45" y="21" width="1" height="1"/>
<rect x="50" y="21" width="1" height="1"/>
<rect x="62" y="21" width="1" height="1"/>
<rect x="65" y="21" width="1" height="1"/>
<rect x="70" y="21" width="1" height="1"/>
<rect x="75" y="21" width="1" height="1"/>
<rect x="78" y="21" width="1" height="1"/>
<rect x="83" y="21" width="1" height="1"/>
<rect x="86" y="21" width="1" height="1"/>
<rect x="92" y="21" width="1" height="1"/>
<rect x="96" y="21" width="2" height="1"/>
<rect x="99" y="21" width="1" height="1"/>
<rect x="17" y="22" width="1" height="1"/>
<rect x="23" y="22" width="1" height="1"/>
<rect x="28" y="22" width="1" height="1"/>
<rect x="31" y="22" width="1" height="1"/>
<rect x="34" y="22" width="1" height="1"/>
<rect x="38" y="22" width="6" height="1"/>
<rect x="45" y="22" width="1" height="1"/>
<rect x="50" y="22" width="1" height="1"/>
<rect x="58" y="22" width="5" height="1"/>
<rect x="65" y="22" width="1" height="1"/>
<rect x="70" y="22" width="1" height="1"/>
<rect x="75" y="22" width="1" height="1"/>
<rect x="78" y="22" width="1" height="1"/>
<rect x="83" y="22" width="1" height="1"/>
<rect x="87" y="22" width="3" height="1"/>
<rect x="92" y="22" width="6" height="1"/>
<rect x="99" y="22" width="1" height="1"/>
<rect x="17" y="23" width="1" height="1"/>
<rect x="23" y="23" width="1" height="1"/>
<rect x="28" y="23" width="1" height="1"/>
<rect x="32" y="23" width="1" height="1"/>
<rect x="34" y="23" width="1" height="1"/>
<rect x="38" y="23" width="1" height="1"/>
<rect x="45" y="23" width="1" height="1"/>
<rect x="50" y="23" width="1" height="1"/>
<rect x="58" y="23" width="1" height="1"/>
<rect x="62" y="23" width="1" height="1"/>
<rect x="65" y="23" width="1" height="1"/>
<rect x="70" y="23" width="1" height="1"/>
<rect x="75" y="23" width="1" height="1"/>
<rect x="78" y="23" width="1" height="1"/>
<rect x="83" y="23" width="1" height="1"/>
<rect x="89" y="23" width="2" height="1"/>
<rect x="92" y="23" width="1" height="1"/>
<rect x="99" y="23" width="1" height="1"/>
<rect x="17" y="24" width="1" height="1"/>
<rect x="23" y="24" width="1" height="1"/>
<rect x="27" y="24" width="2" height="1"/>
<rect x="32" y="24" width="3" height="1"/>
<rect x="38" y="24" width="1" height="1"/>
<rect x="45" y="24" width="1" height="1"/>
<rect x="51" y="24" width="1" height="1"/>
<rect x="58" y="24" width="1" height="1"/>
<rect x="62" y="24" width="1" height="1"/>
<rect x="65" y="24" width="1" height="1"/>
<rect x="70" y="24" width="1" height="1"/>
<rect x="74" y="24" width="2" height="1"/>
<rect x="78" y="24" width="1" height="1"/>
<rect x="82" y="24" width="2" height="1"/>
<rect x="89" y="24" width="2" height="1"/>
<rect x="92" y="24" width="1" height="1"/>
<rect x="99" y="24" width="1" height="1"/>
<rect x="18" y="25" width="4" height="1"/>
<rect x="24" y="25" width="4" height="1"/>
<rect x="32" y="25" width="2" height="1"/>
<rect x="39" y="25" width="4" height="1"/>
<rect x="45" y="25" width="1" height="1"/>
<rect x="52" y="25" width="4" height="1"/>
<rect x="58" y="25" width="5" height="1"/>
<rect x="65" y="25" width="1" height="1"/>
<rect x="71" y="25" width="4" height="1"/>
<rect x="79" y="25" width="3" height="1"/>
<rect x="83" y="25" width="1" height="1"/>
<rect x="86" y="25" width="4" height="1"/>
<rect x="93" y="25" width="4" height="1"/>
<rect x="99" y="25" width="1" height="1"/>
<rect x="16" y="30" width="328" height="1"/>
<rect x="142" y="50" width="76" height="1"/>
<rect x="142" y="51" width="76" height="1"/>
<rect x="142" y="52" width="76" height="1"/>
<rect x="142" y="53" width="3" height="1"/>
<rect x="215" y="53" width="3" height="1"/>
<rect x="142" y="54" width="3" height="1"/>
<rect x="215" y="54" width="3" height="1"/>
<rect x="142" y="55" width="3" height="1"/>
<rect x="215" y="55" width="3" height="1"/>
<rect x="142" y="56" width="3" height="1"/>
<rect x="215" y="56" width="3" height="1"/>
<rect x="142" y="57" width="3" height="1"/>
<rect x="215" y="57" width="3" height="1"/>
<rect x="142" y="58" width="3" height="1"/>
<rect x="215" y="58" width="3" height="1"/>
<rect x="142" y="59" width="3" height="1"/>
<rect x="215" y="59" width="3" height="1"/>
<rect x="142" y="60" width="3" height="1"/>
<rect x="215" y="60" width="3" height="1"/>
<rect x="142" y="61" width="3" height="1"/>
<rect x="215" y="61" width="3" height="1"/>
<rect x="142" y="62" width="3" height="1"/>
<rect x="215" y="62" width="3" height="1"/>
<rect x="142" y="63" width="3" height="1"/>
<rect x="215" y="63" width="3" height="1"/>
<rect x="142" y="64" width="3" height="1"/>
<rect x="215" y="64" width="3" height="1"/>
<rect x="142" y="65" width="3" height="1"/>
<rect x="215" y="65" width="3" height="1"/>
<rect x="142" y="66" width="3" height="1"/>
<rect x="215" y="66" width="3" height="1"/>
<rect x="142" y="67" width="3" height="1"/>
<rect x="215" y="67" width="3" height="1"/>
<rect x="142" y="68" width="3" height="1"/>
<rect x="215" y="68" width="3" height="1"/>
<rect x="84" y="69" width="46" height="1"/>
<rect x="142" y="69" width="3" height="1"/>
<rect x="215" y="69" width="3" height="1"/>
<rect x="230" y="69" width="46" height="1"/>
<rect x="84" y="70" width="1" height="1"/>
<rect x="129" y="70" width="1" height="1"/>
<rect x="142" y="70" width="3" height="1"/>
<rect x="215" y="70" width="3" height="1"/>
<rect x="230" y="70" width="1" height="1"/>
<rect x="275" y="70" width="1" height="1"/>
<rect x="84" y="71" width="1" height="1"/>
<rect x="129" y="71" width="1" height="1"/>
<rect x="142" y="71" width="3" height="1"/>
<rect x="215" y="71" width="3" height="1"/>
<rect x="230" y="71" width="1" height="1"/>
<rect x="275" y="71" width="1" height="1"/>
<rect x="84" y="72" width="1" height="1"/>
<rect x="129" y="72" width="1" height="1"/>
<rect x="142" y="72" width="3" height="1"/>
<rect x="215" y="72" width="3" height="1"/>
<rect x="230" y="72" width="1" height="1"/>
<rect x="275" y="72" width="1" height="1"/>
<rect x="84" y="73" width="1" height="1"/>
<rect x="129" y="73" width="1" height="1"/>
<rect x="142" y="73" width="3" height="1"/>
<rect x="215" y="73" width="3" height="1"/>
<rect x="230" y="73" width="1" height="1"/>
<rect x="275" y="73" width="1" height="1"/>
<rect x="84" y="74" width="1" height="1"/>
<rect x="129" y="74" width="1" height="1"/>
<rect x="142" y="74" width="3" height="1"/>
<rect x="215" y="74" width="3" height="1"/>
<rect x="230" y="74" width="1" height="1"/>
<rect x="275" y="74" width="1" height="1"/>
<rect x="84" y="75" width="1" height="1"/>
<rect x="129" y="75" width="1" height="1"/>
<rect x="142" y="75" width="3" height="1"/>
<rect x="215" y="75" width="3" height="1"/>
<rect x="230" y="75" width="1" height="1"/>
<rect x="275" y="75" width="1" height="1"/>
<rect x="84" y="76" width="1" height="1"/>
<rect x="129" y="76" width="1" height="1"/>
<rect x="142" y="76" width="3" height="1"/>
<rect x="215" y="76" width="3" height="1"/>
<rect x="230" y="76" width="1" height="1"/>
<rect x="275" y="76" width="1" height="1"/>
<rect x="84" y="77" width="1" height="1"/>
<rect x="129" y="77" width="1" height="1"/>
<rect x="142" y="77" width="3" height="1"/>
<rect x="215" y="77" width="3" height="1"/>
<rect x="230" y="77" width="1" height="1"/>
<rect x="275" y="77" width="1" height="1"/>
<rect x="84" y="78" width="1" height="1"/>
<rect x="129" y="78" width="1" height="1"/>
<rect x="142" y="78" width="3" height="1"/>
<rect x="215" y="78" width="3" height="1"/>
<rect x="230" y="78" width="1" height="1"/>
<rect x="275" y="78" width="1" height="1"/>
<rect x="84" y="79" width="1" height="1"/>
<rect x="129" y="79" width="1" height="1"/>
<rect x="142" y="79" width="3" height="1"/>
<rect x="215" y="79" width="3" height="1"/>
<rect x="230" y="79" width="1" height="1"/>
<rect x="275" y="79" width="1" height="1"/>
<rect x="84" y="80" width="1" height="1"/>
<rect x="129" y="80" width="1" height="1"/>
<rect x="142" y="80" width="3" height="1"/>
<rect x="215" y="80" width="3" height="1"/>
<rect x="230" y="80" width="1" height="1"/>
<rect x="275" y="80" width="1" height="1"/>
<rect x="84" y="81" width="1" height="1"/>
<rect x="129" y="81" width="1" height="1"/>
<rect x="142" y="81" width="3" height="1"/>
<rect x="215" y="81" width="3" height="1"/>
<rect x="230" y="81" width="1" height="1"/>
<rect x="275" y="81" width="1" height="1"/>
<rect x="84" y="82" width="1" height="1"/>
<rect x="129" y="82" width="1" height="1"/>
<rect x="142" y="82" width="3" height="1"/>
<rect x="215" y="82" width="3" height="1"/>
<rect x="230" y="82" width="1" height="1"/>
<rect x="275" y="82" width="1" height="1"/>
<rect x="84" y="83" width="1" height="1"/>
<rect x="129" y="83" width="1" height="1"/>
<rect x="142" y="83" width="3" height="1"/>
<rect x="215" y="83" width="3" height="1"/>
<rect x="230" y="83" width="1" height="1"/>
<rect x="275" y="83" width="1" height="1"/>
<rect x="84" y="84" width="1" height="1"/>
<rect x="129" y="84" width="1" height="1"/>
<rect x="142" y="84" width="3" height="1"/>
<rect x="215" y="84" width="3" height="1"/>
<rect x="230" y="84" width="1" height="1"/>
<rect x="275" y="84" width="1" height="1"/>
<rect x="84" y="85" width="1" height="1"/>
<rect x="129" y="85" width="1" height="1"/>
<rect x="142" y="85" width="3" height="1"/>
<rect x="215" y="85" width="3" height="1"/>
<rect x="230" y="85" width="1" height="1"/>
<rect x="275" y="85" width="1" height="1"/>
<rect x="84" y="86" width="1" height="1"/>
<rect x="129" y="86" width="1" height="1"/>
<rect x="142" y="86" width="3" height="1"/>
<rect x="215" y="86" width="3" height="1"/>
<rect x="230" y="86" width="1" height="1"/>
<rect x="275" y="86" width="1" height="1"/>
<rect x="84" y="87" width="1" height="1"/>
<rect x="129" y="87" width="1" height="1"/>
<rect x="142" y="87" width="3" height="1"/>
<rect x="215" y="87" width="3" height="1"/>
<rect x="230" y="87" width="1" height="1"/>
<rect x="275" y="87" width="1" height="1"/>
<rect x="84" y="88" width="1" height="1"/>
<rect x="129" y="88" width="1" height="1"/>
<rect x="142" y="88" width="3" height="1"/>
<rect x="215" y="88" width="3" height="1"/>
<rect x="230" y="88" width="1" height="1"/>
<rect x="275" y="88" width="1" height="1"/>
<rect x="84" y="89" width="1" height="1"/>
<rect x="129" y="89" width="1" height="1"/>
<rect x="142" y="89" width="3" height="1"/>
<rect x="215" y="89" width="3" height="1"/>
<rect x="230" y="89" width="1" height="1"/>
<rect x="275" y="89" width="1" height="1"/>
<rect x="84" y="90" width="1" height="1"/>
<rect x="129" y="90" width="1" height="1"/>
<rect x="142" y="90" width="3" height="1"/>
<rect x="215" y="90" width="3" height="1"/>
<rect x="230" y="90" width="1" height="1"/>
<rect x="275" y="90" width="1" height="1"/>
<rect x="84" y="91" width="1" height="1"/>
<rect x="129" y="91" width="1" height="1"/>
<rect x="142" y="91" width="3" height="1"/>
<rect x="215" y="91" width="3" height="1"/>
<rect x="230" y="91" width="1" height="1"/>
<rect x="275" y="91" width="1" height="1"/>
<rect x="84" y="92" width="1" height="1"/>
<rect x="129" y="92" width="1" height="1"/>
<rect x="142" y="92" width="3" height="1"/>
<rect x="215" y="92" width="3" height="1"/>
<rect x="230" y="92" width="1" height="1"/>
<rect x="275" y="92" width="1" height="1"/>
<rect x="84" y="93" width="1" height="1"/>
<rect x="129" y="93" width="1" height="1"/>
<rect x="142" y="93" width="3" height="1"/>
<rect x="215" y="93" width="3" height="1"/>
<rect x="230" y="93" width="1" height="1"/>
<rect x="275" y="93" width="1" height="1"/>
<rect x="84" y="94" width="1" height="1"/>
<rect x="129" y="94" width="1" height="1"/>
<rect x="142" y="94" width="3" height="1"/>
<rect x="215" y="94" width="3" height="1"/>
<rect x="230" y="94" width="1" height="1"/>
<rect x="275" y="94" width="1" height="1"/>
<rect x="84" y="95" width="1" height="1"/>
<rect x="129" y="95" width="1" height="1"/>
<rect x="142" y="95" width="3" height="1"/>
<rect x="215" y="95" width="3" height="1"/>
<rect x="230" y="95" width="1" height="1"/>
<rect x="275" y="95" width="1" height="1"/>
<rect x="84" y="96" width="1" height="1"/>
<rect x="129" y="96" width="1" height="1"/>
<rect x="142" y="96" width="3" height="1"/>
<rect x="215" y="96" width="3" height="1"/>
<rect x="230" y="96" width="1" height="1"/>
<rect x="275" y="96" width="1" height="1"/>
<rect x="84" y="97" width="1" height="1"/>
<rect x="129" y="97" width="1" height="1"/>
<rect x="142" y="97" width="3" height="1"/>
<rect x="215" y="97" width="3" height="1"/>
<rect x="230" y="97" width="1" height="1"/>
<rect x="275" y="97" width="1" height="1"/>
<rect x="84" y="98" width="1" height="1"/>
<rect x="129" y="98" width="1" height="1"/>
<rect x="142" y="98" width="3" height="1"/>
<rect x="215" y="98" width="3" height="1"/>
<rect x="230" y="98" width="1" height="1"/>
<rect x="275" y="98" width="1" height="1"/>
<rect x="84" y="99" width="1" height="1"/>
<rect x="129" y="99" width="1" height="1"/>
<rect x="142" y="99" width="3" height="1"/>
<rect x="215" y="99" width="3" height="1"/>
<rect x="230" y="99" width="1" height="1"/>
<rect x="275" y="99" width="1" height="1"/>
<rect x="84" y="100" width="1" height="1"/>
<rect x="129" y="100" width="1" height="1"/>
<rect x="142" y="100" width="3" height="1"/>
<rect x="215" y="100" width="3" height="1"/>
<rect x="230" y="100" width="1" height="1"/>
<rect x="275" y="100" width="1" height="1"/>
<rect x="84" y="101" width="1" height="1"/>
<rect x="129" y="101" width="1" height="1"/>
<rect x="142" y="101" width="3" height="1"/>
<rect x="215" y="101" width="3" height="1"/>
<rect x="230" y="101" width="1" height="1"/>
<rect x="275" y="101" width="1" height="1"/>
<rect x="84" y="102" width="1" height="1"/>
<rect x="129" y="102" width="1" height="1"/>
<rect x="142" y="102" width="3" height="1"/>
<rect x="215" y="102" width="3" height="1"/>
<rect x="230" y="102" width="1" height="1"/>
<rect x="275" y="102" width="1" height="1"/>
<rect x="84" y="103" width="1" height="1"/>
<rect x="129" y="103" width="1" height="1"/>
<rect x="142" y="103" width="3" height="1"/>
<rect x="215" y="103" width="3" height="1"/>
<rect x="230" y="103" width="1" height="1"/>
<rect x="275" y="103" width="1" height="1"/>
<rect x="84" y="104" width="1" height="1"/>
<rect x="129" y="104" width="1" height="1"/>
<rect x="142" y="104" width="3" height="1"/>
<rect x="215" y="104" width="3" height="1"/>
<rect x="230" y="104" width="1" height="1"/>
<rect x="275" y="104" width="1" height="1"/>
<rect x="84" y="105" width="1" height="1"/>
<rect x="129" y="105" width="1" height="1"/>
<rect x="142" y="105" width="3" height="1"/>
<rect x="215" y="105" width="3" height="1"/>
<rect x="230" y="105" width="1" height="1"/>
<rect x="275" y="105" width="1" height="1"/>
<rect x="84" y="106" width="1" height="1"/>
<rect x="129" y="106" width="1" height="1"/>
<rect x="142" y="106" width="3" height="1"/>
<rect x="215" y="106" width="3" height="1"/>
<rect x="230" y="106" width="1" height="1"/>
<rect x="275" y="106" width="1" height="1"/>
<rect x="84" y="107" width="1" height="1"/>
<rect x="129" y="107" width="1" height="1"/>
<rect x="142" y="107" width="3" height="1"/>
<rect x="215" y="107" width="3" height="1"/>
<rect x="230" y="107" width="1" height="1"/>
<rect x="275" y="107" width="1" height="1"/>
<rect x="84" y="108" width="1" height="1"/>
<rect x="129" y="108" width="1" height="1"/>
<rect x="142" y="108" width="3" height="1"/>
<rect x="215" y="108" width="3" height="1"/>
<rect x="230" y="108" width="1" height="1"/>
<rect x="275" y="108" width="1" height="1"/>
<rect x="84" y="109" width="1" height="1"/>
<rect x="129" y="109" width="1" height="1"/>
<rect x="142" y="109" width="3" height="1"/>
<rect x="215" y="109" width="3" height="1"/>
<rect x="230" y="109" width="1" height="1"/>
<rect x="275" y="109" width="1" height="1"/>
<rect x="84" y="110" width="1" height="1"/>
<rect x="129" y="110" width="1" height="1"/>
<rect x="142" y="110" width="3" height="1"/>
<rect x="215" y="110" width="3" height="1"/>
<rect x="230" y="110" width="1" height="1"/>
<rect x="275" y="110" width="1" height="1"/>
<rect x="84" y="111" width="1" height="1"/>
<rect x="129" y="111" width="1" height="1"/>
<rect x="142" y="111" width="3" height="1"/>
<rect x="215" y="111" width="3" height="1"/>
<rect x="230" y="111" width="1" height="1"/>
<rect x="275" y="111" width="1" height="1"/>
<rect x="84" y="112" width="1" height="1"/>
<rect x="129" y="112" width="1" height="1"/>
<rect x="142" y="112" width="3" height="1"/>
<rect x="215" y="112" width="3" height="1"/>
<rect x="230" y="112" width="1" height="1"/>
<rect x="275" y="112" width="1" height="1"/>
<rect x="84" y="113" width="1" height="1"/>
<rect x="129" y="113" width="1" height="1"/>
<rect x="142" y="113" width="3" height="1"/>
<rect x="215" y="113" width="3" height="1"/>
<rect x="230" y="113" width="1" height="1"/>
<rect x="275" y="113" width="1" height="1"/>
<rect x="84" y="114" width="1" height="1"/>
<rect x="129" y="114" width="1" height="1"/>
<rect x="142" y="114" width="3" height="1"/>
<rect x="215" y="114" width="3" height="1"/>
<rect x="230" y="114" width="1" height="1"/>
<rect x="275" y="114" width="1" height="1"/>
<rect x="84" y="115" width="1" height="1"/>
<rect x="129" y="115" width="1" height="1"/>
<rect x="142" y="115" width="3" height="1"/>
<rect x="215" y="115" width="3" height="1"/>
<rect x="230" y="115" width="1" height="1"/>
<rect x="275" y="115" width="1" height="1"/>
<rect x="84" y="116" width="1" height="1"/>
<rect x="129" y="116" width="1" height="1"/>
<rect x="142" y="116" width="3" height="1"/>
<rect x="215" y="116" width="3" height="1"/>
<rect x="230" y="116" width="1" height="1"/>
<rect x="275" y="116" width="1" height="1"/>
<rect x="84" y="117" width="1" height="1"/>
<rect x="129" y="117" width="1" height="1"/>
<rect x="142" y="117" width="3" height="1"/>
<rect x="215" y="117" width="3" height="1"/>
<rect x="230" y="117" width="1" height="1"/>
<rect x="275" y="117" width="1" height="1"/>
<rect x="84" y="118" width="1" height="1"/>
<rect x="129" y="118" width="1" height="1"/>
<rect x="142" y="118" width="3" height="1"/>
<rect x="215" y="118" width="3" height="1"/>
<rect x="230" y="118" width="1" height="1"/>
<rect x="275" y="118" width="1" height="1"/>
<rect x="84" y="119" width="1" height="1"/>
<rect x="129" y="119" width="1" height="1"/>
<rect x="142" y="119" width="3" height="1"/>
<rect x="215" y="119" width="3" height="1"/>
<rect x="230" y="119" width="1" height="1"/>
<rect x="275" y="119" width="1" height="1"/>
<rect x="84" y="120" width="1" height="1"/>
<rect x="129" y="120" width="1" height="1"/>
<rect x="142" y="120" width="3" height="1"/>
<rect x="215" y="120" width="3" height="1"/>
<rect x="230" y="120" width="1" height="1"/>
<rect x="275" y="120" width="1" height="1"/>
<rect x="84" y="121" width="1" height="1"/>
<rect x="129" y="121" width="1" height="1"/>
<rect x="142" y="121" width="3" height="1"/>
<rect x="215" y="121" width="3" height="1"/>
<rect x="230" y="121" width="1" height="1"/>
<rect x="275" y="121" width="1" height="1"/>
<rect x="84" y="122" width="1" height="1"/>
<rect x="129" y="122" width="1" height="1"/>
<rect x="142" y="122" width="3" height="1"/>
<rect x="215" y="122" width="3" height="1"/>
<rect x="230" y="122" width="1" height="1"/>
<rect x="275" y="122" width="1" height="1"/>
<rect x="84" y="123" width="1" height="1"/>
<rect x="129" y="123" width="1" height="1"/>
<rect x="142" y="123" width="3" height="1"/>
<rect x="215" y="123" width="3" height="1"/>
<rect x="230" y="123" width="1" height="1"/>
<rect x="275" y="123" width="1" height="1"/>
<rect x="84" y="124" width="1" height="1"/>
<rect x="129" y="124" width="1" height="1"/>
<rect x="142" y="124" width="3" height="1"/>
<rect x="215" y="124" width="3" height="1"/>
<rect x="230" y="124" width="1" height="1"/>
<rect x="275" y="124" width="1" height="1"/>
<rect x="84" y="125" width="1" height="1"/>
<rect x="129" y="125" width="1" height="1"/>
<rect x="142" y="125" width="3" height="1"/>
<rect x="215" y="125" width="3" height="1"/>
<rect x="230" y="125" width="1" height="1"/>
<rect x="275" y="125" width="1" height="1"/>
<rect x="84" y="126" width="1" height="1"/>
<rect x="129" y="126" width="1" height="1"/>
<rect x="142" y="126" width="3" height="1"/>
<rect x="215" y="126" width="3" height="1"/>
<rect x="230" y="126" width="1" height="1"/>
<rect x="275" y="126" width="1" height="1"/>
<rect x="84" y="127" width="1" height="1"/>
<rect x="129" y="127" width="1" height="1"/>
<rect x="142" y="127" width="3" height="1"/>
<rect x="215" y="127" width="3" height="1"/>
<rect x="230" y="127" width="1" height="1"/>
<rect x="275" y="127" width="1" height="1"/>
<rect x="84" y="128" width="1" height="1"/>
<rect x="129" y="128" width="1" height="1"/>
<rect x="142" y="128" width="3" height="1"/>
<rect x="215" y="128" width="3" height="1"/>
<rect x="230" y="128" width="1" height="1"/>
<rect x="275" y="128" width="1" height="1"/>
<rect x="84" y="129" width="1" height="1"/>
<rect x="129" y="129" width="1" height="1"/>
<rect x="142" y="129" width="3" height="1"/>
<rect x="215" y="129" width="3" height="1"/>
<rect x="230" y="129" width="1" height="1"/>
<rect x="275" y="129" width="1" height="1"/>
<rect x="84" y="130" width="1" height="1"/>
<rect x="129" y="130" width="1" height="1"/>
<rect x="142" y="130" width="3" height="1"/>
<rect x="215" y="130" width="3" height="1"/>
<rect x="230" y="130" width="1" height="1"/>
<rect x="275" y="130" width="1" height="1"/>
<rect x="84" y="131" width="1" height="1"/>
<rect x="129" y="131" width="1" height="1"/>
<rect x="142" y="131" width="3" height="1"/>
<rect x="215" y="131" width="3" height="1"/>
<rect x="230" y="131" width="1" height="1"/>
<rect x="275" y="131" width="1" height="1"/>
<rect x="84" y="132" width="1" height="1"/>
<rect x="129" y="132" width="1" height="1"/>
<rect x="142" y="132" width="3" height="1"/>
<rect x="215" y="132" width="3" height="1"/>
<rect x="230" y="132" width="1" height="1"/>
<rect x="275" y="132" width="1" height="1"/>
<rect x="84" y="133" width="1" height="1"/>
<rect x="129" y="133" width="1" height="1"/>
<rect x="142" y="133" width="3" height="1"/>
<rect x="215" y="133" width="3" height="1"/>
<rect x="230" y="133" width="1" height="1"/>
<rect x="275" y="133" width="1" height="1"/>
<rect x="84" y="134" width="46" height="1"/>
<rect x="142" y="134" width="3" height="1"/>
<rect x="215" y="134" width="3" height="1"/>
<rect x="230" y="134" width="46" height="1"/>
<rect x="142" y="135" width="3" height="1"/>
<rect x="215" y="135" width="3" height="1"/>
<rect x="142" y="136" width="3" height="1"/>
<rect x="215" y="136" width="3" height="1"/>
<rect x="142" y="137" width="3" height="1"/>
<rect x="215" y="137" width="3" height="1"/>
<rect x="142" y="138" width="3" height="1"/>
<rect x="215" y="138" width="3" height="1"/>
<rect x="142" y="139" width="3" height="1"/>
<rect x="215" y="139" width="3" height="1"/>
<rect x="142" y="140" width="3" height="1"/>
<rect x="215" y="140" width="3" height="1"/>
<rect x="142" y="141" width="3" height="1"/>
<rect x="215" y="141" width="3" height="1"/>
<rect x="142" y="142" width="3" height="1"/>
<rect x="215" y="142" width="3" height="1"/>
<rect x="142" y="143" width="3" height="1"/>
<rect x="215" y="143" width="3" height="1"/>
<rect x="142" y="144" width="3" height="1"/>
<rect x="215" y="144" width="3" height="1"/>
<rect x="142" y="145" width="3" height="1"/>
<rect x="215" y="145" width="3" height="1"/>
<rect x="142" y="146" width="3" height="1"/>
<rect x="215" y="146" width="3" height="1"/>
<rect x="142" y="147" width="3" height="1"/>
<rect x="215" y="147" width="3" height="1"/>
<rect x="142" y="148" width="3" height="1"/>
<rect x="215" y="148" width="3" height="1"/>
<rect x="142" y="149" width="3" height="1"/>
<rect x="215" y="149" width="3" height="1"/>
<rect x="142" y="150" width="3" height="1"/>
<rect x="215" y="150" width="3" height="1"/>
<rect x="142" y="151" width="76" height="1"/>
<rect x="142" y="152" width="76" height="1"/>
<rect x="142" y="153" width="76" height="1"/>
</g>
</svg>
