<svg xmlns="http://www.w3.org/2000/svg" viewBox="0 0 360 180" width="360" height="180" shape-rendering="crispEdges">
<rect width="100%" height="100%" fill="#fff"/>
<g fill="#111">
<rect x="38" y="17" width="1" height="1"/>
<rect x="63" y="17" width="6" height="1"/>
<rect x="38" y="18" width="1" height="1"/>
<rect x="63" y="18" width="1" height="1"/>
<rect x="68" y="18" width="1" height="1"/>
<rect x="18" y="19" width="3" height="1"/>
<rect x="22" y="19" width="1" height="1"/>
<rect x="26" y="19" width="3" height="1"/>
<rect x="32" y="19" width="9" height="1"/>
<rect x="43" y="19" width="1" height="1"/>
<rect x="48" y="19" width="1" height="1"/>
<rect x="51" y="19" width="1" height="1"/>
<rect x="53" y="19" width="2" height="1"/>
<rect x="57" y="19" width="3" height="1"/>
<rect x="63" y="19" width="1" height="1"/>
<rect x="68" y="19" width="1" height="1"/>
<rect x="72" y="19" width="4" height="1"/>
<rect x="78" y="19" width="1" height="1"/>
<rect x="80" y="19" width="2" height="1"/>
<rect x="17" y="20" width="1" height="1"/>
<rect x="21" y="20" width="2" height="1"/>
<rect x="25" y="20" width="1" height="1"/>
<rect x="29" y="20" width="1" height="1"/>
<rect x="32" y="20" width="1" height="1"/>
<rect x="38" y="20" width="1" height="1"/>
<rect x="43" y="20" width="1" height="1"/>
<rect x="48" y="20" width="1" height="1"/>
<rect x="51" y="20" width="2" height="1"/>
<rect x="56" y="20" width="1" height="1"/>
<rect x="60" y="20" width="1" height="1"/>
<rect x="63" y="20" width="1" height="1"/>
<rect x="68" y="20" width="1" height="1"/>
<rect x="71" y="20" width="1" height="1"/>
<rect x="75" y="20" width="1" height="1"/>
<rect x="78" y="20" width="2" height="1"/>
<rect x="17" y="21" width="1" height="1"/>
<rect x="22" y="21" width="1" height="1"/>
<rect x="25" y="21" width="1" height="1"/>
<rect x="29" y="21" width="2" height="1"/>
<rect x="32" y="21" width="1" height="1"/>
<rect x="38" y="21" width="1" height="1"/>
<rect x="43" y="21" width="1" height="1"/>
<rect x="48" y="21" width="1" height="1"/>
<rect x="51" y="21" width="1" height="1"/>
<rect x="56" y="21" width="1" height="1"/>
<rect x="60" y="21" width="2" height="1"/>
<rect x="63" y="21" width="5" height="1"/>
<rect x="75" y="21" width="1" height="1"/>
<rect x="78" y="21" width="1" height="1"/>
<rect x="17" y="22" width="1" height="1"/>
<rect x="22" y="22" width="1" height="1"/>
<rect x="25" y="22" width="6" height="1"/>
<rect x="33" y="22" width="3" height="1"/>
<rect x="38" y="22" width="1" height="1"/>
<rect x="43" y="22" width="1" height="1"/>
<rect x="48" y="22" width="1" height="1"/>
<rect x="51" y="22" width="1" height="1"/>
<rect x="56" y="22" width="6" height="1"/>
<rect x="63" y="22" width="1" height="1"/>
<rect x="68" y="22" width="2" height="1"/>
<rect x="71" y="22" width="5" height="1"/>
<rect x="78" y="22" width="1" height="1"/>
<rect x="17" y="23" width="1" height="1"/>
<rect x="22" y="23" width="1" height="1"/>
<rect x="25" y="23" width="1" height="1"/>
<rect x="35" y="23" width="2" height="1"/>
<rect x="38" y="23" width="1" height="1"/>
<rect x="43" y="23" width="1" height="1"/>
<rect x="48" y="23" width="1" height="1"/>
<rect x="51" y="23" width="1" height="1"/>
<rect x="56" y="23" width="1" height="1"/>
<rect x="63" y="23" width="1" height="1"/>
<rect x="68" y="23" width="2" height="1"/>
<rect x="71" y="23" width="1" height="1"/>
<rect x="75" y="23" width="1" height="1"/>
<rect x="78" y="23" width="1" height="1"/>
<rect x="17" y="24" width="1" height="1"/>
<rect x="21" y="24" width="2" height="1"/>
<rect x="25" y="24" width="1" height="1"/>
<rect x="35" y="24" width="2" height="1"/>
<rect x="38" y="24" width="1" height="1"/>
<rect x="43" y="24" width="1" height="1"/>
<rect x="47" y="24" width="2" height="1"/>
<rect x="51" y="24" width="1" height="1"/>
<rect x="56" y="24" width="1" height="1"/>
<rect x="63" y="24" width="1" height="1"/>
<rect x="68" y="24" width="2" height="1"/>
<rect x="71" y="24" width="1" height="1"/>
<rect x="75" y="24" width="1" height="1"/>
<rect x="78" y="24" width="1" height="1"/>
<rect x="18" y="25" width="3" height="1"/>
<rect x="22" y="25" width="1" height="1"/>
<rect x="26" y="25" width="4" height="1"/>
<rect x="32" y="25" width="4" height="1"/>
<rect x="39" y="25" width="2" height="1"/>
<rect x="44" y="25" width="3" height="1"/>
<rect x="48" y="25" width="1" height="1"/>
<rect x="51" y="25" width="1" height="1"/>
<rect x="57" y="25" width="4" height="1"/>
<rect x="63" y="25" width="6" height="1"/>
<rect x="71" y="25" width="5" height="1"/>
<rect x="78" y="25" width="1" height="1"/>
<rect x="22" y="26" width="1" height="1"/>
<rect x="21" y="27" width="2" height="1"/>
<rect x="17" y="28" width="5" height="1"/>
<rect x="16" y="30" width="328" height="1"/>
<rect x="24" y="70" width="312" height="1"/>
<rect x="24" y="71" width="1" height="1"/>
<rect x="127" y="71" width="2" height="1"/>
<rect x="231" y="71" width="2" height="1"/>
<rect x="335" y="71" width="1" height="1"/>
<rect x="24" y="72" width="1" height="1"/>
<rect x="127" y="72" width="2" height="1"/>
<rect x="231" y="72" width="2" height="1"/>
<rect x="335" y="72" width="1" height="1"/>
<rect x="24" y="73" width="1" height="1"/>
<rect x="127" y="73" width="2" height="1"/>
<rect x="231" y="73" width="2" height="1"/>
<rect x="335" y="73" width="1" height="1"/>
<rect x="24" y="74" width="1" height="1"/>
<rect x="127" y="74" width="2" height="1"/>
<rect x="231" y="74" width="2" height="1"/>
<rect x="335" y="74" width="1" height="1"/>
<rect x="24" y="75" width="1" height="1"/>
<rect x="127" y="75" width="2" height="1"/>
<rect x="231" y="75" width="2" height="1"/>
<rect x="335" y="75" width="1" height="1"/>
<rect x="24" y="76" width="1" height="1"/>
<rect x="127" y="76" width="2" height="1"/>
<rect x="231" y="76" width="2" height="1"/>
<rect x="335" y="76" width="1" height="1"/>
<rect x="24" y="77" width="1" height="1"/>
<rect x="127" y="77" width="2" height="1"/>
<rect x="231" y="77" width="2" height="1"/>
<rect x="335" y="77" width="1" height="1"/>
<rect x="24" y="78" width="1" height="1"/>
<rect x="127" y="78" width="2" height="1"/>
<rect x="231" y="78" width="2" height="1"/>
<rect x="335" y="78" width="1" height="1"/>
<rect x="24" y="79" width="1" height="1"/>
<rect x="127" y="79" width="2" height="1"/>
<rect x="231" y="79" width="2" height="1"/>
<rect x="335" y="79" width="1" height="1"/>
<rect x="24" y="80" width="1" height="1"/>
<rect x="127" y="80" width="2" height="1"/>
<rect x="231" y="80" width="2" height="1"/>
<rect x="335" y="80" width="1" height="1"/>
<rect x="24" y="81" width="1" height="1"/>
<rect x="127" y="81" width="2" height="1"/>
<rect x="231" y="81" width="2" height="1"/>
<rect x="335" y="81" width="1" height="1"/>
<rect x="24" y="82" width="1" height="1"/>
<rect x="127" y="82" width="2" height="1"/>
<rect x="231" y="82" width="2" height="1"/>
<rect x="335" y="82" width="1" height="1"/>
<rect x="24" y="83" width="1" height="1"/>
<rect x="127" y="83" width="2" height="1"/>
<rect x="231" y="83" width="2" height="1"/>
<rect x="335" y="83" width="1" height="1"/>
<rect x="24" y="84" width="1" height="1"/>
<rect x="127" y="84" width="2" height="1"/>
<rect x="231" y="84" width="2" height="1"/>
<rect x="335" y="84" width="1" height="1"/>
<rect x="24" y="85" width="1" height="1"/>
<rect x="127" y="85" width="2" height="1"/>
<rect x="231" y="85" width="2" height="1"/>
<rect x="335" y="85" width="1" height="1"/>
<rect x="24" y="86" width="1" height="1"/>
<rect x="127" y="86" width="2" height="1"/>
<rect x="231" y="86" width="2" height="1"/>
<rect x="335" y="86" width="1" height="1"/>
<rect x="24" y="87" width="1" height="1"/>
<rect x="127" y="87" width="2" height="1"/>
<rect x="231" y="87" width="2" height="1"/>
<rect x="335" y="87" width="1" height="1"/>
<rect x="24" y="88" width="1" height="1"/>
<rect x="127" y="88" width="2" height="1"/>
<rect x="231" y="88" width="2" height="1"/>
<rect x="335" y="88" width="1" height="1"/>
<rect x="24" y="89" width="1" height="1"/>
<rect x="84" y="89" width="1" height="1"/>
<rect x="127" y="89" width="2" height="1"/>
<rect x="177" y="89" width="1" height="1"/>
<rect x="231" y="89" width="2" height="1"/>
<rect x="335" y="89" width="1" height="1"/>
<rect x="24" y="90" width="1" height="1"/>
<rect x="63" y="90" width="6" height="1"/>
<rect x="84" y="90" width="1" height="1"/>
<rect x="127" y="90" width="2" height="1"/>
<rect x="164" y="90" width="4" height="1"/>
<rect x="177" y="90" width="1" height="1"/>
<rect x="193" y="90" width="1" height="1"/>
<rect x="231" y="90" width="2" height="1"/>
<rect x="267" y="90" width="2" height="1"/>
<rect x="275" y="90" width="2" height="1"/>
<rect x="335" y="90" width="1" height="1"/>
<rect x="24" y="91" width="1" height="1"/>
<rect x="63" y="91" width="1" height="1"/>
<rect x="68" y="91" width="1" height="1"/>
<rect x="84" y="91" width="1" height="1"/>
<rect x="127" y="91" width="2" height="1"/>
<rect x="163" y="91" width="1" height="1"/>
<rect x="177" y="91" width="1" height="1"/>
<rect x="193" y="91" width="1" height="1"/>
<rect x="231" y="91" width="2" height="1"/>
<rect x="267" y="91" width="3" height="1"/>
<rect x="274" y="91" width="3" height="1"/>
<rect x="335" y="91" width="1" height="1"/>
<rect x="24" y="92" width="1" height="1"/>
<rect x="63" y="92" width="1" height="1"/>
<rect x="68" y="92" width="1" height="1"/>
<rect x="72" y="92" width="4" height="1"/>
<rect x="79" y="92" width="4" height="1"/>
<rect x="84" y="92" width="1" height="1"/>
<rect x="88" y="92" width="2" height="1"/>
<rect x="127" y="92" width="2" height="1"/>
<rect x="163" y="92" width="1" height="1"/>
<rect x="171" y="92" width="3" height="1"/>
<rect x="177" y="92" width="1" height="1"/>
<rect x="181" y="92" width="3" height="1"/>
<rect x="188" y="92" width="8" height="1"/>
<rect x="231" y="92" width="2" height="1"/>
<rect x="267" y="92" width="1" height="1"/>
<rect x="269" y="92" width="1" height="1"/>
<rect x="274" y="92" width="3" height="1"/>
<rect x="280" y="92" width="3" height="1"/>
<rect x="286" y="92" width="1" height="1"/>
<rect x="288" y="92" width="3" height="1"/>
<rect x="294" y="92" width="1" height="1"/>
<rect x="299" y="92" width="1" height="1"/>
<rect x="335" y="92" width="1" height="1"/>
<rect x="24" y="93" width="1" height="1"/>
<rect x="63" y="93" width="1" height="1"/>
<rect x="68" y="93" width="1" height="1"/>
<rect x="71" y="93" width="1" height="1"/>
<rect x="75" y="93" width="1" height="1"/>
<rect x="78" y="93" width="1" height="1"/>
<rect x="84" y="93" width="1" height="1"/>
<rect x="87" y="93" width="1" height="1"/>
<rect x="127" y="93" width="2" height="1"/>
<rect x="163" y="93" width="2" height="1"/>
<rect x="170" y="93" width="1" height="1"/>
<rect x="174" y="93" width="1" height="1"/>
<rect x="177" y="93" width="1" height="1"/>
<rect x="180" y="93" width="1" height="1"/>
<rect x="184" y="93" width="1" height="1"/>
<rect x="187" y="93" width="1" height="1"/>
<rect x="193" y="93" width="1" height="1"/>
<rect x="231" y="93" width="2" height="1"/>
<rect x="267" y="93" width="1" height="1"/>
<rect x="269" y="93" width="1" height="1"/>
<rect x="273" y="93" width="1" height="1"/>
<rect x="275" y="93" width="2" height="1"/>
<rect x="279" y="93" width="1" height="1"/>
<rect x="283" y="93" width="1" height="1"/>
<rect x="286" y="93" width="2" height="1"/>
<rect x="291" y="93" width="1" height="1"/>
<rect x="294" y="93" width="1" height="1"/>
<rect x="299" y="93" width="1" height="1"/>
<rect x="335" y="93" width="1" height="1"/>
<rect x="24" y="94" width="1" height="1"/>
<rect x="63" y="94" width="5" height="1"/>
<rect x="75" y="94" width="1" height="1"/>
<rect x="78" y="94" width="1" height="1"/>
<rect x="84" y="94" width="1" height="1"/>
<rect x="86" y="94" width="1" height="1"/>
<rect x="127" y="94" width="2" height="1"/>
<rect x="164" y="94" width="3" height="1"/>
<rect x="170" y="94" width="1" height="1"/>
<rect x="174" y="94" width="2" height="1"/>
<rect x="177" y="94" width="1" height="1"/>
<rect x="180" y="94" width="1" height="1"/>
<rect x="184" y="94" width="2" height="1"/>
<rect x="187" y="94" width="1" height="1"/>
<rect x="193" y="94" width="1" height="1"/>
<rect x="231" y="94" width="2" height="1"/>
<rect x="267" y="94" width="1" height="1"/>
<rect x="270" y="94" width="1" height="1"/>
<rect x="273" y="94" width="1" height="1"/>
<rect x="275" y="94" width="2" height="1"/>
<rect x="279" y="94" width="1" height="1"/>
<rect x="283" y="94" width="2" height="1"/>
<rect x="286" y="94" width="1" height="1"/>
<rect x="291" y="94" width="1" height="1"/>
<rect x="294" y="94" width="1" height="1"/>
<rect x="299" y="94" width="1" height="1"/>
<rect x="335" y="94" width="1" height="1"/>
<rect x="24" y="95" width="1" height="1"/>
<rect x="63" y="95" width="1" height="1"/>
<rect x="68" y="95" width="2" height="1"/>
<rect x="71" y="95" width="5" height="1"/>
<rect x="78" y="95" width="1" height="1"/>
<rect x="84" y="95" width="3" height="1"/>
<rect x="127" y="95" width="2" height="1"/>
<rect x="167" y="95" width="1" height="1"/>
<rect x="170" y="95" width="6" height="1"/>
<rect x="177" y="95" width="1" height="1"/>
<rect x="180" y="95" width="6" height="1"/>
<rect x="187" y="95" width="1" height="1"/>
<rect x="193" y="95" width="1" height="1"/>
<rect x="231" y="95" width="2" height="1"/>
<rect x="267" y="95" width="1" height="1"/>
<rect x="270" y="95" width="1" height="1"/>
<rect x="273" y="95" width="1" height="1"/>
<rect x="275" y="95" width="2" height="1"/>
<rect x="279" y="95" width="6" height="1"/>
<rect x="286" y="95" width="1" height="1"/>
<rect x="291" y="95" width="1" height="1"/>
<rect x="294" y="95" width="1" height="1"/>
<rect x="299" y="95" width="1" height="1"/>
<rect x="335" y="95" width="1" height="1"/>
<rect x="24" y="96" width="1" height="1"/>
<rect x="63" y="96" width="1" height="1"/>
<rect x="68" y="96" width="2" height="1"/>
<rect x="71" y="96" width="1" height="1"/>
<rect x="75" y="96" width="1" height="1"/>
<rect x="78" y="96" width="1" height="1"/>
<rect x="84" y="96" width="1" height="1"/>
<rect x="87" y="96" width="1" height="1"/>
<rect x="127" y="96" width="2" height="1"/>
<rect x="167" y="96" width="2" height="1"/>
<rect x="170" y="96" width="1" height="1"/>
<rect x="177" y="96" width="1" height="1"/>
<rect x="180" y="96" width="1" height="1"/>
<rect x="187" y="96" width="1" height="1"/>
<rect x="193" y="96" width="1" height="1"/>
<rect x="231" y="96" width="2" height="1"/>
<rect x="267" y="96" width="1" height="1"/>
<rect x="270" y="96" width="1" height="1"/>
<rect x="272" y="96" width="1" height="1"/>
<rect x="275" y="96" width="2" height="1"/>
<rect x="279" y="96" width="1" height="1"/>
<rect x="286" y="96" width="1" height="1"/>
<rect x="291" y="96" width="1" height="1"/>
<rect x="294" y="96" width="1" height="1"/>
<rect x="299" y="96" width="1" height="1"/>
<rect x="335" y="96" width="1" height="1"/>
<rect x="24" y="97" width="1" height="1"/>
<rect x="63" y="97" width="1" height="1"/>
<rect x="68" y="97" width="2" height="1"/>
<rect x="71" y="97" width="1" height="1"/>
<rect x="75" y="97" width="1" height="1"/>
<rect x="78" y="97" width="1" height="1"/>
<rect x="84" y="97" width="1" height="1"/>
<rect x="87" y="97" width="2" height="1"/>
<rect x="127" y="97" width="2" height="1"/>
<rect x="167" y="97" width="1" height="1"/>
<rect x="170" y="97" width="1" height="1"/>
<rect x="177" y="97" width="1" height="1"/>
<rect x="180" y="97" width="1" height="1"/>
<rect x="187" y="97" width="1" height="1"/>
<rect x="193" y="97" width="1" height="1"/>
<rect x="231" y="97" width="2" height="1"/>
<rect x="267" y="97" width="1" height="1"/>
<rect x="271" y="97" width="2" height="1"/>
<rect x="275" y="97" width="2" height="1"/>
<rect x="279" y="97" width="1" height="1"/>
<rect x="286" y="97" width="1" height="1"/>
<rect x="291" y="97" width="1" height="1"/>
<rect x="294" y="97" width="1" height="1"/>
<rect x="298" y="97" width="2" height="1"/>
<rect x="335" y="97" width="1" height="1"/>
<rect x="24" y="98" width="1" height="1"/>
<rect x="63" y="98" width="6" height="1"/>
<rect x="71" y="98" width="5" height="1"/>
<rect x="79" y="98" width="4" height="1"/>
<rect x="84" y="98" width="1" height="1"/>
<rect x="88" y="98" width="2" height="1"/>
<rect x="127" y="98" width="2" height="1"/>
<rect x="163" y="98" width="4" height="1"/>
<rect x="171" y="98" width="4" height="1"/>
<rect x="177" y="98" width="1" height="1"/>
<rect x="181" y="98" width="4" height="1"/>
<rect x="188" y="98" width="4" height="1"/>
<rect x="194" y="98" width="2" height="1"/>
<rect x="231" y="98" width="2" height="1"/>
<rect x="267" y="98" width="1" height="1"/>
<rect x="271" y="98" width="2" height="1"/>
<rect x="275" y="98" width="2" height="1"/>
<rect x="280" y="98" width="4" height="1"/>
<rect x="286" y="98" width="1" height="1"/>
<rect x="291" y="98" width="1" height="1"/>
<rect x="295" y="98" width="3" height="1"/>
<rect x="299" y="98" width="1" height="1"/>
<rect x="335" y="98" width="1" height="1"/>
<rect x="24" y="99" width="1" height="1"/>
<rect x="127" y="99" width="2" height="1"/>
<rect x="231" y="99" width="2" height="1"/>
<rect x="335" y="99" width="1" height="1"/>
<rect x="24" y="100" width="1" height="1"/>
<rect x="127" y="100" width="2" height="1"/>
<rect x="231" y="100" width="2" height="1"/>
<rect x="335" y="100" width="1" height="1"/>
<rect x="24" y="101" width="1" height="1"/>
<rect x="127" y="101" width="2" height="1"/>
<rect x="231" y="101" width="2" height="1"/>
<rect x="335" y="101" width="1" height="1"/>
<rect x="24" y="102" width="1" height="1"/>
<rect x="127" y="102" width="2" height="1"/>
<rect x="231" y="102" width="2" height="1"/>
<rect x="335" y="102" width="1" height="1"/>
<rect x="24" y="103" width="1" height="1"/>
<rect x="127" y="103" width="2" height="1"/>
<rect x="231" y="103" width="2" height="1"/>
<rect x="335" y="103" width="1" height="1"/>
<rect x="24" y="104" width="1" height="1"/>
<rect x="127" y="104" width="2" height="1"/>
<rect x="231" y="104" width="2" height="1"/>
<rect x="335" y="104" width="1" height="1"/>
<rect x="24" y="105" width="1" height="1"/>
<rect x="127" y="105" width="2" height="1"/>
<rect x="231" y="105" width="2" height="1"/>
<rect x="335" y="105" width="1" height="1"/>
<rect x="24" y="106" width="1" height="1"/>
<rect x="127" y="106" width="2" height="1"/>
<rect x="231" y="106" width="2" height="1"/>
<rect x="335" y="106" width="1" height="1"/>
<rect x="24" y="107" width="1" height="1"/>
<rect x="127" y="107" width="2" height="1"/>
<rect x="231" y="107" width="2" height="1"/>
<rect x="335" y="107" width="1" height="1"/>
<rect x="24" y="108" width="1" height="1"/>
<rect x="127" y="108" width="2" height="1"/>
<rect x="231" y="108" width="2" height="1"/>
<rect x="335" y="108" width="1" height="1"/>
<rect x="24" y="109" width="1" height="1"/>
<rect x="127" y="109" width="2" height="1"/>
<rect x="231" y="109" width="2" height="1"/>
<rect x="335" y="109" width="1" height="1"/>
<rect x="24" y="110" width="1" height="1"/>
<rect x="127" y="110" width="2" height="1"/>
<rect x="231" y="110" width="2" height="1"/>
<rect x="335" y="110" width="1" height="1"/>
<rect x="24" y="111" width="1" height="1"/>
<rect x="127" y="111" width="2" height="1"/>
<rect x="231" y="111" width="2" height="1"/>
<rect x="335" y="111" width="1" height="1"/>
<rect x="24" y="112" width="1" height="1"/>
<rect x="127" y="112" width="2" height="1"/>
<rect x="231" y="112" width="2" height="1"/>
<rect x="335" y="112" width="1" height="1"/>
<rect x="24" y="113" width="1" height="1"/>
<rect x="127" y="113" width="2" height="1"/>
<rect x="231" y="113" width="2" height="1"/>
<rect x="335" y="113" width="1" height="1"/>
<rect x="24" y="114" width="1" height="1"/>
<rect x="127" y="114" width="2" height="1"/>
<rect x="231" y="114" width="2" height="1"/>
<rect x="335" y="114" width="1" height="1"/>
<rect x="24" y="115" width="1" height="1"/>
<rect x="127" y="115" width="2" height="1"/>
<rect x="231" y="115" width="2" height="1"/>
<rect x="335" y="115" width="1" height="1"/>
<rect x="24" y="116" width="1" height="1"/>
<rect x="127" y="116" width="2" height="1"/>
<rect x="231" y="116" width="2" height="1"/>
<rect x="335" y="116" width="1" height="1"/>
<rect x="24" y="117" width="312" height="1"/>
</g>
</svg>
