<svg xmlns="http://www.w3.org/2000/svg" viewBox="0 0 360 180" width="360" height="180" shape-rendering="crispEdges">
<rect width="100%" height="100%" fill="#fff"/>
<g fill="#111">
<rect x="100" y="16" width="1" height="1"/>
<rect x="70" y="17" width="5" height="1"/>
<rect x="100" y="17" width="1" height="1"/>
<rect x="70" y="18" width="1" height="1"/>
<rect x="75" y="18" width="1" height="1"/>
<rect x="100" y="18" width="1" height="1"/>
<rect x="17" y="19" width="1" height="1"/>
<rect x="19" y="19" width="3" height="1"/>
<rect x="23" y="19" width="3" height="1"/>
<rect x="30" y="19" width="3" height="1"/>
<rect x="36" y="19" width="5" height="1"/>
<rect x="42" y="19" width="5" height="1"/>
<rect x="49" y="19" width="4" height="1"/>
<rect x="56" y="19" width="3" height="1"/>
<rect x="60" y="19" width="1" height="1"/>
<rect x="64" y="19" width="3" height="1"/>
<rect x="70" y="19" width="1" height="1"/>
<rect x="75" y="19" width="1" height="1"/>
<rect x="79" y="19" width="4" height="1"/>
<rect x="85" y="19" width="1" height="1"/>
<rect x="87" y="19" width="3" height="1"/>
<rect x="94" y="19" width="3" height="1"/>
<rect x="100" y="19" width="1" height="1"/>
<rect x="17" y="20" width="2" height="1"/>
<rect x="21" y="20" width="2" height="1"/>
<rect x="26" y="20" width="1" height="1"/>
<rect x="29" y="20" width="1" height="1"/>
<rect x="33" y="20" width="1" height="1"/>
<rect x="36" y="20" width="1" height="1"/>
<rect x="42" y="20" width="1" height="1"/>
<rect x="48" y="20" width="1" height="1"/>
<rect x="52" y="20" width="1" height="1"/>
<rect x="55" y="20" width="1" height="1"/>
<rect x="59" y="20" width="2" height="1"/>
<rect x="63" y="20" width="1" height="1"/>
<rect x="67" y="20" width="1" height="1"/>
<rect x="70" y="20" width="1" height="1"/>
<rect x="75" y="20" width="1" height="1"/>
<rect x="78" y="20" width="1" height="1"/>
<rect x="82" y="20" width="1" height="1"/>
<rect x="85" y="20" width="2" height="1"/>
<rect x="90" y="20" width="1" height="1"/>
<rect x="93" y="20" width="1" height="1"/>
<rect x="97" y="20" width="1" height="1"/>
<rect x="100" y="20" width="1" height="1"/>
<rect x="17" y="21" width="1" height="1"/>
<rect x="22" y="21" width="1" height="1"/>
<rect x="26" y="21" width="1" height="1"/>
<rect x="29" y="21" width="1" height="1"/>
<rect x="33" y="21" width="2" height="1"/>
<rect x="36" y="21" width="1" height="1"/>
<rect x="42" y="21" width="1" height="1"/>
<rect x="52" y="21" width="1" height="1"/>
<rect x="55" y="21" width="1" height="1"/>
<rect x="60" y="21" width="1" height="1"/>
<rect x="63" y="21" width="1" height="1"/>
<rect x="67" y="21" width="2" height="1"/>
<rect x="70" y="21" width="5" height="1"/>
<rect x="82" y="21" width="1" height="1"/>
<rect x="85" y="21" width="1" height="1"/>
<rect x="90" y="21" width="1" height="1"/>
<rect x="93" y="21" width="1" height="1"/>
<rect x="97" y="21" width="2" height="1"/>
<rect x="100" y="21" width="1" height="1"/>
<rect x="17" y="22" width="1" height="1"/>
<rect x="22" y="22" width="1" height="1"/>
<rect x="26" y="22" width="1" height="1"/>
<rect x="29" y="22" width="6" height="1"/>
<rect x="37" y="22" width="3" height="1"/>
<rect x="43" y="22" width="3" height="1"/>
<rect x="48" y="22" width="5" height="1"/>
<rect x="55" y="22" width="1" height="1"/>
<rect x="60" y="22" width="1" height="1"/>
<rect x="63" y="22" width="6" height="1"/>
<rect x="70" y="22" width="1" height="1"/>
<rect x="78" y="22" width="5" height="1"/>
<rect x="85" y="22" width="1" height="1"/>
<rect x="90" y="22" width="1" height="1"/>
<rect x="93" y="22" width="6" height="1"/>
<rect x="100" y="22" width="1" height="1"/>
<rect x="17" y="23" width="1" height="1"/>
<rect x="22" y="23" width="1" height="1"/>
<rect x="26" y="23" width="1" height="1"/>
<rect x="29" y="23" width="1" height="1"/>
<rect x="39" y="23" width="2" height="1"/>
<rect x="45" y="23" width="2" height="1"/>
<rect x="48" y="23" width="1" height="1"/>
<rect x="52" y="23" width="1" height="1"/>
<rect x="55" y="23" width="1" height="1"/>
<rect x="60" y="23" width="1" height="1"/>
<rect x="63" y="23" width="1" height="1"/>
<rect x="70" y="23" width="1" height="1"/>
<rect x="78" y="23" width="1" height="1"/>
<rect x="82" y="23" width="1" height="1"/>
<rect x="85" y="23" width="1" height="1"/>
<rect x="90" y="23" width="1" height="1"/>
<rect x="93" y="23" width="1" height="1"/>
<rect x="100" y="23" width="1" height="1"/>
<rect x="17" y="24" width="1" height="1"/>
<rect x="22" y="24" width="1" height="1"/>
<rect x="26" y="24" width="1" height="1"/>
<rect x="29" y="24" width="1" height="1"/>
<rect x="39" y="24" width="2" height="1"/>
<rect x="45" y="24" width="2" height="1"/>
<rect x="48" y="24" width="1" height="1"/>
<rect x="52" y="24" width="1" height="1"/>
<rect x="55" y="24" width="1" height="1"/>
<rect x="59" y="24" width="2" height="1"/>
<rect x="63" y="24" width="1" height="1"/>
<rect x="70" y="24" width="1" height="1"/>
<rect x="78" y="24" width="1" height="1"/>
<rect x="82" y="24" width="1" height="1"/>
<rect x="85" y="24" width="1" height="1"/>
<rect x="90" y="24" width="1" height="1"/>
<rect x="93" y="24" width="1" height="1"/>
<rect x="100" y="24" width="1" height="1"/>
<rect x="17" y="25" width="1" height="1"/>
<rect x="22" y="25" width="1" height="1"/>
<rect x="26" y="25" width="1" height="1"/>
<rect x="30" y="25" width="4" height="1"/>
<rect x="36" y="25" width="4" height="1"/>
<rect x="42" y="25" width="4" height="1"/>
<rect x="48" y="25" width="5" height="1"/>
<rect x="56" y="25" width="3" height="1"/>
<rect x="60" y="25" width="1" height="1"/>
<rect x="64" y="25" width="4" height="1"/>
<rect x="70" y="25" width="1" height="1"/>
<rect x="78" y="25" width="5" height="1"/>
<rect x="85" y="25" width="1" height="1"/>
<rect x="90" y="25" width="1" height="1"/>
<rect x="94" y="25" width="4" height="1"/>
<rect x="100" y="25" width="1" height="1"/>
<rect x="60" y="26" width="1" height="1"/>
<rect x="59" y="27" width="2" height="1"/>
<rect x="55" y="28" width="5" height="1"/>
<rect x="16" y="30" width="328" height="1"/>
<rect x="70" y="47" width="220" height="1"/>
<rect x="70" y="48" width="220" height="1"/>
<rect x="70" y="49" width="2" height="1"/>
<rect x="288" y="49" width="2" height="1"/>
<rect x="70" y="50" width="2" height="1"/>
<rect x="288" y="50" width="2" height="1"/>
<rect x="70" y="51" width="2" height="1"/>
<rect x="288" y="51" width="2" height="1"/>
<rect x="70" y="52" width="2" height="1"/>
<rect x="288" y="52" width="2" height="1"/>
<rect x="70" y="53" width="2" height="1"/>
<rect x="288" y="53" width="2" height="1"/>
<rect x="70" y="54" width="2" height="1"/>
<rect x="288" y="54" width="2" height="1"/>
<rect x="70" y="55" width="2" height="1"/>
<rect x="288" y="55" width="2" height="1"/>
<rect x="70" y="56" width="2" height="1"/>
<rect x="288" y="56" width="2" height="1"/>
<rect x="70" y="57" width="2" height="1"/>
<rect x="288" y="57" width="2" height="1"/>
<rect x="70" y="58" width="2" height="1"/>
<rect x="288" y="58" width="2" height="1"/>
<rect x="70" y="59" width="2" height="1"/>
<rect x="288" y="59" width="2" height="1"/>
<rect x="70" y="60" width="2" height="1"/>
<rect x="288" y="60" width="2" height="1"/>
<rect x="70" y="61" width="2" height="1"/>
<rect x="288" y="61" width="2" height="1"/>
<rect x="70" y="62" width="2" height="1"/>
<rect x="288" y="62" width="2" height="1"/>
<rect x="70" y="63" width="2" height="1"/>
<rect x="288" y="63" width="2" height="1"/>
<rect x="70" y="64" width="2" height="1"/>
<rect x="288" y="64" width="2" height="1"/>
<rect x="70" y="65" width="2" height="1"/>
<rect x="288" y="65" width="2" height="1"/>
<rect x="70" y="66" width="2" height="1"/>
<rect x="288" y="66" width="2" height="1"/>
<rect x="70" y="67" width="2" height="1"/>
<rect x="173" y="67" width="1" height="1"/>
<rect x="197" y="67" width="1" height="1"/>
<rect x="288" y="67" width="2" height="1"/>
<rect x="70" y="68" width="2" height="1"/>
<rect x="152" y="68" width="2" height="1"/>
<rect x="159" y="68" width="1" height="1"/>
<rect x="173" y="68" width="1" height="1"/>
<rect x="197" y="68" width="1" height="1"/>
<rect x="288" y="68" width="2" height="1"/>
<rect x="70" y="69" width="2" height="1"/>
<rect x="152" y="69" width="3" height="1"/>
<rect x="159" y="69" width="1" height="1"/>
<rect x="173" y="69" width="1" height="1"/>
<rect x="197" y="69" width="1" height="1"/>
<rect x="288" y="69" width="2" height="1"/>
<rect x="70" y="70" width="2" height="1"/>
<rect x="152" y="70" width="1" height="1"/>
<rect x="154" y="70" width="1" height="1"/>
<rect x="159" y="70" width="1" height="1"/>
<rect x="163" y="70" width="4" height="1"/>
<rect x="173" y="70" width="1" height="1"/>
<rect x="175" y="70" width="3" height="1"/>
<rect x="182" y="70" width="4" height="1"/>
<rect x="190" y="70" width="4" height="1"/>
<rect x="197" y="70" width="1" height="1"/>
<rect x="201" y="70" width="2" height="1"/>
<rect x="204" y="70" width="5" height="1"/>
<rect x="288" y="70" width="2" height="1"/>
<rect x="70" y="71" width="2" height="1"/>
<rect x="152" y="71" width="1" height="1"/>
<rect x="155" y="71" width="1" height="1"/>
<rect x="159" y="71" width="1" height="1"/>
<rect x="162" y="71" width="1" height="1"/>
<rect x="166" y="71" width="2" height="1"/>
<rect x="173" y="71" width="2" height="1"/>
<rect x="178" y="71" width="1" height="1"/>
<rect x="181" y="71" width="1" height="1"/>
<rect x="185" y="71" width="2" height="1"/>
<rect x="189" y="71" width="1" height="1"/>
<rect x="193" y="71" width="2" height="1"/>
<rect x="197" y="71" width="1" height="1"/>
<rect x="200" y="71" width="1" height="1"/>
<rect x="204" y="71" width="1" height="1"/>
<rect x="288" y="71" width="2" height="1"/>
<rect x="70" y="72" width="2" height="1"/>
<rect x="152" y="72" width="1" height="1"/>
<rect x="155" y="72" width="2" height="1"/>
<rect x="159" y="72" width="1" height="1"/>
<rect x="162" y="72" width="1" height="1"/>
<rect x="167" y="72" width="1" height="1"/>
<rect x="173" y="72" width="1" height="1"/>
<rect x="178" y="72" width="1" height="1"/>
<rect x="181" y="72" width="1" height="1"/>
<rect x="186" y="72" width="1" height="1"/>
<rect x="189" y="72" width="1" height="1"/>
<rect x="194" y="72" width="1" height="1"/>
<rect x="197" y="72" width="1" height="1"/>
<rect x="199" y="72" width="1" height="1"/>
<rect x="204" y="72" width="1" height="1"/>
<rect x="288" y="72" width="2" height="1"/>
<rect x="70" y="73" width="2" height="1"/>
<rect x="152" y="73" width="1" height="1"/>
<rect x="156" y="73" width="1" height="1"/>
<rect x="159" y="73" width="1" height="1"/>
<rect x="162" y="73" width="1" height="1"/>
<rect x="167" y="73" width="1" height="1"/>
<rect x="173" y="73" width="1" height="1"/>
<rect x="178" y="73" width="1" height="1"/>
<rect x="181" y="73" width="1" height="1"/>
<rect x="186" y="73" width="1" height="1"/>
<rect x="189" y="73" width="1" height="1"/>
<rect x="194" y="73" width="1" height="1"/>
<rect x="197" y="73" width="3" height="1"/>
<rect x="205" y="73" width="3" height="1"/>
<rect x="288" y="73" width="2" height="1"/>
<rect x="70" y="74" width="2" height="1"/>
<rect x="152" y="74" width="1" height="1"/>
<rect x="157" y="74" width="1" height="1"/>
<rect x="159" y="74" width="1" height="1"/>
<rect x="162" y="74" width="1" height="1"/>
<rect x="167" y="74" width="1" height="1"/>
<rect x="173" y="74" width="1" height="1"/>
<rect x="178" y="74" width="1" height="1"/>
<rect x="181" y="74" width="1" height="1"/>
<rect x="186" y="74" width="1" height="1"/>
<rect x="189" y="74" width="1" height="1"/>
<rect x="194" y="74" width="1" height="1"/>
<rect x="197" y="74" width="1" height="1"/>
<rect x="200" y="74" width="1" height="1"/>
<rect x="207" y="74" width="2" height="1"/>
<rect x="288" y="74" width="2" height="1"/>
<rect x="70" y="75" width="2" height="1"/>
<rect x="152" y="75" width="1" height="1"/>
<rect x="157" y="75" width="1" height="1"/>
<rect x="159" y="75" width="1" height="1"/>
<rect x="162" y="75" width="1" height="1"/>
<rect x="166" y="75" width="2" height="1"/>
<rect x="173" y="75" width="2" height="1"/>
<rect x="178" y="75" width="1" height="1"/>
<rect x="181" y="75" width="1" height="1"/>
<rect x="185" y="75" width="2" height="1"/>
<rect x="189" y="75" width="1" height="1"/>
<rect x="193" y="75" width="2" height="1"/>
<rect x="197" y="75" width="1" height="1"/>
<rect x="200" y="75" width="2" height="1"/>
<rect x="207" y="75" width="2" height="1"/>
<rect x="288" y="75" width="2" height="1"/>
<rect x="70" y="76" width="2" height="1"/>
<rect x="152" y="76" width="1" height="1"/>
<rect x="158" y="76" width="2" height="1"/>
<rect x="163" y="76" width="4" height="1"/>
<rect x="173" y="76" width="1" height="1"/>
<rect x="175" y="76" width="3" height="1"/>
<rect x="182" y="76" width="4" height="1"/>
<rect x="190" y="76" width="4" height="1"/>
<rect x="197" y="76" width="1" height="1"/>
<rect x="201" y="76" width="2" height="1"/>
<rect x="204" y="76" width="4" height="1"/>
<rect x="288" y="76" width="2" height="1"/>
<rect x="70" y="77" width="2" height="1"/>
<rect x="288" y="77" width="2" height="1"/>
<rect x="70" y="78" width="2" height="1"/>
<rect x="288" y="78" width="2" height="1"/>
<rect x="70" y="79" width="2" height="1"/>
<rect x="288" y="79" width="2" height="1"/>
<rect x="70" y="80" width="2" height="1"/>
<rect x="288" y="80" width="2" height="1"/>
<rect x="70" y="81" width="2" height="1"/>
<rect x="288" y="81" width="2" height="1"/>
<rect x="70" y="82" width="2" height="1"/>
<rect x="288" y="82" width="2" height="1"/>
<rect x="70" y="83" width="2" height="1"/>
<rect x="288" y="83" width="2" height="1"/>
<rect x="70" y="84" width="2" height="1"/>
<rect x="288" y="84" width="2" height="1"/>
<rect x="70" y="85" width="2" height="1"/>
<rect x="288" y="85" width="2" height="1"/>
<rect x="70" y="86" width="2" height="1"/>
<rect x="288" y="86" width="2" height="1"/>
<rect x="70" y="87" width="2" height="1"/>
<rect x="288" y="87" width="2" height="1"/>
<rect x="70" y="88" width="2" height="1"/>
<rect x="288" y="88" width="2" height="1"/>
<rect x="70" y="89" width="2" height="1"/>
<rect x="288" y="89" width="2" height="1"/>
<rect x="70" y="90" width="2" height="1"/>
<rect x="288" y="90" width="2" height="1"/>
<rect x="70" y="91" width="2" height="1"/>
<rect x="288" y="91" width="2" height="1"/>
<rect x="70" y="92" width="2" height="1"/>
<rect x="288" y="92" width="2" height="1"/>
<rect x="70" y="93" width="2" height="1"/>
<rect x="288" y="93" width="2" height="1"/>
<rect x="70" y="94" width="2" height="1"/>
<rect x="288" y="94" width="2" height="1"/>
<rect x="70" y="95" width="2" height="1"/>
<rect x="288" y="95" width="2" height="1"/>
<rect x="70" y="96" width="2" height="1"/>
<rect x="288" y="96" width="2" height="1"/>
<rect x="70" y="97" width="2" height="1"/>
<rect x="288" y="97" width="2" height="1"/>
<rect x="70" y="98" width="2" height="1"/>
<rect x="288" y="98" width="2" height="1"/>
<rect x="70" y="99" width="2" height="1"/>
<rect x="288" y="99" width="2" height="1"/>
<rect x="70" y="100" width="2" height="1"/>
<rect x="288" y="100" width="2" height="1"/>
<rect x="70" y="101" width="2" height="1"/>
<rect x="90" y="101" width="180" height="1"/>
<rect x="288" y="101" width="2" height="1"/>
<rect x="70" y="102" width="2" height="1"/>
<rect x="90" y="102" width="1" height="1"/>
<rect x="269" y="102" width="1" height="1"/>
<rect x="288" y="102" width="2" height="1"/>
<rect x="70" y="103" width="2" height="1"/>
<rect x="90" y="103" width="1" height="1"/>
<rect x="269" y="103" width="1" height="1"/>
<rect x="288" y="103" width="2" height="1"/>
<rect x="70" y="104" width="2" height="1"/>
<rect x="90" y="104" width="1" height="1"/>
<rect x="269" y="104" width="1" height="1"/>
<rect x="288" y="104" width="2" height="1"/>
<rect x="70" y="105" width="2" height="1"/>
<rect x="90" y="105" width="1" height="1"/>
<rect x="269" y="105" width="1" height="1"/>
<rect x="288" y="105" width="2" height="1"/>
<rect x="70" y="106" width="2" height="1"/>
<rect x="90" y="106" width="1" height="1"/>
<rect x="269" y="106" width="1" height="1"/>
<rect x="288" y="106" width="2" height="1"/>
<rect x="70" y="107" width="2" height="1"/>
<rect x="90" y="107" width="1" height="1"/>
<rect x="269" y="107" width="1" height="1"/>
<rect x="288" y="107" width="2" height="1"/>
<rect x="70" y="108" width="2" height="1"/>
<rect x="90" y="108" width="1" height="1"/>
<rect x="269" y="108" width="1" height="1"/>
<rect x="288" y="108" width="2" height="1"/>
<rect x="70" y="109" width="2" height="1"/>
<rect x="90" y="109" width="1" height="1"/>
<rect x="269" y="109" width="1" height="1"/>
<rect x="288" y="109" width="2" height="1"/>
<rect x="70" y="110" width="2" height="1"/>
<rect x="90" y="110" width="1" height="1"/>
<rect x="269" y="110" width="1" height="1"/>
<rect x="288" y="110" width="2" height="1"/>
<rect x="70" y="111" width="2" height="1"/>
<rect x="90" y="111" width="1" height="1"/>
<rect x="269" y="111" width="1" height="1"/>
<rect x="288" y="111" width="2" height="1"/>
<rect x="70" y="112" width="2" height="1"/>
<rect x="90" y="112" width="1" height="1"/>
<rect x="269" y="112" width="1" height="1"/>
<rect x="288" y="112" width="2" height="1"/>
<rect x="70" y="113" width="2" height="1"/>
<rect x="90" y="113" width="1" height="1"/>
<rect x="269" y="113" width="1" height="1"/>
<rect x="288" y="113" width="2" height="1"/>
<rect x="70" y="114" width="2" height="1"/>
<rect x="90" y="114" width="1" height="1"/>
<rect x="269" y="114" width="1" height="1"/>
<rect x="288" y="114" width="2" height="1"/>
<rect x="70" y="115" width="2" height="1"/>
<rect x="90" y="115" width="1" height="1"/>
<rect x="269" y="115" width="1" height="1"/>
<rect x="288" y="115" width="2" height="1"/>
<rect x="70" y="116" width="2" height="1"/>
<rect x="90" y="116" width="1" height="1"/>
<rect x="269" y="116" width="1" height="1"/>
<rect x="288" y="116" width="2" height="1"/>
<rect x="70" y="117" width="2" height="1"/>
<rect x="90" y="117" width="1" height="1"/>
<rect x="165" y="117" width="5" height="1"/>
<rect x="180" y="117" width="1" height="1"/>
<rect x="269" y="117" width="1" height="1"/>
<rect x="288" y="117" width="2" height="1"/>
<rect x="70" y="118" width="2" height="1"/>
<rect x="90" y="118" width="1" height="1"/>
<rect x="165" y="118" width="1" height="1"/>
<rect x="170" y="118" width="1" height="1"/>
<rect x="180" y="118" width="1" height="1"/>
<rect x="269" y="118" width="1" height="1"/>
<rect x="288" y="118" width="2" height="1"/>
<rect x="70" y="119" width="2" height="1"/>
<rect x="90" y="119" width="1" height="1"/>
<rect x="165" y="119" width="1" height="1"/>
<rect x="170" y="119" width="1" height="1"/>
<rect x="174" y="119" width="3" height="1"/>
<rect x="179" y="119" width="4" height="1"/>
<rect x="185" y="119" width="1" height="1"/>
<rect x="187" y="119" width="3" height="1"/>
<rect x="194" y="119" width="2" height="1"/>
<rect x="269" y="119" width="1" height="1"/>
<rect x="288" y="119" width="2" height="1"/>
<rect x="70" y="120" width="2" height="1"/>
<rect x="90" y="120" width="1" height="1"/>
<rect x="165" y="120" width="1" height="1"/>
<rect x="170" y="120" width="1" height="1"/>
<rect x="173" y="120" width="1" height="1"/>
<rect x="177" y="120" width="1" height="1"/>
<rect x="180" y="120" width="1" height="1"/>
<rect x="185" y="120" width="2" height="1"/>
<rect x="190" y="120" width="1" height="1"/>
<rect x="194" y="120" width="1" height="1"/>
<rect x="269" y="120" width="1" height="1"/>
<rect x="288" y="120" width="2" height="1"/>
<rect x="70" y="121" width="2" height="1"/>
<rect x="90" y="121" width="1" height="1"/>
<rect x="165" y="121" width="5" height="1"/>
<rect x="173" y="121" width="1" height="1"/>
<rect x="177" y="121" width="2" height="1"/>
<rect x="180" y="121" width="1" height="1"/>
<rect x="185" y="121" width="1" height="1"/>
<rect x="190" y="121" width="1" height="1"/>
<rect x="193" y="121" width="2" height="1"/>
<rect x="269" y="121" width="1" height="1"/>
<rect x="288" y="121" width="2" height="1"/>
<rect x="70" y="122" width="2" height="1"/>
<rect x="90" y="122" width="1" height="1"/>
<rect x="165" y="122" width="1" height="1"/>
<rect x="169" y="122" width="1" height="1"/>
<rect x="173" y="122" width="6" height="1"/>
<rect x="180" y="122" width="1" height="1"/>
<rect x="185" y="122" width="1" height="1"/>
<rect x="190" y="122" width="2" height="1"/>
<rect x="193" y="122" width="1" height="1"/>
<rect x="269" y="122" width="1" height="1"/>
<rect x="288" y="122" width="2" height="1"/>
<rect x="70" y="123" width="2" height="1"/>
<rect x="90" y="123" width="1" height="1"/>
<rect x="165" y="123" width="1" height="1"/>
<rect x="169" y="123" width="1" height="1"/>
<rect x="173" y="123" width="1" height="1"/>
<rect x="180" y="123" width="1" height="1"/>
<rect x="185" y="123" width="1" height="1"/>
<rect x="191" y="123" width="1" height="1"/>
<rect x="193" y="123" width="1" height="1"/>
<rect x="269" y="123" width="1" height="1"/>
<rect x="288" y="123" width="2" height="1"/>
<rect x="70" y="124" width="2" height="1"/>
<rect x="90" y="124" width="1" height="1"/>
<rect x="165" y="124" width="1" height="1"/>
<rect x="170" y="124" width="1" height="1"/>
<rect x="173" y="124" width="1" height="1"/>
<rect x="180" y="124" width="1" height="1"/>
<rect x="185" y="124" width="1" height="1"/>
<rect x="191" y="124" width="3" height="1"/>
<rect x="269" y="124" width="1" height="1"/>
<rect x="288" y="124" width="2" height="1"/>
<rect x="70" y="125" width="2" height="1"/>
<rect x="90" y="125" width="1" height="1"/>
<rect x="165" y="125" width="1" height="1"/>
<rect x="170" y="125" width="2" height="1"/>
<rect x="174" y="125" width="4" height="1"/>
<rect x="181" y="125" width="2" height="1"/>
<rect x="185" y="125" width="1" height="1"/>
<rect x="192" y="125" width="1" height="1"/>
<rect x="269" y="125" width="1" height="1"/>
<rect x="288" y="125" width="2" height="1"/>
<rect x="70" y="126" width="2" height="1"/>
<rect x="90" y="126" width="1" height="1"/>
<rect x="192" y="126" width="1" height="1"/>
<rect x="269" y="126" width="1" height="1"/>
<rect x="288" y="126" width="2" height="1"/>
<rect x="70" y="127" width="2" height="1"/>
<rect x="90" y="127" width="1" height="1"/>
<rect x="191" y="127" width="1" height="1"/>
<rect x="269" y="127" width="1" height="1"/>
<rect x="288" y="127" width="2" height="1"/>
<rect x="70" y="128" width="2" height="1"/>
<rect x="90" y="128" width="1" height="1"/>
<rect x="189" y="128" width="3" height="1"/>
<rect x="269" y="128" width="1" height="1"/>
<rect x="288" y="128" width="2" height="1"/>
<rect x="70" y="129" width="2" height="1"/>
<rect x="90" y="129" width="1" height="1"/>
<rect x="269" y="129" width="1" height="1"/>
<rect x="288" y="129" width="2" height="1"/>
<rect x="70" y="130" width="2" height="1"/>
<rect x="90" y="130" width="1" height="1"/>
<rect x="269" y="130" width="1" height="1"/>
<rect x="288" y="130" width="2" height="1"/>
<rect x="70" y="131" width="2" height="1"/>
<rect x="90" y="131" width="1" height="1"/>
<rect x="269" y="131" width="1" height="1"/>
<rect x="288" y="131" width="2" height="1"/>
<rect x="70" y="132" width="2" height="1"/>
<rect x="90" y="132" width="1" height="1"/>
<rect x="269" y="132" width="1" height="1"/>
<rect x="288" y="132" width="2" height="1"/>
<rect x="70" y="133" width="2" height="1"/>
<rect x="90" y="133" width="1" height="1"/>
<rect x="269" y="133" width="1" height="1"/>
<rect x="288" y="133" width="2" height="1"/>
<rect x="70" y="134" width="2" height="1"/>
<rect x="90" y="134" width="1" height="1"/>
<rect x="269" y="134" width="1" height="1"/>
<rect x="288" y="134" width="2" height="1"/>
<rect x="70" y="135" width="2" height="1"/>
<rect x="90" y="135" width="1" height="1"/>
<rect x="269" y="135" width="1" height="1"/>
<rect x="288" y="135" width="2" height="1"/>
<rect x="70" y="136" width="2" height="1"/>
<rect x="90" y="136" width="1" height="1"/>
<rect x="269" y="136" width="1" height="1"/>
<rect x="288" y="136" width="2" height="1"/>
<rect x="70" y="137" width="2" height="1"/>
<rect x="90" y="137" width="1" height="1"/>
<rect x="269" y="137" width="1" height="1"/>
<rect x="288" y="137" width="2" height="1"/>
<rect x="70" y="138" width="2" height="1"/>
<rect x="90" y="138" width="1" height="1"/>
<rect x="269" y="138" width="1" height="1"/>
<rect x="288" y="138" width="2" height="1"/>
<rect x="70" y="139" width="2" height="1"/>
<rect x="90" y="139" width="1" height="1"/>
<rect x="269" y="139" width="1" height="1"/>
<rect x="288" y="139" width="2" height="1"/>
<rect x="70" y="140" width="2" height="1"/>
<rect x="90" y="140" width="180" height="1"/>
<rect x="288" y="140" width="2" height="1"/>
<rect x="70" y="141" width="2" height="1"/>
<rect x="288" y="141" width="2" height="1"/>
<rect x="70" y="142" width="2" height="1"/>
<rect x="288" y="142" width="2" height="1"/>
<rect x="70" y="143" width="2" height="1"/>
<rect x="288" y="143" width="2" height="1"/>
<rect x="70" y="144" width="2" height="1"/>
<rect x="288" y="144" width="2" height="1"/>
<rect x="70" y="145" width="2" height="1"/>
<rect x="288" y="145" width="2" height="1"/>
<rect x="70" y="146" width="2" height="1"/>
<rect x="288" y="146" width="2" height="1"/>
<rect x="70" y="147" width="2" height="1"/>
<rect x="288" y="147" width="2" height="1"/>
<rect x="70" y="148" width="2" height="1"/>
<rect x="288" y="148" width="2" height="1"/>
<rect x="70" y="149" width="2" height="1"/>
<rect x="288" y="149" width="2" height="1"/>
<rect x="70" y="150" width="2" height="1"/>
<rect x="288" y="150" width="2" height="1"/>
<rect x="70" y="151" width="2" height="1"/>
<rect x="288" y="151" width="2" height="1"/>
<rect x="70" y="152" width="2" height="1"/>
<rect x="288" y="152" width="2" height="1"/>
<rect x="70" y="153" width="2" height="1"/>
<rect x="288" y="153" width="2" height="1"/>
<rect x="70" y="154" width="2" height="1"/>
<rect x="288" y="154" width="2" height="1"/>
<rect x="70" y="155" width="220" height="1"/>
<rect x="70" y="156" width="220" height="1"/>
</g>
</svg>
