<svg xmlns="http://www.w3.org/2000/svg" viewBox="0 0 360 180" width="360" height="180" shape-rendering="crispEdges">
<rect width="100%" height="100%" fill="#fff"/>
<g fill="#111">
<rect x="38" y="16" width="1" height="1"/>
<rect x="66" y="16" width="1" height="1"/>
<rect x="76" y="16" width="1" height="1"/>
<rect x="33" y="17" width="1" height="1"/>
<rect x="57" y="17" width="6" height="1"/>
<rect x="76" y="17" width="1" height="1"/>
<rect x="33" y="18" width="1" height="1"/>
<rect x="57" y="18" width="1" height="1"/>
<rect x="62" y="18" width="2" height="1"/>
<rect x="76" y="18" width="1" height="1"/>
<rect x="18" y="19" width="4" height="1"/>
<rect x="25" y="19" width="1" height="1"/>
<rect x="27" y="19" width="3" height="1"/>
<rect x="32" y="19" width="4" height="1"/>
<rect x="38" y="19" width="1" height="1"/>
<rect x="42" y="19" width="4" height="1"/>
<rect x="49" y="19" width="1" height="1"/>
<rect x="51" y="19" width="3" height="1"/>
<rect x="57" y="19" width="1" height="1"/>
<rect x="63" y="19" width="1" height="1"/>
<rect x="66" y="19" width="1" height="1"/>
<rect x="70" y="19" width="4" height="1"/>
<rect x="76" y="19" width="1" height="1"/>
<rect x="80" y="19" width="4" height="1"/>
<rect x="88" y="19" width="3" height="1"/>
<rect x="92" y="19" width="1" height="1"/>
<rect x="17" y="20" width="1" height="1"/>
<rect x="21" y="20" width="2" height="1"/>
<rect x="25" y="20" width="2" height="1"/>
<rect x="30" y="20" width="1" height="1"/>
<rect x="33" y="20" width="1" height="1"/>
<rect x="38" y="20" width="1" height="1"/>
<rect x="41" y="20" width="1" height="1"/>
<rect x="45" y="20" width="2" height="1"/>
<rect x="49" y="20" width="2" height="1"/>
<rect x="54" y="20" width="1" height="1"/>
<rect x="57" y="20" width="1" height="1"/>
<rect x="63" y="20" width="2" height="1"/>
<rect x="66" y="20" width="1" height="1"/>
<rect x="69" y="20" width="1" height="1"/>
<rect x="73" y="20" width="1" height="1"/>
<rect x="76" y="20" width="1" height="1"/>
<rect x="79" y="20" width="1" height="1"/>
<rect x="83" y="20" width="2" height="1"/>
<rect x="87" y="20" width="1" height="1"/>
<rect x="91" y="20" width="2" height="1"/>
<rect x="17" y="21" width="1" height="1"/>
<rect x="22" y="21" width="1" height="1"/>
<rect x="25" y="21" width="1" height="1"/>
<rect x="30" y="21" width="1" height="1"/>
<rect x="33" y="21" width="1" height="1"/>
<rect x="38" y="21" width="1" height="1"/>
<rect x="41" y="21" width="1" height="1"/>
<rect x="46" y="21" width="1" height="1"/>
<rect x="49" y="21" width="1" height="1"/>
<rect x="54" y="21" width="1" height="1"/>
<rect x="57" y="21" width="1" height="1"/>
<rect x="63" y="21" width="2" height="1"/>
<rect x="66" y="21" width="1" height="1"/>
<rect x="73" y="21" width="1" height="1"/>
<rect x="76" y="21" width="1" height="1"/>
<rect x="79" y="21" width="1" height="1"/>
<rect x="84" y="21" width="1" height="1"/>
<rect x="87" y="21" width="1" height="1"/>
<rect x="92" y="21" width="1" height="1"/>
<rect x="17" y="22" width="1" height="1"/>
<rect x="22" y="22" width="1" height="1"/>
<rect x="25" y="22" width="1" height="1"/>
<rect x="30" y="22" width="1" height="1"/>
<rect x="33" y="22" width="1" height="1"/>
<rect x="38" y="22" width="1" height="1"/>
<rect x="41" y="22" width="1" height="1"/>
<rect x="46" y="22" width="1" height="1"/>
<rect x="49" y="22" width="1" height="1"/>
<rect x="54" y="22" width="1" height="1"/>
<rect x="57" y="22" width="1" height="1"/>
<rect x="63" y="22" width="2" height="1"/>
<rect x="66" y="22" width="1" height="1"/>
<rect x="69" y="22" width="5" height="1"/>
<rect x="76" y="22" width="1" height="1"/>
<rect x="79" y="22" width="1" height="1"/>
<rect x="84" y="22" width="1" height="1"/>
<rect x="87" y="22" width="1" height="1"/>
<rect x="92" y="22" width="1" height="1"/>
<rect x="17" y="23" width="1" height="1"/>
<rect x="22" y="23" width="1" height="1"/>
<rect x="25" y="23" width="1" height="1"/>
<rect x="30" y="23" width="1" height="1"/>
<rect x="33" y="23" width="1" height="1"/>
<rect x="38" y="23" width="1" height="1"/>
<rect x="41" y="23" width="1" height="1"/>
<rect x="46" y="23" width="1" height="1"/>
<rect x="49" y="23" width="1" height="1"/>
<rect x="54" y="23" width="1" height="1"/>
<rect x="57" y="23" width="1" height="1"/>
<rect x="63" y="23" width="1" height="1"/>
<rect x="66" y="23" width="1" height="1"/>
<rect x="69" y="23" width="1" height="1"/>
<rect x="73" y="23" width="1" height="1"/>
<rect x="76" y="23" width="1" height="1"/>
<rect x="79" y="23" width="1" height="1"/>
<rect x="84" y="23" width="1" height="1"/>
<rect x="87" y="23" width="1" height="1"/>
<rect x="92" y="23" width="1" height="1"/>
<rect x="17" y="24" width="1" height="1"/>
<rect x="21" y="24" width="2" height="1"/>
<rect x="25" y="24" width="2" height="1"/>
<rect x="29" y="24" width="2" height="1"/>
<rect x="33" y="24" width="1" height="1"/>
<rect x="38" y="24" width="1" height="1"/>
<rect x="41" y="24" width="1" height="1"/>
<rect x="45" y="24" width="2" height="1"/>
<rect x="49" y="24" width="1" height="1"/>
<rect x="54" y="24" width="1" height="1"/>
<rect x="57" y="24" width="1" height="1"/>
<rect x="62" y="24" width="2" height="1"/>
<rect x="66" y="24" width="1" height="1"/>
<rect x="69" y="24" width="1" height="1"/>
<rect x="73" y="24" width="1" height="1"/>
<rect x="76" y="24" width="1" height="1"/>
<rect x="79" y="24" width="1" height="1"/>
<rect x="83" y="24" width="2" height="1"/>
<rect x="87" y="24" width="1" height="1"/>
<rect x="91" y="24" width="2" height="1"/>
<rect x="18" y="25" width="4" height="1"/>
<rect x="25" y="25" width="1" height="1"/>
<rect x="27" y="25" width="3" height="1"/>
<rect x="34" y="25" width="2" height="1"/>
<rect x="38" y="25" width="1" height="1"/>
<rect x="42" y="25" width="4" height="1"/>
<rect x="49" y="25" width="1" height="1"/>
<rect x="54" y="25" width="1" height="1"/>
<rect x="57" y="25" width="5" height="1"/>
<rect x="66" y="25" width="1" height="1"/>
<rect x="69" y="25" width="5" height="1"/>
<rect x="76" y="25" width="1" height="1"/>
<rect x="80" y="25" width="4" height="1"/>
<rect x="88" y="25" width="3" height="1"/>
<rect x="92" y="25" width="1" height="1"/>
<rect x="25" y="26" width="1" height="1"/>
<rect x="92" y="26" width="1" height="1"/>
<rect x="25" y="27" width="1" height="1"/>
<rect x="91" y="27" width="2" height="1"/>
<rect x="25" y="28" width="1" height="1"/>
<rect x="87" y="28" width="5" height="1"/>
<rect x="16" y="30" width="328" height="1"/>
<rect x="65" y="43" width="230" height="1"/>
<rect x="65" y="44" width="230" height="1"/>
<rect x="65" y="45" width="2" height="1"/>
<rect x="293" y="45" width="2" height="1"/>
<rect x="65" y="46" width="2" height="1"/>
<rect x="293" y="46" width="2" height="1"/>
<rect x="65" y="47" width="2" height="1"/>
<rect x="293" y="47" width="2" height="1"/>
<rect x="65" y="48" width="2" height="1"/>
<rect x="293" y="48" width="2" height="1"/>
<rect x="65" y="49" width="2" height="1"/>
<rect x="293" y="49" width="2" height="1"/>
<rect x="65" y="50" width="2" height="1"/>
<rect x="293" y="50" width="2" height="1"/>
<rect x="65" y="51" width="2" height="1"/>
<rect x="293" y="51" width="2" height="1"/>
<rect x="65" y="52" width="2" height="1"/>
<rect x="293" y="52" width="2" height="1"/>
<rect x="65" y="53" width="2" height="1"/>
<rect x="293" y="53" width="2" height="1"/>
<rect x="65" y="54" width="2" height="1"/>
<rect x="293" y="54" width="2" height="1"/>
<rect x="65" y="55" width="2" height="1"/>
<rect x="293" y="55" width="2" height="1"/>
<rect x="65" y="56" width="2" height="1"/>
<rect x="293" y="56" width="2" height="1"/>
<rect x="65" y="57" width="2" height="1"/>
<rect x="293" y="57" width="2" height="1"/>
<rect x="65" y="58" width="2" height="1"/>
<rect x="293" y="58" width="2" height="1"/>
<rect x="65" y="59" width="2" height="1"/>
<rect x="98" y="59" width="1" height="1"/>
<rect x="123" y="59" width="1" height="1"/>
<rect x="147" y="59" width="1" height="1"/>
<rect x="293" y="59" width="2" height="1"/>
<rect x="65" y="60" width="2" height="1"/>
<rect x="82" y="60" width="6" height="1"/>
<rect x="98" y="60" width="1" height="1"/>
<rect x="108" y="60" width="1" height="1"/>
<rect x="123" y="60" width="1" height="1"/>
<rect x="147" y="60" width="1" height="1"/>
<rect x="153" y="60" width="5" height="1"/>
<rect x="293" y="60" width="2" height="1"/>
<rect x="65" y="61" width="2" height="1"/>
<rect x="82" y="61" width="1" height="1"/>
<rect x="87" y="61" width="2" height="1"/>
<rect x="98" y="61" width="1" height="1"/>
<rect x="108" y="61" width="1" height="1"/>
<rect x="123" y="61" width="1" height="1"/>
<rect x="147" y="61" width="1" height="1"/>
<rect x="153" y="61" width="1" height="1"/>
<rect x="157" y="61" width="1" height="1"/>
<rect x="293" y="61" width="2" height="1"/>
<rect x="65" y="62" width="2" height="1"/>
<rect x="82" y="62" width="1" height="1"/>
<rect x="88" y="62" width="1" height="1"/>
<rect x="92" y="62" width="3" height="1"/>
<rect x="98" y="62" width="1" height="1"/>
<rect x="102" y="62" width="3" height="1"/>
<rect x="107" y="62" width="4" height="1"/>
<rect x="114" y="62" width="3" height="1"/>
<rect x="123" y="62" width="1" height="1"/>
<rect x="125" y="62" width="3" height="1"/>
<rect x="132" y="62" width="4" height="1"/>
<rect x="140" y="62" width="4" height="1"/>
<rect x="147" y="62" width="1" height="1"/>
<rect x="151" y="62" width="2" height="1"/>
<rect x="157" y="62" width="1" height="1"/>
<rect x="293" y="62" width="2" height="1"/>
<rect x="65" y="63" width="2" height="1"/>
<rect x="82" y="63" width="1" height="1"/>
<rect x="88" y="63" width="2" height="1"/>
<rect x="91" y="63" width="1" height="1"/>
<rect x="95" y="63" width="1" height="1"/>
<rect x="98" y="63" width="1" height="1"/>
<rect x="101" y="63" width="1" height="1"/>
<rect x="105" y="63" width="1" height="1"/>
<rect x="108" y="63" width="1" height="1"/>
<rect x="113" y="63" width="1" height="1"/>
<rect x="117" y="63" width="1" height="1"/>
<rect x="123" y="63" width="2" height="1"/>
<rect x="128" y="63" width="1" height="1"/>
<rect x="131" y="63" width="1" height="1"/>
<rect x="135" y="63" width="2" height="1"/>
<rect x="139" y="63" width="1" height="1"/>
<rect x="143" y="63" width="2" height="1"/>
<rect x="147" y="63" width="1" height="1"/>
<rect x="150" y="63" width="1" height="1"/>
<rect x="156" y="63" width="2" height="1"/>
<rect x="293" y="63" width="2" height="1"/>
<rect x="65" y="64" width="2" height="1"/>
<rect x="82" y="64" width="1" height="1"/>
<rect x="88" y="64" width="2" height="1"/>
<rect x="91" y="64" width="1" height="1"/>
<rect x="95" y="64" width="2" height="1"/>
<rect x="98" y="64" width="1" height="1"/>
<rect x="101" y="64" width="1" height="1"/>
<rect x="105" y="64" width="2" height="1"/>
<rect x="108" y="64" width="1" height="1"/>
<rect x="113" y="64" width="1" height="1"/>
<rect x="117" y="64" width="2" height="1"/>
<rect x="123" y="64" width="1" height="1"/>
<rect x="128" y="64" width="1" height="1"/>
<rect x="131" y="64" width="1" height="1"/>
<rect x="136" y="64" width="1" height="1"/>
<rect x="139" y="64" width="1" height="1"/>
<rect x="144" y="64" width="1" height="1"/>
<rect x="147" y="64" width="1" height="1"/>
<rect x="149" y="64" width="1" height="1"/>
<rect x="155" y="64" width="2" height="1"/>
<rect x="293" y="64" width="2" height="1"/>
<rect x="65" y="65" width="2" height="1"/>
<rect x="82" y="65" width="1" height="1"/>
<rect x="88" y="65" width="2" height="1"/>
<rect x="91" y="65" width="6" height="1"/>
<rect x="98" y="65" width="1" height="1"/>
<rect x="101" y="65" width="6" height="1"/>
<rect x="108" y="65" width="1" height="1"/>
<rect x="113" y="65" width="6" height="1"/>
<rect x="123" y="65" width="1" height="1"/>
<rect x="128" y="65" width="1" height="1"/>
<rect x="131" y="65" width="1" height="1"/>
<rect x="136" y="65" width="1" height="1"/>
<rect x="139" y="65" width="1" height="1"/>
<rect x="144" y="65" width="1" height="1"/>
<rect x="147" y="65" width="3" height="1"/>
<rect x="155" y="65" width="1" height="1"/>
<rect x="293" y="65" width="2" height="1"/>
<rect x="65" y="66" width="2" height="1"/>
<rect x="82" y="66" width="1" height="1"/>
<rect x="88" y="66" width="1" height="1"/>
<rect x="91" y="66" width="1" height="1"/>
<rect x="98" y="66" width="1" height="1"/>
<rect x="101" y="66" width="1" height="1"/>
<rect x="108" y="66" width="1" height="1"/>
<rect x="113" y="66" width="1" height="1"/>
<rect x="123" y="66" width="1" height="1"/>
<rect x="128" y="66" width="1" height="1"/>
<rect x="131" y="66" width="1" height="1"/>
<rect x="136" y="66" width="1" height="1"/>
<rect x="139" y="66" width="1" height="1"/>
<rect x="144" y="66" width="1" height="1"/>
<rect x="147" y="66" width="1" height="1"/>
<rect x="150" y="66" width="1" height="1"/>
<rect x="293" y="66" width="2" height="1"/>
<rect x="65" y="67" width="2" height="1"/>
<rect x="82" y="67" width="1" height="1"/>
<rect x="87" y="67" width="2" height="1"/>
<rect x="91" y="67" width="1" height="1"/>
<rect x="98" y="67" width="1" height="1"/>
<rect x="101" y="67" width="1" height="1"/>
<rect x="108" y="67" width="1" height="1"/>
<rect x="113" y="67" width="1" height="1"/>
<rect x="123" y="67" width="2" height="1"/>
<rect x="128" y="67" width="1" height="1"/>
<rect x="131" y="67" width="1" height="1"/>
<rect x="135" y="67" width="2" height="1"/>
<rect x="139" y="67" width="1" height="1"/>
<rect x="143" y="67" width="2" height="1"/>
<rect x="147" y="67" width="1" height="1"/>
<rect x="150" y="67" width="2" height="1"/>
<rect x="155" y="67" width="1" height="1"/>
<rect x="293" y="67" width="2" height="1"/>
<rect x="65" y="68" width="2" height="1"/>
<rect x="82" y="68" width="5" height="1"/>
<rect x="92" y="68" width="4" height="1"/>
<rect x="98" y="68" width="1" height="1"/>
<rect x="102" y="68" width="4" height="1"/>
<rect x="109" y="68" width="2" height="1"/>
<rect x="114" y="68" width="4" height="1"/>
<rect x="123" y="68" width="1" height="1"/>
<rect x="125" y="68" width="3" height="1"/>
<rect x="132" y="68" width="4" height="1"/>
<rect x="140" y="68" width="4" height="1"/>
<rect x="147" y="68" width="1" height="1"/>
<rect x="151" y="68" width="2" height="1"/>
<rect x="155" y="68" width="1" height="1"/>
<rect x="293" y="68" width="2" height="1"/>
<rect x="65" y="69" width="2" height="1"/>
<rect x="293" y="69" width="2" height="1"/>
<rect x="65" y="70" width="2" height="1"/>
<rect x="293" y="70" width="2" height="1"/>
<rect x="65" y="71" width="2" height="1"/>
<rect x="293" y="71" width="2" height="1"/>
<rect x="65" y="72" width="2" height="1"/>
<rect x="293" y="72" width="2" height="1"/>
<rect x="65" y="73" width="2" height="1"/>
<rect x="293" y="73" width="2" height="1"/>
<rect x="65" y="74" width="2" height="1"/>
<rect x="293" y="74" width="2" height="1"/>
<rect x="65" y="75" width="2" height="1"/>
<rect x="293" y="75" width="2" height="1"/>
<rect x="65" y="76" width="2" height="1"/>
<rect x="293" y="76" width="2" height="1"/>
<rect x="65" y="77" width="2" height="1"/>
<rect x="293" y="77" width="2" height="1"/>
<rect x="65" y="78" width="2" height="1"/>
<rect x="293" y="78" width="2" height="1"/>
<rect x="65" y="79" width="2" height="1"/>
<rect x="293" y="79" width="2" height="1"/>
<rect x="65" y="80" width="2" height="1"/>
<rect x="293" y="80" width="2" height="1"/>
<rect x="65" y="81" width="2" height="1"/>
<rect x="293" y="81" width="2" height="1"/>
<rect x="65" y="82" width="2" height="1"/>
<rect x="293" y="82" width="2" height="1"/>
<rect x="65" y="83" width="2" height="1"/>
<rect x="293" y="83" width="2" height="1"/>
<rect x="65" y="84" width="2" height="1"/>
<rect x="293" y="84" width="2" height="1"/>
<rect x="65" y="85" width="2" height="1"/>
<rect x="134" y="85" width="1" height="1"/>
<rect x="158" y="85" width="1" height="1"/>
<rect x="165" y="85" width="4" height="1"/>
<rect x="171" y="85" width="1" height="1"/>
<rect x="293" y="85" width="2" height="1"/>
<rect x="65" y="86" width="2" height="1"/>
<rect x="82" y="86" width="5" height="1"/>
<rect x="134" y="86" width="1" height="1"/>
<rect x="158" y="86" width="1" height="1"/>
<rect x="165" y="86" width="1" height="1"/>
<rect x="171" y="86" width="1" height="1"/>
<rect x="293" y="86" width="2" height="1"/>
<rect x="65" y="87" width="2" height="1"/>
<rect x="82" y="87" width="1" height="1"/>
<rect x="87" y="87" width="1" height="1"/>
<rect x="134" y="87" width="1" height="1"/>
<rect x="158" y="87" width="1" height="1"/>
<rect x="164" y="87" width="2" height="1"/>
<rect x="171" y="87" width="1" height="1"/>
<rect x="293" y="87" width="2" height="1"/>
<rect x="65" y="88" width="2" height="1"/>
<rect x="82" y="88" width="1" height="1"/>
<rect x="87" y="88" width="1" height="1"/>
<rect x="91" y="88" width="3" height="1"/>
<rect x="97" y="88" width="1" height="1"/>
<rect x="99" y="88" width="3" height="1"/>
<rect x="103" y="88" width="3" height="1"/>
<rect x="110" y="88" width="4" height="1"/>
<rect x="116" y="88" width="1" height="1"/>
<rect x="121" y="88" width="2" height="1"/>
<rect x="125" y="88" width="3" height="1"/>
<rect x="134" y="88" width="1" height="1"/>
<rect x="138" y="88" width="4" height="1"/>
<rect x="146" y="88" width="4" height="1"/>
<rect x="152" y="88" width="4" height="1"/>
<rect x="158" y="88" width="1" height="1"/>
<rect x="163" y="88" width="4" height="1"/>
<rect x="168" y="88" width="1" height="1"/>
<rect x="171" y="88" width="1" height="1"/>
<rect x="175" y="88" width="3" height="1"/>
<rect x="293" y="88" width="2" height="1"/>
<rect x="65" y="89" width="2" height="1"/>
<rect x="82" y="89" width="1" height="1"/>
<rect x="87" y="89" width="1" height="1"/>
<rect x="90" y="89" width="1" height="1"/>
<rect x="94" y="89" width="1" height="1"/>
<rect x="97" y="89" width="2" height="1"/>
<rect x="101" y="89" width="2" height="1"/>
<rect x="106" y="89" width="1" height="1"/>
<rect x="109" y="89" width="1" height="1"/>
<rect x="113" y="89" width="2" height="1"/>
<rect x="117" y="89" width="1" height="1"/>
<rect x="121" y="89" width="1" height="1"/>
<rect x="124" y="89" width="1" height="1"/>
<rect x="128" y="89" width="1" height="1"/>
<rect x="134" y="89" width="1" height="1"/>
<rect x="137" y="89" width="1" height="1"/>
<rect x="141" y="89" width="2" height="1"/>
<rect x="145" y="89" width="1" height="1"/>
<rect x="151" y="89" width="1" height="1"/>
<rect x="155" y="89" width="1" height="1"/>
<rect x="158" y="89" width="1" height="1"/>
<rect x="164" y="89" width="2" height="1"/>
<rect x="168" y="89" width="1" height="1"/>
<rect x="171" y="89" width="1" height="1"/>
<rect x="174" y="89" width="1" height="1"/>
<rect x="178" y="89" width="1" height="1"/>
<rect x="293" y="89" width="2" height="1"/>
<rect x="65" y="90" width="2" height="1"/>
<rect x="82" y="90" width="5" height="1"/>
<rect x="90" y="90" width="1" height="1"/>
<rect x="94" y="90" width="2" height="1"/>
<rect x="97" y="90" width="1" height="1"/>
<rect x="102" y="90" width="1" height="1"/>
<rect x="106" y="90" width="1" height="1"/>
<rect x="109" y="90" width="1" height="1"/>
<rect x="114" y="90" width="1" height="1"/>
<rect x="117" y="90" width="1" height="1"/>
<rect x="120" y="90" width="2" height="1"/>
<rect x="124" y="90" width="1" height="1"/>
<rect x="128" y="90" width="2" height="1"/>
<rect x="134" y="90" width="1" height="1"/>
<rect x="137" y="90" width="1" height="1"/>
<rect x="142" y="90" width="1" height="1"/>
<rect x="145" y="90" width="1" height="1"/>
<rect x="155" y="90" width="1" height="1"/>
<rect x="158" y="90" width="1" height="1"/>
<rect x="164" y="90" width="2" height="1"/>
<rect x="168" y="90" width="1" height="1"/>
<rect x="171" y="90" width="1" height="1"/>
<rect x="174" y="90" width="1" height="1"/>
<rect x="178" y="90" width="2" height="1"/>
<rect x="293" y="90" width="2" height="1"/>
<rect x="65" y="91" width="2" height="1"/>
<rect x="82" y="91" width="1" height="1"/>
<rect x="86" y="91" width="1" height="1"/>
<rect x="90" y="91" width="6" height="1"/>
<rect x="97" y="91" width="1" height="1"/>
<rect x="102" y="91" width="1" height="1"/>
<rect x="106" y="91" width="1" height="1"/>
<rect x="109" y="91" width="1" height="1"/>
<rect x="114" y="91" width="1" height="1"/>
<rect x="117" y="91" width="1" height="1"/>
<rect x="120" y="91" width="1" height="1"/>
<rect x="124" y="91" width="6" height="1"/>
<rect x="134" y="91" width="1" height="1"/>
<rect x="137" y="91" width="1" height="1"/>
<rect x="142" y="91" width="1" height="1"/>
<rect x="145" y="91" width="1" height="1"/>
<rect x="151" y="91" width="5" height="1"/>
<rect x="158" y="91" width="1" height="1"/>
<rect x="164" y="91" width="2" height="1"/>
<rect x="168" y="91" width="1" height="1"/>
<rect x="171" y="91" width="1" height="1"/>
<rect x="174" y="91" width="6" height="1"/>
<rect x="293" y="91" width="2" height="1"/>
<rect x="65" y="92" width="2" height="1"/>
<rect x="82" y="92" width="1" height="1"/>
<rect x="86" y="92" width="1" height="1"/>
<rect x="90" y="92" width="1" height="1"/>
<rect x="97" y="92" width="1" height="1"/>
<rect x="102" y="92" width="1" height="1"/>
<rect x="106" y="92" width="1" height="1"/>
<rect x="109" y="92" width="1" height="1"/>
<rect x="114" y="92" width="1" height="1"/>
<rect x="118" y="92" width="1" height="1"/>
<rect x="120" y="92" width="1" height="1"/>
<rect x="124" y="92" width="1" height="1"/>
<rect x="134" y="92" width="1" height="1"/>
<rect x="137" y="92" width="1" height="1"/>
<rect x="142" y="92" width="1" height="1"/>
<rect x="145" y="92" width="1" height="1"/>
<rect x="151" y="92" width="1" height="1"/>
<rect x="155" y="92" width="1" height="1"/>
<rect x="158" y="92" width="1" height="1"/>
<rect x="164" y="92" width="2" height="1"/>
<rect x="168" y="92" width="1" height="1"/>
<rect x="171" y="92" width="1" height="1"/>
<rect x="174" y="92" width="1" height="1"/>
<rect x="293" y="92" width="2" height="1"/>
<rect x="65" y="93" width="2" height="1"/>
<rect x="82" y="93" width="1" height="1"/>
<rect x="87" y="93" width="1" height="1"/>
<rect x="90" y="93" width="1" height="1"/>
<rect x="97" y="93" width="1" height="1"/>
<rect x="102" y="93" width="1" height="1"/>
<rect x="106" y="93" width="1" height="1"/>
<rect x="109" y="93" width="1" height="1"/>
<rect x="113" y="93" width="2" height="1"/>
<rect x="118" y="93" width="3" height="1"/>
<rect x="124" y="93" width="1" height="1"/>
<rect x="134" y="93" width="1" height="1"/>
<rect x="137" y="93" width="1" height="1"/>
<rect x="141" y="93" width="2" height="1"/>
<rect x="145" y="93" width="1" height="1"/>
<rect x="151" y="93" width="1" height="1"/>
<rect x="155" y="93" width="1" height="1"/>
<rect x="158" y="93" width="1" height="1"/>
<rect x="164" y="93" width="2" height="1"/>
<rect x="168" y="93" width="1" height="1"/>
<rect x="171" y="93" width="1" height="1"/>
<rect x="174" y="93" width="1" height="1"/>
<rect x="181" y="93" width="1" height="1"/>
<rect x="293" y="93" width="2" height="1"/>
<rect x="65" y="94" width="2" height="1"/>
<rect x="82" y="94" width="1" height="1"/>
<rect x="87" y="94" width="2" height="1"/>
<rect x="91" y="94" width="4" height="1"/>
<rect x="97" y="94" width="1" height="1"/>
<rect x="102" y="94" width="1" height="1"/>
<rect x="106" y="94" width="1" height="1"/>
<rect x="110" y="94" width="4" height="1"/>
<rect x="118" y="94" width="2" height="1"/>
<rect x="125" y="94" width="4" height="1"/>
<rect x="134" y="94" width="1" height="1"/>
<rect x="138" y="94" width="4" height="1"/>
<rect x="146" y="94" width="4" height="1"/>
<rect x="151" y="94" width="5" height="1"/>
<rect x="158" y="94" width="1" height="1"/>
<rect x="164" y="94" width="2" height="1"/>
<rect x="168" y="94" width="1" height="1"/>
<rect x="171" y="94" width="1" height="1"/>
<rect x="175" y="94" width="4" height="1"/>
<rect x="181" y="94" width="2" height="1"/>
<rect x="293" y="94" width="2" height="1"/>
<rect x="65" y="95" width="2" height="1"/>
<rect x="293" y="95" width="2" height="1"/>
<rect x="65" y="96" width="2" height="1"/>
<rect x="293" y="96" width="2" height="1"/>
<rect x="65" y="97" width="2" height="1"/>
<rect x="293" y="97" width="2" height="1"/>
<rect x="65" y="98" width="2" height="1"/>
<rect x="293" y="98" width="2" height="1"/>
<rect x="65" y="99" width="2" height="1"/>
<rect x="293" y="99" width="2" height="1"/>
<rect x="65" y="100" width="2" height="1"/>
<rect x="293" y="100" width="2" height="1"/>
<rect x="65" y="101" width="2" height="1"/>
<rect x="293" y="101" width="2" height="1"/>
<rect x="65" y="102" width="2" height="1"/>
<rect x="293" y="102" width="2" height="1"/>
<rect x="65" y="103" width="2" height="1"/>
<rect x="293" y="103" width="2" height="1"/>
<rect x="65" y="104" width="2" height="1"/>
<rect x="293" y="104" width="2" height="1"/>
<rect x="65" y="105" width="2" height="1"/>
<rect x="81" y="105" width="95" height="1"/>
<rect x="184" y="105" width="95" height="1"/>
<rect x="293" y="105" width="2" height="1"/>
<rect x="65" y="106" width="2" height="1"/>
<rect x="81" y="106" width="1" height="1"/>
<rect x="175" y="106" width="1" height="1"/>
<rect x="184" y="106" width="1" height="1"/>
<rect x="278" y="106" width="1" height="1"/>
<rect x="293" y="106" width="2" height="1"/>
<rect x="65" y="107" width="2" height="1"/>
<rect x="81" y="107" width="1" height="1"/>
<rect x="175" y="107" width="1" height="1"/>
<rect x="184" y="107" width="1" height="1"/>
<rect x="278" y="107" width="1" height="1"/>
<rect x="293" y="107" width="2" height="1"/>
<rect x="65" y="108" width="2" height="1"/>
<rect x="81" y="108" width="1" height="1"/>
<rect x="175" y="108" width="1" height="1"/>
<rect x="184" y="108" width="1" height="1"/>
<rect x="278" y="108" width="1" height="1"/>
<rect x="293" y="108" width="2" height="1"/>
<rect x="65" y="109" width="2" height="1"/>
<rect x="81" y="109" width="1" height="1"/>
<rect x="175" y="109" width="1" height="1"/>
<rect x="184" y="109" width="1" height="1"/>
<rect x="278" y="109" width="1" height="1"/>
<rect x="293" y="109" width="2" height="1"/>
<rect x="65" y="110" width="2" height="1"/>
<rect x="81" y="110" width="1" height="1"/>
<rect x="175" y="110" width="1" height="1"/>
<rect x="184" y="110" width="1" height="1"/>
<rect x="278" y="110" width="1" height="1"/>
<rect x="293" y="110" width="2" height="1"/>
<rect x="65" y="111" width="2" height="1"/>
<rect x="81" y="111" width="1" height="1"/>
<rect x="175" y="111" width="1" height="1"/>
<rect x="184" y="111" width="1" height="1"/>
<rect x="278" y="111" width="1" height="1"/>
<rect x="293" y="111" width="2" height="1"/>
<rect x="65" y="112" width="2" height="1"/>
<rect x="81" y="112" width="1" height="1"/>
<rect x="175" y="112" width="1" height="1"/>
<rect x="184" y="112" width="1" height="1"/>
<rect x="278" y="112" width="1" height="1"/>
<rect x="293" y="112" width="2" height="1"/>
<rect x="65" y="113" width="2" height="1"/>
<rect x="81" y="113" width="1" height="1"/>
<rect x="175" y="113" width="1" height="1"/>
<rect x="184" y="113" width="1" height="1"/>
<rect x="278" y="113" width="1" height="1"/>
<rect x="293" y="113" width="2" height="1"/>
<rect x="65" y="114" width="2" height="1"/>
<rect x="81" y="114" width="1" height="1"/>
<rect x="175" y="114" width="1" height="1"/>
<rect x="184" y="114" width="1" height="1"/>
<rect x="278" y="114" width="1" height="1"/>
<rect x="293" y="114" width="2" height="1"/>
<rect x="65" y="115" width="2" height="1"/>
<rect x="81" y="115" width="1" height="1"/>
<rect x="175" y="115" width="1" height="1"/>
<rect x="184" y="115" width="1" height="1"/>
<rect x="278" y="115" width="1" height="1"/>
<rect x="293" y="115" width="2" height="1"/>
<rect x="65" y="116" width="2" height="1"/>
<rect x="81" y="116" width="1" height="1"/>
<rect x="175" y="116" width="1" height="1"/>
<rect x="184" y="116" width="1" height="1"/>
<rect x="278" y="116" width="1" height="1"/>
<rect x="293" y="116" width="2" height="1"/>
<rect x="65" y="117" width="2" height="1"/>
<rect x="81" y="117" width="1" height="1"/>
<rect x="175" y="117" width="1" height="1"/>
<rect x="184" y="117" width="1" height="1"/>
<rect x="278" y="117" width="1" height="1"/>
<rect x="293" y="117" width="2" height="1"/>
<rect x="65" y="118" width="2" height="1"/>
<rect x="81" y="118" width="1" height="1"/>
<rect x="175" y="118" width="1" height="1"/>
<rect x="184" y="118" width="1" height="1"/>
<rect x="278" y="118" width="1" height="1"/>
<rect x="293" y="118" width="2" height="1"/>
<rect x="65" y="119" width="2" height="1"/>
<rect x="81" y="119" width="1" height="1"/>
<rect x="175" y="119" width="1" height="1"/>
<rect x="184" y="119" width="1" height="1"/>
<rect x="278" y="119" width="1" height="1"/>
<rect x="293" y="119" width="2" height="1"/>
<rect x="65" y="120" width="2" height="1"/>
<rect x="81" y="120" width="1" height="1"/>
<rect x="175" y="120" width="1" height="1"/>
<rect x="184" y="120" width="1" height="1"/>
<rect x="278" y="120" width="1" height="1"/>
<rect x="293" y="120" width="2" height="1"/>
<rect x="65" y="121" width="2" height="1"/>
<rect x="81" y="121" width="1" height="1"/>
<rect x="175" y="121" width="1" height="1"/>
<rect x="184" y="121" width="1" height="1"/>
<rect x="278" y="121" width="1" height="1"/>
<rect x="293" y="121" width="2" height="1"/>
<rect x="65" y="122" width="2" height="1"/>
<rect x="81" y="122" width="1" height="1"/>
<rect x="126" y="122" width="1" height="1"/>
<rect x="175" y="122" width="1" height="1"/>
<rect x="184" y="122" width="1" height="1"/>
<rect x="249" y="122" width="1" height="1"/>
<rect x="278" y="122" width="1" height="1"/>
<rect x="293" y="122" width="2" height="1"/>
<rect x="65" y="123" width="2" height="1"/>
<rect x="81" y="123" width="1" height="1"/>
<rect x="110" y="123" width="6" height="1"/>
<rect x="126" y="123" width="1" height="1"/>
<rect x="136" y="123" width="1" height="1"/>
<rect x="175" y="123" width="1" height="1"/>
<rect x="184" y="123" width="1" height="1"/>
<rect x="215" y="123" width="5" height="1"/>
<rect x="249" y="123" width="1" height="1"/>
<rect x="278" y="123" width="1" height="1"/>
<rect x="293" y="123" width="2" height="1"/>
<rect x="65" y="124" width="2" height="1"/>
<rect x="81" y="124" width="1" height="1"/>
<rect x="110" y="124" width="1" height="1"/>
<rect x="115" y="124" width="2" height="1"/>
<rect x="126" y="124" width="1" height="1"/>
<rect x="136" y="124" width="1" height="1"/>
<rect x="175" y="124" width="1" height="1"/>
<rect x="184" y="124" width="1" height="1"/>
<rect x="214" y="124" width="1" height="1"/>
<rect x="249" y="124" width="1" height="1"/>
<rect x="278" y="124" width="1" height="1"/>
<rect x="293" y="124" width="2" height="1"/>
<rect x="65" y="125" width="2" height="1"/>
<rect x="81" y="125" width="1" height="1"/>
<rect x="110" y="125" width="1" height="1"/>
<rect x="116" y="125" width="1" height="1"/>
<rect x="120" y="125" width="3" height="1"/>
<rect x="126" y="125" width="1" height="1"/>
<rect x="130" y="125" width="3" height="1"/>
<rect x="135" y="125" width="4" height="1"/>
<rect x="142" y="125" width="3" height="1"/>
<rect x="175" y="125" width="1" height="1"/>
<rect x="184" y="125" width="1" height="1"/>
<rect x="213" y="125" width="1" height="1"/>
<rect x="222" y="125" width="4" height="1"/>
<rect x="228" y="125" width="1" height="1"/>
<rect x="230" y="125" width="3" height="1"/>
<rect x="237" y="125" width="4" height="1"/>
<rect x="243" y="125" width="3" height="1"/>
<rect x="249" y="125" width="1" height="1"/>
<rect x="278" y="125" width="1" height="1"/>
<rect x="293" y="125" width="2" height="1"/>
<rect x="65" y="126" width="2" height="1"/>
<rect x="81" y="126" width="1" height="1"/>
<rect x="110" y="126" width="1" height="1"/>
<rect x="116" y="126" width="2" height="1"/>
<rect x="119" y="126" width="1" height="1"/>
<rect x="123" y="126" width="1" height="1"/>
<rect x="126" y="126" width="1" height="1"/>
<rect x="129" y="126" width="1" height="1"/>
<rect x="133" y="126" width="1" height="1"/>
<rect x="136" y="126" width="1" height="1"/>
<rect x="141" y="126" width="1" height="1"/>
<rect x="145" y="126" width="1" height="1"/>
<rect x="175" y="126" width="1" height="1"/>
<rect x="184" y="126" width="1" height="1"/>
<rect x="213" y="126" width="1" height="1"/>
<rect x="221" y="126" width="1" height="1"/>
<rect x="225" y="126" width="1" height="1"/>
<rect x="228" y="126" width="2" height="1"/>
<rect x="233" y="126" width="1" height="1"/>
<rect x="236" y="126" width="1" height="1"/>
<rect x="242" y="126" width="1" height="1"/>
<rect x="246" y="126" width="1" height="1"/>
<rect x="249" y="126" width="1" height="1"/>
<rect x="278" y="126" width="1" height="1"/>
<rect x="293" y="126" width="2" height="1"/>
<rect x="65" y="127" width="2" height="1"/>
<rect x="81" y="127" width="1" height="1"/>
<rect x="110" y="127" width="1" height="1"/>
<rect x="116" y="127" width="2" height="1"/>
<rect x="119" y="127" width="1" height="1"/>
<rect x="123" y="127" width="2" height="1"/>
<rect x="126" y="127" width="1" height="1"/>
<rect x="129" y="127" width="1" height="1"/>
<rect x="133" y="127" width="2" height="1"/>
<rect x="136" y="127" width="1" height="1"/>
<rect x="141" y="127" width="1" height="1"/>
<rect x="145" y="127" width="2" height="1"/>
<rect x="175" y="127" width="1" height="1"/>
<rect x="184" y="127" width="1" height="1"/>
<rect x="213" y="127" width="1" height="1"/>
<rect x="225" y="127" width="1" height="1"/>
<rect x="228" y="127" width="1" height="1"/>
<rect x="233" y="127" width="1" height="1"/>
<rect x="236" y="127" width="1" height="1"/>
<rect x="242" y="127" width="1" height="1"/>
<rect x="246" y="127" width="2" height="1"/>
<rect x="249" y="127" width="1" height="1"/>
<rect x="278" y="127" width="1" height="1"/>
<rect x="293" y="127" width="2" height="1"/>
<rect x="65" y="128" width="2" height="1"/>
<rect x="81" y="128" width="1" height="1"/>
<rect x="110" y="128" width="1" height="1"/>
<rect x="116" y="128" width="2" height="1"/>
<rect x="119" y="128" width="6" height="1"/>
<rect x="126" y="128" width="1" height="1"/>
<rect x="129" y="128" width="6" height="1"/>
<rect x="136" y="128" width="1" height="1"/>
<rect x="141" y="128" width="6" height="1"/>
<rect x="175" y="128" width="1" height="1"/>
<rect x="184" y="128" width="1" height="1"/>
<rect x="213" y="128" width="1" height="1"/>
<rect x="221" y="128" width="5" height="1"/>
<rect x="228" y="128" width="1" height="1"/>
<rect x="233" y="128" width="1" height="1"/>
<rect x="236" y="128" width="1" height="1"/>
<rect x="242" y="128" width="6" height="1"/>
<rect x="249" y="128" width="1" height="1"/>
<rect x="278" y="128" width="1" height="1"/>
<rect x="293" y="128" width="2" height="1"/>
<rect x="65" y="129" width="2" height="1"/>
<rect x="81" y="129" width="1" height="1"/>
<rect x="110" y="129" width="1" height="1"/>
<rect x="116" y="129" width="1" height="1"/>
<rect x="119" y="129" width="1" height="1"/>
<rect x="126" y="129" width="1" height="1"/>
<rect x="129" y="129" width="1" height="1"/>
<rect x="136" y="129" width="1" height="1"/>
<rect x="141" y="129" width="1" height="1"/>
<rect x="175" y="129" width="1" height="1"/>
<rect x="184" y="129" width="1" height="1"/>
<rect x="213" y="129" width="1" height="1"/>
<rect x="221" y="129" width="1" height="1"/>
<rect x="225" y="129" width="1" height="1"/>
<rect x="228" y="129" width="1" height="1"/>
<rect x="233" y="129" width="1" height="1"/>
<rect x="236" y="129" width="1" height="1"/>
<rect x="242" y="129" width="1" height="1"/>
<rect x="249" y="129" width="1" height="1"/>
<rect x="278" y="129" width="1" height="1"/>
<rect x="293" y="129" width="2" height="1"/>
<rect x="65" y="130" width="2" height="1"/>
<rect x="81" y="130" width="1" height="1"/>
<rect x="110" y="130" width="1" height="1"/>
<rect x="115" y="130" width="2" height="1"/>
<rect x="119" y="130" width="1" height="1"/>
<rect x="126" y="130" width="1" height="1"/>
<rect x="129" y="130" width="1" height="1"/>
<rect x="136" y="130" width="1" height="1"/>
<rect x="141" y="130" width="1" height="1"/>
<rect x="175" y="130" width="1" height="1"/>
<rect x="184" y="130" width="1" height="1"/>
<rect x="214" y="130" width="1" height="1"/>
<rect x="221" y="130" width="1" height="1"/>
<rect x="225" y="130" width="1" height="1"/>
<rect x="228" y="130" width="1" height="1"/>
<rect x="233" y="130" width="1" height="1"/>
<rect x="236" y="130" width="1" height="1"/>
<rect x="242" y="130" width="1" height="1"/>
<rect x="249" y="130" width="1" height="1"/>
<rect x="278" y="130" width="1" height="1"/>
<rect x="293" y="130" width="2" height="1"/>
<rect x="65" y="131" width="2" height="1"/>
<rect x="81" y="131" width="1" height="1"/>
<rect x="110" y="131" width="5" height="1"/>
<rect x="120" y="131" width="4" height="1"/>
<rect x="126" y="131" width="1" height="1"/>
<rect x="130" y="131" width="4" height="1"/>
<rect x="137" y="131" width="2" height="1"/>
<rect x="142" y="131" width="4" height="1"/>
<rect x="175" y="131" width="1" height="1"/>
<rect x="184" y="131" width="1" height="1"/>
<rect x="215" y="131" width="4" height="1"/>
<rect x="221" y="131" width="5" height="1"/>
<rect x="228" y="131" width="1" height="1"/>
<rect x="233" y="131" width="1" height="1"/>
<rect x="237" y="131" width="4" height="1"/>
<rect x="243" y="131" width="4" height="1"/>
<rect x="249" y="131" width="1" height="1"/>
<rect x="278" y="131" width="1" height="1"/>
<rect x="293" y="131" width="2" height="1"/>
<rect x="65" y="132" width="2" height="1"/>
<rect x="81" y="132" width="1" height="1"/>
<rect x="175" y="132" width="1" height="1"/>
<rect x="184" y="132" width="1" height="1"/>
<rect x="278" y="132" width="1" height="1"/>
<rect x="293" y="132" width="2" height="1"/>
<rect x="65" y="133" width="2" height="1"/>
<rect x="81" y="133" width="1" height="1"/>
<rect x="175" y="133" width="1" height="1"/>
<rect x="184" y="133" width="1" height="1"/>
<rect x="278" y="133" width="1" height="1"/>
<rect x="293" y="133" width="2" height="1"/>
<rect x="65" y="134" width="2" height="1"/>
<rect x="81" y="134" width="1" height="1"/>
<rect x="175" y="134" width="1" height="1"/>
<rect x="184" y="134" width="1" height="1"/>
<rect x="278" y="134" width="1" height="1"/>
<rect x="293" y="134" width="2" height="1"/>
<rect x="65" y="135" width="2" height="1"/>
<rect x="81" y="135" width="1" height="1"/>
<rect x="175" y="135" width="1" height="1"/>
<rect x="184" y="135" width="1" height="1"/>
<rect x="278" y="135" width="1" height="1"/>
<rect x="293" y="135" width="2" height="1"/>
<rect x="65" y="136" width="2" height="1"/>
<rect x="81" y="136" width="1" height="1"/>
<rect x="175" y="136" width="1" height="1"/>
<rect x="184" y="136" width="1" height="1"/>
<rect x="278" y="136" width="1" height="1"/>
<rect x="293" y="136" width="2" height="1"/>
<rect x="65" y="137" width="2" height="1"/>
<rect x="81" y="137" width="1" height="1"/>
<rect x="175" y="137" width="1" height="1"/>
<rect x="184" y="137" width="1" height="1"/>
<rect x="278" y="137" width="1" height="1"/>
<rect x="293" y="137" width="2" height="1"/>
<rect x="65" y="138" width="2" height="1"/>
<rect x="81" y="138" width="1" height="1"/>
<rect x="175" y="138" width="1" height="1"/>
<rect x="184" y="138" width="1" height="1"/>
<rect x="278" y="138" width="1" height="1"/>
<rect x="293" y="138" width="2" height="1"/>
<rect x="65" y="139" width="2" height="1"/>
<rect x="81" y="139" width="1" height="1"/>
<rect x="175" y="139" width="1" height="1"/>
<rect x="184" y="139" width="1" height="1"/>
<rect x="278" y="139" width="1" height="1"/>
<rect x="293" y="139" width="2" height="1"/>
<rect x="65" y="140" width="2" height="1"/>
<rect x="81" y="140" width="1" height="1"/>
<rect x="175" y="140" width="1" height="1"/>
<rect x="184" y="140" width="1" height="1"/>
<rect x="278" y="140" width="1" height="1"/>
<rect x="293" y="140" width="2" height="1"/>
<rect x="65" y="141" width="2" height="1"/>
<rect x="81" y="141" width="1" height="1"/>
<rect x="175" y="141" width="1" height="1"/>
<rect x="184" y="141" width="1" height="1"/>
<rect x="278" y="141" width="1" height="1"/>
<rect x="293" y="141" width="2" height="1"/>
<rect x="65" y="142" width="2" height="1"/>
<rect x="81" y="142" width="1" height="1"/>
<rect x="175" y="142" width="1" height="1"/>
<rect x="184" y="142" width="1" height="1"/>
<rect x="278" y="142" width="1" height="1"/>
<rect x="293" y="142" width="2" height="1"/>
<rect x="65" y="143" width="2" height="1"/>
<rect x="81" y="143" width="1" height="1"/>
<rect x="175" y="143" width="1" height="1"/>
<rect x="184" y="143" width="1" height="1"/>
<rect x="278" y="143" width="1" height="1"/>
<rect x="293" y="143" width="2" height="1"/>
<rect x="65" y="144" width="2" height="1"/>
<rect x="81" y="144" width="1" height="1"/>
<rect x="175" y="144" width="1" height="1"/>
<rect x="184" y="144" width="1" height="1"/>
<rect x="278" y="144" width="1" height="1"/>
<rect x="293" y="144" width="2" height="1"/>
<rect x="65" y="145" width="2" height="1"/>
<rect x="81" y="145" width="1" height="1"/>
<rect x="175" y="145" width="1" height="1"/>
<rect x="184" y="145" width="1" height="1"/>
<rect x="278" y="145" width="1" height="1"/>
<rect x="293" y="145" width="2" height="1"/>
<rect x="65" y="146" width="2" height="1"/>
<rect x="81" y="146" width="1" height="1"/>
<rect x="175" y="146" width="1" height="1"/>
<rect x="184" y="146" width="1" height="1"/>
<rect x="278" y="146" width="1" height="1"/>
<rect x="293" y="146" width="2" height="1"/>
<rect x="65" y="147" width="2" height="1"/>
<rect x="81" y="147" width="1" height="1"/>
<rect x="175" y="147" width="1" height="1"/>
<rect x="184" y="147" width="1" height="1"/>
<rect x="278" y="147" width="1" height="1"/>
<rect x="293" y="147" width="2" height="1"/>
<rect x="65" y="148" width="2" height="1"/>
<rect x="81" y="148" width="95" height="1"/>
<rect x="184" y="148" width="95" height="1"/>
<rect x="293" y="148" width="2" height="1"/>
<rect x="65" y="149" width="2" height="1"/>
<rect x="293" y="149" width="2" height="1"/>
<rect x="65" y="150" width="2" height="1"/>
<rect x="293" y="150" width="2" height="1"/>
<rect x="65" y="151" width="2" height="1"/>
<rect x="293" y="151" width="2" height="1"/>
<rect x="65" y="152" width="2" height="1"/>
<rect x="293" y="152" width="2" height="1"/>
<rect x="65" y="153" width="2" height="1"/>
<rect x="293" y="153" width="2" height="1"/>
<rect x="65" y="154" width="2" height="1"/>
<rect x="293" y="154" width="2" height="1"/>
<rect x="65" y="155" width="2" height="1"/>
<rect x="293" y="155" width="2" height="1"/>
<rect x="65" y="156" width="2" height="1"/>
<rect x="293" y="156" width="2" height="1"/>
<rect x="65" y="157" width="2" height="1"/>
<rect x="293" y="157" width="2" height="1"/>
<rect x="65" y="158" width="2" height="1"/>
<rect x="293" y="158" width="2" height="1"/>
<rect x="65" y="159" width="230" height="1"/>
<rect x="65" y="160" width="230" height="1"/>
</g>
</svg>
