<svg xmlns="http://www.w3.org/2000/svg" viewBox="0 0 360 180" width="360" height="180" shape-rendering="crispEdges">
<rect width="100%" height="100%" fill="#fff"/>
<g fill="#111">
<rect x="81" y="16" width="1" height="1"/>
<rect x="114" y="16" width="1" height="1"/>
<rect x="47" y="17" width="1" height="1"/>
<rect x="59" y="17" width="1" height="1"/>
<rect x="64" y="17" width="2" height="1"/>
<rect x="81" y="17" width="1" height="1"/>
<rect x="114" y="17" width="1" height="1"/>
<rect x="47" y="18" width="1" height="1"/>
<rect x="59" y="18" width="1" height="1"/>
<rect x="63" y="18" width="2" height="1"/>
<rect x="81" y="18" width="1" height="1"/>
<rect x="114" y="18" width="1" height="1"/>
<rect x="18" y="19" width="3" height="1"/>
<rect x="22" y="19" width="1" height="1"/>
<rect x="24" y="19" width="1" height="1"/>
<rect x="28" y="19" width="2" height="1"/>
<rect x="33" y="19" width="1" height="1"/>
<rect x="36" y="19" width="3" height="1"/>
<rect x="42" y="19" width="1" height="1"/>
<rect x="44" y="19" width="6" height="1"/>
<rect x="51" y="19" width="1" height="1"/>
<rect x="56" y="19" width="2" height="1"/>
<rect x="59" y="19" width="1" height="1"/>
<rect x="62" y="19" width="2" height="1"/>
<rect x="68" y="19" width="3" height="1"/>
<rect x="73" y="19" width="1" height="1"/>
<rect x="78" y="19" width="2" height="1"/>
<rect x="81" y="19" width="1" height="1"/>
<rect x="83" y="19" width="3" height="1"/>
<rect x="90" y="19" width="4" height="1"/>
<rect x="98" y="19" width="4" height="1"/>
<rect x="104" y="19" width="1" height="1"/>
<rect x="106" y="19" width="2" height="1"/>
<rect x="110" y="19" width="3" height="1"/>
<rect x="114" y="19" width="1" height="1"/>
<rect x="17" y="20" width="1" height="1"/>
<rect x="21" y="20" width="2" height="1"/>
<rect x="25" y="20" width="1" height="1"/>
<rect x="28" y="20" width="2" height="1"/>
<rect x="33" y="20" width="1" height="1"/>
<rect x="35" y="20" width="1" height="1"/>
<rect x="39" y="20" width="1" height="1"/>
<rect x="42" y="20" width="2" height="1"/>
<rect x="47" y="20" width="1" height="1"/>
<rect x="52" y="20" width="1" height="1"/>
<rect x="56" y="20" width="1" height="1"/>
<rect x="59" y="20" width="1" height="1"/>
<rect x="61" y="20" width="2" height="1"/>
<rect x="67" y="20" width="1" height="1"/>
<rect x="71" y="20" width="1" height="1"/>
<rect x="74" y="20" width="1" height="1"/>
<rect x="78" y="20" width="1" height="1"/>
<rect x="81" y="20" width="2" height="1"/>
<rect x="86" y="20" width="1" height="1"/>
<rect x="89" y="20" width="1" height="1"/>
<rect x="93" y="20" width="2" height="1"/>
<rect x="97" y="20" width="1" height="1"/>
<rect x="101" y="20" width="1" height="1"/>
<rect x="104" y="20" width="2" height="1"/>
<rect x="109" y="20" width="1" height="1"/>
<rect x="113" y="20" width="2" height="1"/>
<rect x="17" y="21" width="1" height="1"/>
<rect x="22" y="21" width="1" height="1"/>
<rect x="25" y="21" width="1" height="1"/>
<rect x="28" y="21" width="3" height="1"/>
<rect x="32" y="21" width="1" height="1"/>
<rect x="35" y="21" width="1" height="1"/>
<rect x="39" y="21" width="2" height="1"/>
<rect x="42" y="21" width="1" height="1"/>
<rect x="47" y="21" width="1" height="1"/>
<rect x="52" y="21" width="1" height="1"/>
<rect x="55" y="21" width="2" height="1"/>
<rect x="59" y="21" width="4" height="1"/>
<rect x="67" y="21" width="1" height="1"/>
<rect x="71" y="21" width="2" height="1"/>
<rect x="74" y="21" width="1" height="1"/>
<rect x="77" y="21" width="2" height="1"/>
<rect x="81" y="21" width="1" height="1"/>
<rect x="86" y="21" width="1" height="1"/>
<rect x="89" y="21" width="1" height="1"/>
<rect x="94" y="21" width="1" height="1"/>
<rect x="101" y="21" width="1" height="1"/>
<rect x="104" y="21" width="1" height="1"/>
<rect x="109" y="21" width="1" height="1"/>
<rect x="114" y="21" width="1" height="1"/>
<rect x="17" y="22" width="1" height="1"/>
<rect x="22" y="22" width="1" height="1"/>
<rect x="25" y="22" width="1" height="1"/>
<rect x="27" y="22" width="1" height="1"/>
<rect x="30" y="22" width="1" height="1"/>
<rect x="32" y="22" width="1" height="1"/>
<rect x="35" y="22" width="6" height="1"/>
<rect x="42" y="22" width="1" height="1"/>
<rect x="47" y="22" width="1" height="1"/>
<rect x="52" y="22" width="2" height="1"/>
<rect x="55" y="22" width="1" height="1"/>
<rect x="59" y="22" width="2" height="1"/>
<rect x="62" y="22" width="1" height="1"/>
<rect x="67" y="22" width="6" height="1"/>
<rect x="74" y="22" width="2" height="1"/>
<rect x="77" y="22" width="1" height="1"/>
<rect x="81" y="22" width="1" height="1"/>
<rect x="86" y="22" width="1" height="1"/>
<rect x="89" y="22" width="1" height="1"/>
<rect x="94" y="22" width="1" height="1"/>
<rect x="97" y="22" width="5" height="1"/>
<rect x="104" y="22" width="1" height="1"/>
<rect x="109" y="22" width="1" height="1"/>
<rect x="114" y="22" width="1" height="1"/>
<rect x="17" y="23" width="1" height="1"/>
<rect x="22" y="23" width="1" height="1"/>
<rect x="25" y="23" width="1" height="1"/>
<rect x="27" y="23" width="1" height="1"/>
<rect x="30" y="23" width="1" height="1"/>
<rect x="32" y="23" width="1" height="1"/>
<rect x="35" y="23" width="1" height="1"/>
<rect x="42" y="23" width="1" height="1"/>
<rect x="47" y="23" width="1" height="1"/>
<rect x="53" y="23" width="1" height="1"/>
<rect x="55" y="23" width="1" height="1"/>
<rect x="59" y="23" width="1" height="1"/>
<rect x="63" y="23" width="1" height="1"/>
<rect x="67" y="23" width="1" height="1"/>
<rect x="75" y="23" width="1" height="1"/>
<rect x="77" y="23" width="1" height="1"/>
<rect x="81" y="23" width="1" height="1"/>
<rect x="86" y="23" width="1" height="1"/>
<rect x="89" y="23" width="1" height="1"/>
<rect x="94" y="23" width="1" height="1"/>
<rect x="97" y="23" width="1" height="1"/>
<rect x="101" y="23" width="1" height="1"/>
<rect x="104" y="23" width="1" height="1"/>
<rect x="109" y="23" width="1" height="1"/>
<rect x="114" y="23" width="1" height="1"/>
<rect x="17" y="24" width="1" height="1"/>
<rect x="21" y="24" width="2" height="1"/>
<rect x="26" y="24" width="2" height="1"/>
<rect x="30" y="24" width="1" height="1"/>
<rect x="32" y="24" width="1" height="1"/>
<rect x="35" y="24" width="1" height="1"/>
<rect x="42" y="24" width="1" height="1"/>
<rect x="47" y="24" width="1" height="1"/>
<rect x="53" y="24" width="3" height="1"/>
<rect x="59" y="24" width="1" height="1"/>
<rect x="64" y="24" width="1" height="1"/>
<rect x="67" y="24" width="1" height="1"/>
<rect x="75" y="24" width="3" height="1"/>
<rect x="81" y="24" width="2" height="1"/>
<rect x="86" y="24" width="1" height="1"/>
<rect x="89" y="24" width="1" height="1"/>
<rect x="93" y="24" width="2" height="1"/>
<rect x="97" y="24" width="1" height="1"/>
<rect x="101" y="24" width="1" height="1"/>
<rect x="104" y="24" width="1" height="1"/>
<rect x="109" y="24" width="1" height="1"/>
<rect x="113" y="24" width="2" height="1"/>
<rect x="18" y="25" width="3" height="1"/>
<rect x="22" y="25" width="1" height="1"/>
<rect x="26" y="25" width="2" height="1"/>
<rect x="31" y="25" width="1" height="1"/>
<rect x="36" y="25" width="4" height="1"/>
<rect x="42" y="25" width="1" height="1"/>
<rect x="48" y="25" width="2" height="1"/>
<rect x="54" y="25" width="1" height="1"/>
<rect x="59" y="25" width="1" height="1"/>
<rect x="64" y="25" width="2" height="1"/>
<rect x="68" y="25" width="4" height="1"/>
<rect x="76" y="25" width="1" height="1"/>
<rect x="81" y="25" width="1" height="1"/>
<rect x="83" y="25" width="3" height="1"/>
<rect x="90" y="25" width="4" height="1"/>
<rect x="97" y="25" width="5" height="1"/>
<rect x="104" y="25" width="1" height="1"/>
<rect x="110" y="25" width="3" height="1"/>
<rect x="114" y="25" width="1" height="1"/>
<rect x="22" y="26" width="1" height="1"/>
<rect x="54" y="26" width="1" height="1"/>
<rect x="76" y="26" width="1" height="1"/>
<rect x="22" y="27" width="1" height="1"/>
<rect x="53" y="27" width="1" height="1"/>
<rect x="75" y="27" width="1" height="1"/>
<rect x="22" y="28" width="1" height="1"/>
<rect x="51" y="28" width="3" height="1"/>
<rect x="73" y="28" width="3" height="1"/>
<rect x="16" y="30" width="328" height="1"/>
<rect x="179" y="46" width="29" height="1"/>
<rect x="179" y="47" width="29" height="1"/>
<rect x="179" y="48" width="29" height="1"/>
<rect x="179" y="49" width="29" height="1"/>
<rect x="179" y="50" width="29" height="1"/>
<rect x="179" y="51" width="29" height="1"/>
<rect x="179" y="52" width="29" height="1"/>
<rect x="179" y="53" width="29" height="1"/>
<rect x="179" y="54" width="29" height="1"/>
<rect x="255" y="54" width="1" height="1"/>
<rect x="161" y="55" width="1" height="1"/>
<rect x="179" y="55" width="29" height="1"/>
<rect x="161" y="56" width="1" height="1"/>
<rect x="179" y="56" width="29" height="1"/>
<rect x="36" y="57" width="3" height="1"/>
<rect x="40" y="57" width="1" height="1"/>
<rect x="64" y="57" width="1" height="1"/>
<rect x="68" y="57" width="2" height="1"/>
<rect x="73" y="57" width="1" height="1"/>
<rect x="99" y="57" width="3" height="1"/>
<rect x="130" y="57" width="1" height="1"/>
<rect x="132" y="57" width="2" height="1"/>
<rect x="160" y="57" width="4" height="1"/>
<rect x="179" y="57" width="11" height="1"/>
<rect x="191" y="57" width="4" height="1"/>
<rect x="197" y="57" width="11" height="1"/>
<rect x="221" y="57" width="1" height="1"/>
<rect x="226" y="57" width="1" height="1"/>
<rect x="255" y="57" width="1" height="1"/>
<rect x="284" y="57" width="4" height="1"/>
<rect x="314" y="57" width="1" height="1"/>
<rect x="316" y="57" width="3" height="1"/>
<rect x="35" y="58" width="1" height="1"/>
<rect x="39" y="58" width="2" height="1"/>
<rect x="65" y="58" width="1" height="1"/>
<rect x="68" y="58" width="2" height="1"/>
<rect x="73" y="58" width="1" height="1"/>
<rect x="98" y="58" width="1" height="1"/>
<rect x="102" y="58" width="1" height="1"/>
<rect x="130" y="58" width="2" height="1"/>
<rect x="161" y="58" width="1" height="1"/>
<rect x="179" y="58" width="12" height="1"/>
<rect x="192" y="58" width="3" height="1"/>
<rect x="196" y="58" width="12" height="1"/>
<rect x="221" y="58" width="1" height="1"/>
<rect x="226" y="58" width="1" height="1"/>
<rect x="255" y="58" width="1" height="1"/>
<rect x="283" y="58" width="1" height="1"/>
<rect x="287" y="58" width="2" height="1"/>
<rect x="314" y="58" width="2" height="1"/>
<rect x="319" y="58" width="1" height="1"/>
<rect x="35" y="59" width="1" height="1"/>
<rect x="40" y="59" width="1" height="1"/>
<rect x="65" y="59" width="1" height="1"/>
<rect x="68" y="59" width="3" height="1"/>
<rect x="72" y="59" width="1" height="1"/>
<rect x="98" y="59" width="1" height="1"/>
<rect x="102" y="59" width="2" height="1"/>
<rect x="130" y="59" width="1" height="1"/>
<rect x="161" y="59" width="1" height="1"/>
<rect x="179" y="59" width="12" height="1"/>
<rect x="192" y="59" width="2" height="1"/>
<rect x="196" y="59" width="12" height="1"/>
<rect x="221" y="59" width="1" height="1"/>
<rect x="226" y="59" width="1" height="1"/>
<rect x="255" y="59" width="1" height="1"/>
<rect x="283" y="59" width="1" height="1"/>
<rect x="288" y="59" width="1" height="1"/>
<rect x="314" y="59" width="1" height="1"/>
<rect x="319" y="59" width="1" height="1"/>
<rect x="35" y="60" width="1" height="1"/>
<rect x="40" y="60" width="1" height="1"/>
<rect x="65" y="60" width="1" height="1"/>
<rect x="67" y="60" width="1" height="1"/>
<rect x="70" y="60" width="1" height="1"/>
<rect x="72" y="60" width="1" height="1"/>
<rect x="98" y="60" width="6" height="1"/>
<rect x="130" y="60" width="1" height="1"/>
<rect x="161" y="60" width="1" height="1"/>
<rect x="179" y="60" width="12" height="1"/>
<rect x="193" y="60" width="1" height="1"/>
<rect x="195" y="60" width="13" height="1"/>
<rect x="221" y="60" width="1" height="1"/>
<rect x="226" y="60" width="1" height="1"/>
<rect x="255" y="60" width="1" height="1"/>
<rect x="283" y="60" width="1" height="1"/>
<rect x="288" y="60" width="1" height="1"/>
<rect x="314" y="60" width="1" height="1"/>
<rect x="319" y="60" width="1" height="1"/>
<rect x="35" y="61" width="1" height="1"/>
<rect x="40" y="61" width="1" height="1"/>
<rect x="65" y="61" width="1" height="1"/>
<rect x="67" y="61" width="1" height="1"/>
<rect x="70" y="61" width="1" height="1"/>
<rect x="72" y="61" width="1" height="1"/>
<rect x="98" y="61" width="1" height="1"/>
<rect x="130" y="61" width="1" height="1"/>
<rect x="161" y="61" width="1" height="1"/>
<rect x="179" y="61" width="13" height="1"/>
<rect x="193" y="61" width="1" height="1"/>
<rect x="195" y="61" width="13" height="1"/>
<rect x="221" y="61" width="1" height="1"/>
<rect x="226" y="61" width="1" height="1"/>
<rect x="255" y="61" width="1" height="1"/>
<rect x="283" y="61" width="1" height="1"/>
<rect x="288" y="61" width="1" height="1"/>
<rect x="314" y="61" width="1" height="1"/>
<rect x="319" y="61" width="1" height="1"/>
<rect x="35" y="62" width="1" height="1"/>
<rect x="39" y="62" width="2" height="1"/>
<rect x="66" y="62" width="2" height="1"/>
<rect x="70" y="62" width="1" height="1"/>
<rect x="72" y="62" width="1" height="1"/>
<rect x="98" y="62" width="1" height="1"/>
<rect x="130" y="62" width="1" height="1"/>
<rect x="161" y="62" width="1" height="1"/>
<rect x="179" y="62" width="13" height="1"/>
<rect x="195" y="62" width="13" height="1"/>
<rect x="221" y="62" width="1" height="1"/>
<rect x="225" y="62" width="2" height="1"/>
<rect x="255" y="62" width="1" height="1"/>
<rect x="283" y="62" width="1" height="1"/>
<rect x="287" y="62" width="2" height="1"/>
<rect x="314" y="62" width="2" height="1"/>
<rect x="318" y="62" width="2" height="1"/>
<rect x="36" y="63" width="3" height="1"/>
<rect x="40" y="63" width="1" height="1"/>
<rect x="66" y="63" width="2" height="1"/>
<rect x="71" y="63" width="1" height="1"/>
<rect x="99" y="63" width="4" height="1"/>
<rect x="130" y="63" width="1" height="1"/>
<rect x="162" y="63" width="2" height="1"/>
<rect x="179" y="63" width="14" height="1"/>
<rect x="194" y="63" width="14" height="1"/>
<rect x="222" y="63" width="3" height="1"/>
<rect x="226" y="63" width="1" height="1"/>
<rect x="255" y="63" width="1" height="1"/>
<rect x="284" y="63" width="4" height="1"/>
<rect x="314" y="63" width="1" height="1"/>
<rect x="316" y="63" width="3" height="1"/>
<rect x="40" y="64" width="1" height="1"/>
<rect x="179" y="64" width="14" height="1"/>
<rect x="194" y="64" width="14" height="1"/>
<rect x="314" y="64" width="1" height="1"/>
<rect x="40" y="65" width="1" height="1"/>
<rect x="179" y="65" width="13" height="1"/>
<rect x="193" y="65" width="15" height="1"/>
<rect x="314" y="65" width="1" height="1"/>
<rect x="40" y="66" width="1" height="1"/>
<rect x="179" y="66" width="11" height="1"/>
<rect x="193" y="66" width="15" height="1"/>
<rect x="314" y="66" width="1" height="1"/>
<rect x="179" y="67" width="29" height="1"/>
<rect x="179" y="68" width="29" height="1"/>
<rect x="179" y="69" width="29" height="1"/>
<rect x="179" y="70" width="29" height="1"/>
<rect x="179" y="71" width="29" height="1"/>
<rect x="117" y="82" width="1" height="1"/>
<rect x="146" y="82" width="3" height="1"/>
<rect x="205" y="82" width="1" height="1"/>
<rect x="239" y="82" width="1" height="1"/>
<rect x="268" y="82" width="1" height="1"/>
<rect x="301" y="82" width="1" height="1"/>
<rect x="117" y="83" width="1" height="1"/>
<rect x="146" y="83" width="1" height="1"/>
<rect x="205" y="83" width="1" height="1"/>
<rect x="268" y="83" width="1" height="1"/>
<rect x="301" y="83" width="1" height="1"/>
<rect x="117" y="84" width="1" height="1"/>
<rect x="145" y="84" width="2" height="1"/>
<rect x="205" y="84" width="1" height="1"/>
<rect x="268" y="84" width="1" height="1"/>
<rect x="301" y="84" width="1" height="1"/>
<rect x="52" y="85" width="4" height="1"/>
<rect x="82" y="85" width="5" height="1"/>
<rect x="113" y="85" width="3" height="1"/>
<rect x="117" y="85" width="1" height="1"/>
<rect x="144" y="85" width="4" height="1"/>
<rect x="175" y="85" width="3" height="1"/>
<rect x="179" y="85" width="1" height="1"/>
<rect x="205" y="85" width="1" height="1"/>
<rect x="207" y="85" width="3" height="1"/>
<rect x="239" y="85" width="1" height="1"/>
<rect x="268" y="85" width="1" height="1"/>
<rect x="272" y="85" width="2" height="1"/>
<rect x="301" y="85" width="1" height="1"/>
<rect x="51" y="86" width="1" height="1"/>
<rect x="55" y="86" width="1" height="1"/>
<rect x="82" y="86" width="1" height="1"/>
<rect x="112" y="86" width="1" height="1"/>
<rect x="116" y="86" width="2" height="1"/>
<rect x="145" y="86" width="2" height="1"/>
<rect x="174" y="86" width="1" height="1"/>
<rect x="178" y="86" width="2" height="1"/>
<rect x="205" y="86" width="2" height="1"/>
<rect x="210" y="86" width="1" height="1"/>
<rect x="239" y="86" width="1" height="1"/>
<rect x="268" y="86" width="1" height="1"/>
<rect x="271" y="86" width="1" height="1"/>
<rect x="301" y="86" width="1" height="1"/>
<rect x="55" y="87" width="1" height="1"/>
<rect x="82" y="87" width="1" height="1"/>
<rect x="112" y="87" width="1" height="1"/>
<rect x="117" y="87" width="1" height="1"/>
<rect x="145" y="87" width="2" height="1"/>
<rect x="174" y="87" width="1" height="1"/>
<rect x="179" y="87" width="1" height="1"/>
<rect x="205" y="87" width="1" height="1"/>
<rect x="210" y="87" width="1" height="1"/>
<rect x="239" y="87" width="1" height="1"/>
<rect x="268" y="87" width="1" height="1"/>
<rect x="270" y="87" width="1" height="1"/>
<rect x="301" y="87" width="1" height="1"/>
<rect x="51" y="88" width="5" height="1"/>
<rect x="83" y="88" width="3" height="1"/>
<rect x="112" y="88" width="1" height="1"/>
<rect x="117" y="88" width="1" height="1"/>
<rect x="145" y="88" width="2" height="1"/>
<rect x="174" y="88" width="1" height="1"/>
<rect x="179" y="88" width="1" height="1"/>
<rect x="205" y="88" width="1" height="1"/>
<rect x="210" y="88" width="1" height="1"/>
<rect x="239" y="88" width="1" height="1"/>
<rect x="268" y="88" width="3" height="1"/>
<rect x="301" y="88" width="1" height="1"/>
<rect x="51" y="89" width="1" height="1"/>
<rect x="55" y="89" width="1" height="1"/>
<rect x="85" y="89" width="2" height="1"/>
<rect x="112" y="89" width="1" height="1"/>
<rect x="117" y="89" width="1" height="1"/>
<rect x="145" y="89" width="2" height="1"/>
<rect x="174" y="89" width="1" height="1"/>
<rect x="179" y="89" width="1" height="1"/>
<rect x="205" y="89" width="1" height="1"/>
<rect x="210" y="89" width="1" height="1"/>
<rect x="239" y="89" width="1" height="1"/>
<rect x="268" y="89" width="1" height="1"/>
<rect x="271" y="89" width="1" height="1"/>
<rect x="301" y="89" width="1" height="1"/>
<rect x="51" y="90" width="1" height="1"/>
<rect x="55" y="90" width="1" height="1"/>
<rect x="85" y="90" width="2" height="1"/>
<rect x="112" y="90" width="1" height="1"/>
<rect x="116" y="90" width="2" height="1"/>
<rect x="145" y="90" width="2" height="1"/>
<rect x="174" y="90" width="1" height="1"/>
<rect x="178" y="90" width="2" height="1"/>
<rect x="205" y="90" width="1" height="1"/>
<rect x="210" y="90" width="1" height="1"/>
<rect x="239" y="90" width="1" height="1"/>
<rect x="268" y="90" width="1" height="1"/>
<rect x="271" y="90" width="2" height="1"/>
<rect x="301" y="90" width="1" height="1"/>
<rect x="51" y="91" width="5" height="1"/>
<rect x="82" y="91" width="4" height="1"/>
<rect x="113" y="91" width="3" height="1"/>
<rect x="117" y="91" width="1" height="1"/>
<rect x="145" y="91" width="2" height="1"/>
<rect x="175" y="91" width="3" height="1"/>
<rect x="179" y="91" width="1" height="1"/>
<rect x="205" y="91" width="1" height="1"/>
<rect x="210" y="91" width="1" height="1"/>
<rect x="239" y="91" width="1" height="1"/>
<rect x="268" y="91" width="1" height="1"/>
<rect x="272" y="91" width="2" height="1"/>
<rect x="301" y="91" width="1" height="1"/>
<rect x="179" y="92" width="1" height="1"/>
<rect x="239" y="92" width="1" height="1"/>
<rect x="178" y="93" width="2" height="1"/>
<rect x="239" y="93" width="1" height="1"/>
<rect x="174" y="94" width="5" height="1"/>
<rect x="238" y="94" width="2" height="1"/>
<rect x="310" y="108" width="3" height="1"/>
<rect x="309" y="109" width="4" height="1"/>
<rect x="40" y="110" width="1" height="1"/>
<rect x="48" y="110" width="1" height="1"/>
<rect x="52" y="110" width="3" height="1"/>
<rect x="204" y="110" width="1" height="1"/>
<rect x="308" y="110" width="5" height="1"/>
<rect x="34" y="111" width="4" height="1"/>
<rect x="40" y="111" width="1" height="1"/>
<rect x="52" y="111" width="1" height="1"/>
<rect x="55" y="111" width="1" height="1"/>
<rect x="204" y="111" width="1" height="1"/>
<rect x="307" y="111" width="5" height="1"/>
<rect x="33" y="112" width="1" height="1"/>
<rect x="40" y="112" width="1" height="1"/>
<rect x="51" y="112" width="2" height="1"/>
<rect x="55" y="112" width="1" height="1"/>
<rect x="204" y="112" width="1" height="1"/>
<rect x="306" y="112" width="5" height="1"/>
<rect x="33" y="113" width="1" height="1"/>
<rect x="40" y="113" width="1" height="1"/>
<rect x="42" y="113" width="3" height="1"/>
<rect x="48" y="113" width="1" height="1"/>
<rect x="50" y="113" width="8" height="1"/>
<rect x="81" y="113" width="5" height="1"/>
<rect x="111" y="113" width="2" height="1"/>
<rect x="116" y="113" width="2" height="1"/>
<rect x="144" y="113" width="4" height="1"/>
<rect x="173" y="113" width="1" height="1"/>
<rect x="178" y="113" width="2" height="1"/>
<rect x="204" y="113" width="1" height="1"/>
<rect x="206" y="113" width="3" height="1"/>
<rect x="235" y="113" width="1" height="1"/>
<rect x="237" y="113" width="3" height="1"/>
<rect x="264" y="113" width="1" height="1"/>
<rect x="266" y="113" width="3" height="1"/>
<rect x="270" y="113" width="3" height="1"/>
<rect x="305" y="113" width="5" height="1"/>
<rect x="33" y="114" width="2" height="1"/>
<rect x="40" y="114" width="2" height="1"/>
<rect x="45" y="114" width="1" height="1"/>
<rect x="48" y="114" width="1" height="1"/>
<rect x="51" y="114" width="2" height="1"/>
<rect x="55" y="114" width="1" height="1"/>
<rect x="84" y="114" width="1" height="1"/>
<rect x="112" y="114" width="2" height="1"/>
<rect x="115" y="114" width="1" height="1"/>
<rect x="143" y="114" width="1" height="1"/>
<rect x="174" y="114" width="1" height="1"/>
<rect x="178" y="114" width="1" height="1"/>
<rect x="204" y="114" width="2" height="1"/>
<rect x="209" y="114" width="1" height="1"/>
<rect x="235" y="114" width="2" height="1"/>
<rect x="240" y="114" width="1" height="1"/>
<rect x="264" y="114" width="2" height="1"/>
<rect x="268" y="114" width="2" height="1"/>
<rect x="273" y="114" width="1" height="1"/>
<rect x="304" y="114" width="15" height="1"/>
<rect x="34" y="115" width="3" height="1"/>
<rect x="40" y="115" width="1" height="1"/>
<rect x="45" y="115" width="1" height="1"/>
<rect x="48" y="115" width="1" height="1"/>
<rect x="51" y="115" width="2" height="1"/>
<rect x="55" y="115" width="1" height="1"/>
<rect x="83" y="115" width="1" height="1"/>
<rect x="113" y="115" width="1" height="1"/>
<rect x="115" y="115" width="1" height="1"/>
<rect x="143" y="115" width="1" height="1"/>
<rect x="174" y="115" width="1" height="1"/>
<rect x="177" y="115" width="2" height="1"/>
<rect x="204" y="115" width="1" height="1"/>
<rect x="209" y="115" width="1" height="1"/>
<rect x="235" y="115" width="1" height="1"/>
<rect x="240" y="115" width="1" height="1"/>
<rect x="264" y="115" width="1" height="1"/>
<rect x="269" y="115" width="1" height="1"/>
<rect x="273" y="115" width="1" height="1"/>
<rect x="304" y="115" width="15" height="1"/>
<rect x="37" y="116" width="1" height="1"/>
<rect x="40" y="116" width="1" height="1"/>
<rect x="45" y="116" width="1" height="1"/>
<rect x="48" y="116" width="1" height="1"/>
<rect x="51" y="116" width="2" height="1"/>
<rect x="55" y="116" width="1" height="1"/>
<rect x="82" y="116" width="2" height="1"/>
<rect x="114" y="116" width="1" height="1"/>
<rect x="143" y="116" width="1" height="1"/>
<rect x="174" y="116" width="1" height="1"/>
<rect x="177" y="116" width="1" height="1"/>
<rect x="204" y="116" width="1" height="1"/>
<rect x="209" y="116" width="1" height="1"/>
<rect x="235" y="116" width="1" height="1"/>
<rect x="240" y="116" width="1" height="1"/>
<rect x="264" y="116" width="1" height="1"/>
<rect x="269" y="116" width="1" height="1"/>
<rect x="273" y="116" width="1" height="1"/>
<rect x="304" y="116" width="15" height="1"/>
<rect x="37" y="117" width="2" height="1"/>
<rect x="40" y="117" width="1" height="1"/>
<rect x="45" y="117" width="1" height="1"/>
<rect x="48" y="117" width="1" height="1"/>
<rect x="51" y="117" width="2" height="1"/>
<rect x="55" y="117" width="1" height="1"/>
<rect x="82" y="117" width="1" height="1"/>
<rect x="113" y="117" width="1" height="1"/>
<rect x="115" y="117" width="1" height="1"/>
<rect x="143" y="117" width="1" height="1"/>
<rect x="175" y="117" width="1" height="1"/>
<rect x="177" y="117" width="1" height="1"/>
<rect x="204" y="117" width="1" height="1"/>
<rect x="209" y="117" width="1" height="1"/>
<rect x="235" y="117" width="1" height="1"/>
<rect x="240" y="117" width="1" height="1"/>
<rect x="264" y="117" width="1" height="1"/>
<rect x="269" y="117" width="1" height="1"/>
<rect x="273" y="117" width="1" height="1"/>
<rect x="305" y="117" width="5" height="1"/>
<rect x="37" y="118" width="1" height="1"/>
<rect x="40" y="118" width="1" height="1"/>
<rect x="45" y="118" width="1" height="1"/>
<rect x="48" y="118" width="1" height="1"/>
<rect x="51" y="118" width="2" height="1"/>
<rect x="55" y="118" width="1" height="1"/>
<rect x="81" y="118" width="1" height="1"/>
<rect x="112" y="118" width="2" height="1"/>
<rect x="115" y="118" width="2" height="1"/>
<rect x="143" y="118" width="1" height="1"/>
<rect x="175" y="118" width="3" height="1"/>
<rect x="204" y="118" width="2" height="1"/>
<rect x="209" y="118" width="1" height="1"/>
<rect x="235" y="118" width="1" height="1"/>
<rect x="240" y="118" width="1" height="1"/>
<rect x="264" y="118" width="1" height="1"/>
<rect x="269" y="118" width="1" height="1"/>
<rect x="273" y="118" width="1" height="1"/>
<rect x="306" y="118" width="5" height="1"/>
<rect x="33" y="119" width="4" height="1"/>
<rect x="40" y="119" width="1" height="1"/>
<rect x="45" y="119" width="1" height="1"/>
<rect x="48" y="119" width="1" height="1"/>
<rect x="51" y="119" width="2" height="1"/>
<rect x="56" y="119" width="2" height="1"/>
<rect x="80" y="119" width="6" height="1"/>
<rect x="111" y="119" width="2" height="1"/>
<rect x="116" y="119" width="2" height="1"/>
<rect x="144" y="119" width="4" height="1"/>
<rect x="175" y="119" width="2" height="1"/>
<rect x="204" y="119" width="1" height="1"/>
<rect x="206" y="119" width="3" height="1"/>
<rect x="235" y="119" width="1" height="1"/>
<rect x="240" y="119" width="1" height="1"/>
<rect x="264" y="119" width="1" height="1"/>
<rect x="269" y="119" width="1" height="1"/>
<rect x="273" y="119" width="1" height="1"/>
<rect x="307" y="119" width="5" height="1"/>
<rect x="308" y="120" width="5" height="1"/>
<rect x="309" y="121" width="4" height="1"/>
<rect x="310" y="122" width="3" height="1"/>
<rect x="39" y="139" width="5" height="1"/>
<rect x="48" y="139" width="2" height="1"/>
<rect x="54" y="139" width="3" height="1"/>
<rect x="60" y="139" width="5" height="1"/>
<rect x="301" y="139" width="4" height="1"/>
<rect x="309" y="139" width="1" height="1"/>
<rect x="314" y="139" width="2" height="1"/>
<rect x="39" y="140" width="1" height="1"/>
<rect x="43" y="140" width="1" height="1"/>
<rect x="47" y="140" width="1" height="1"/>
<rect x="49" y="140" width="1" height="1"/>
<rect x="53" y="140" width="1" height="1"/>
<rect x="57" y="140" width="1" height="1"/>
<rect x="60" y="140" width="1" height="1"/>
<rect x="64" y="140" width="1" height="1"/>
<rect x="300" y="140" width="1" height="1"/>
<rect x="305" y="140" width="2" height="1"/>
<rect x="309" y="140" width="1" height="1"/>
<rect x="313" y="140" width="2" height="1"/>
<rect x="43" y="141" width="1" height="1"/>
<rect x="46" y="141" width="1" height="1"/>
<rect x="49" y="141" width="1" height="1"/>
<rect x="57" y="141" width="1" height="1"/>
<rect x="64" y="141" width="1" height="1"/>
<rect x="299" y="141" width="1" height="1"/>
<rect x="306" y="141" width="1" height="1"/>
<rect x="309" y="141" width="1" height="1"/>
<rect x="312" y="141" width="2" height="1"/>
<rect x="42" y="142" width="2" height="1"/>
<rect x="48" y="142" width="2" height="1"/>
<rect x="57" y="142" width="1" height="1"/>
<rect x="64" y="142" width="1" height="1"/>
<rect x="299" y="142" width="1" height="1"/>
<rect x="306" y="142" width="1" height="1"/>
<rect x="309" y="142" width="1" height="1"/>
<rect x="311" y="142" width="2" height="1"/>
<rect x="41" y="143" width="2" height="1"/>
<rect x="48" y="143" width="2" height="1"/>
<rect x="56" y="143" width="2" height="1"/>
<rect x="61" y="143" width="3" height="1"/>
<rect x="299" y="143" width="1" height="1"/>
<rect x="306" y="143" width="1" height="1"/>
<rect x="309" y="143" width="4" height="1"/>
<rect x="41" y="144" width="1" height="1"/>
<rect x="48" y="144" width="2" height="1"/>
<rect x="55" y="144" width="2" height="1"/>
<rect x="64" y="144" width="1" height="1"/>
<rect x="299" y="144" width="1" height="1"/>
<rect x="306" y="144" width="1" height="1"/>
<rect x="309" y="144" width="2" height="1"/>
<rect x="312" y="144" width="1" height="1"/>
<rect x="48" y="145" width="2" height="1"/>
<rect x="54" y="145" width="2" height="1"/>
<rect x="64" y="145" width="2" height="1"/>
<rect x="122" y="145" width="117" height="1"/>
<rect x="299" y="145" width="1" height="1"/>
<rect x="306" y="145" width="1" height="1"/>
<rect x="309" y="145" width="1" height="1"/>
<rect x="313" y="145" width="1" height="1"/>
<rect x="41" y="146" width="1" height="1"/>
<rect x="48" y="146" width="2" height="1"/>
<rect x="53" y="146" width="2" height="1"/>
<rect x="64" y="146" width="1" height="1"/>
<rect x="122" y="146" width="117" height="1"/>
<rect x="300" y="146" width="1" height="1"/>
<rect x="305" y="146" width="1" height="1"/>
<rect x="309" y="146" width="1" height="1"/>
<rect x="314" y="146" width="1" height="1"/>
<rect x="41" y="147" width="1" height="1"/>
<rect x="48" y="147" width="2" height="1"/>
<rect x="53" y="147" width="6" height="1"/>
<rect x="60" y="147" width="5" height="1"/>
<rect x="122" y="147" width="117" height="1"/>
<rect x="301" y="147" width="4" height="1"/>
<rect x="309" y="147" width="1" height="1"/>
<rect x="314" y="147" width="2" height="1"/>
</g>
</svg>
