<svg xmlns="http://www.w3.org/2000/svg" viewBox="0 0 360 180" width="360" height="180" shape-rendering="crispEdges">
<rect width="100%" height="100%" fill="#fff"/>
<g fill="#111">
<rect x="23" y="17" width="1" height="1"/>
<rect x="63" y="17" width="5" height="1"/>
<rect x="23" y="18" width="1" height="1"/>
<rect x="63" y="18" width="1" height="1"/>
<rect x="68" y="18" width="1" height="1"/>
<rect x="17" y="19" width="9" height="1"/>
<rect x="29" y="19" width="3" height="1"/>
<rect x="35" y="19" width="1" height="1"/>
<rect x="37" y="19" width="3" height="1"/>
<rect x="43" y="19" width="1" height="1"/>
<rect x="45" y="19" width="3" height="1"/>
<rect x="52" y="19" width="3" height="1"/>
<rect x="58" y="19" width="1" height="1"/>
<rect x="60" y="19" width="2" height="1"/>
<rect x="63" y="19" width="1" height="1"/>
<rect x="68" y="19" width="1" height="1"/>
<rect x="72" y="19" width="4" height="1"/>
<rect x="78" y="19" width="1" height="1"/>
<rect x="82" y="19" width="2" height="1"/>
<rect x="87" y="19" width="1" height="1"/>
<rect x="17" y="20" width="1" height="1"/>
<rect x="23" y="20" width="1" height="1"/>
<rect x="28" y="20" width="1" height="1"/>
<rect x="32" y="20" width="1" height="1"/>
<rect x="35" y="20" width="2" height="1"/>
<rect x="40" y="20" width="1" height="1"/>
<rect x="43" y="20" width="2" height="1"/>
<rect x="48" y="20" width="1" height="1"/>
<rect x="51" y="20" width="1" height="1"/>
<rect x="55" y="20" width="1" height="1"/>
<rect x="58" y="20" width="2" height="1"/>
<rect x="63" y="20" width="1" height="1"/>
<rect x="68" y="20" width="1" height="1"/>
<rect x="71" y="20" width="1" height="1"/>
<rect x="75" y="20" width="2" height="1"/>
<rect x="79" y="20" width="1" height="1"/>
<rect x="82" y="20" width="2" height="1"/>
<rect x="87" y="20" width="1" height="1"/>
<rect x="17" y="21" width="1" height="1"/>
<rect x="23" y="21" width="1" height="1"/>
<rect x="28" y="21" width="1" height="1"/>
<rect x="32" y="21" width="2" height="1"/>
<rect x="35" y="21" width="1" height="1"/>
<rect x="40" y="21" width="1" height="1"/>
<rect x="43" y="21" width="1" height="1"/>
<rect x="48" y="21" width="1" height="1"/>
<rect x="51" y="21" width="1" height="1"/>
<rect x="55" y="21" width="2" height="1"/>
<rect x="58" y="21" width="1" height="1"/>
<rect x="63" y="21" width="5" height="1"/>
<rect x="71" y="21" width="1" height="1"/>
<rect x="76" y="21" width="1" height="1"/>
<rect x="79" y="21" width="1" height="1"/>
<rect x="82" y="21" width="3" height="1"/>
<rect x="86" y="21" width="1" height="1"/>
<rect x="18" y="22" width="3" height="1"/>
<rect x="23" y="22" width="1" height="1"/>
<rect x="28" y="22" width="6" height="1"/>
<rect x="35" y="22" width="1" height="1"/>
<rect x="40" y="22" width="1" height="1"/>
<rect x="43" y="22" width="1" height="1"/>
<rect x="48" y="22" width="1" height="1"/>
<rect x="51" y="22" width="6" height="1"/>
<rect x="58" y="22" width="1" height="1"/>
<rect x="63" y="22" width="1" height="1"/>
<rect x="67" y="22" width="1" height="1"/>
<rect x="71" y="22" width="1" height="1"/>
<rect x="76" y="22" width="1" height="1"/>
<rect x="79" y="22" width="1" height="1"/>
<rect x="81" y="22" width="1" height="1"/>
<rect x="84" y="22" width="1" height="1"/>
<rect x="86" y="22" width="1" height="1"/>
<rect x="20" y="23" width="2" height="1"/>
<rect x="23" y="23" width="1" height="1"/>
<rect x="28" y="23" width="1" height="1"/>
<rect x="35" y="23" width="1" height="1"/>
<rect x="40" y="23" width="1" height="1"/>
<rect x="43" y="23" width="1" height="1"/>
<rect x="48" y="23" width="1" height="1"/>
<rect x="51" y="23" width="1" height="1"/>
<rect x="58" y="23" width="1" height="1"/>
<rect x="63" y="23" width="1" height="1"/>
<rect x="67" y="23" width="1" height="1"/>
<rect x="71" y="23" width="1" height="1"/>
<rect x="76" y="23" width="1" height="1"/>
<rect x="79" y="23" width="1" height="1"/>
<rect x="81" y="23" width="1" height="1"/>
<rect x="84" y="23" width="1" height="1"/>
<rect x="86" y="23" width="1" height="1"/>
<rect x="20" y="24" width="2" height="1"/>
<rect x="23" y="24" width="1" height="1"/>
<rect x="28" y="24" width="1" height="1"/>
<rect x="35" y="24" width="2" height="1"/>
<rect x="39" y="24" width="2" height="1"/>
<rect x="43" y="24" width="2" height="1"/>
<rect x="47" y="24" width="2" height="1"/>
<rect x="51" y="24" width="1" height="1"/>
<rect x="58" y="24" width="1" height="1"/>
<rect x="63" y="24" width="1" height="1"/>
<rect x="68" y="24" width="1" height="1"/>
<rect x="71" y="24" width="1" height="1"/>
<rect x="75" y="24" width="2" height="1"/>
<rect x="80" y="24" width="2" height="1"/>
<rect x="84" y="24" width="1" height="1"/>
<rect x="86" y="24" width="1" height="1"/>
<rect x="17" y="25" width="4" height="1"/>
<rect x="24" y="25" width="2" height="1"/>
<rect x="29" y="25" width="4" height="1"/>
<rect x="35" y="25" width="1" height="1"/>
<rect x="37" y="25" width="3" height="1"/>
<rect x="43" y="25" width="1" height="1"/>
<rect x="45" y="25" width="3" height="1"/>
<rect x="52" y="25" width="4" height="1"/>
<rect x="58" y="25" width="1" height="1"/>
<rect x="63" y="25" width="1" height="1"/>
<rect x="68" y="25" width="2" height="1"/>
<rect x="72" y="25" width="4" height="1"/>
<rect x="80" y="25" width="2" height="1"/>
<rect x="85" y="25" width="1" height="1"/>
<rect x="35" y="26" width="1" height="1"/>
<rect x="43" y="26" width="1" height="1"/>
<rect x="35" y="27" width="1" height="1"/>
<rect x="43" y="27" width="1" height="1"/>
<rect x="35" y="28" width="1" height="1"/>
<rect x="43" y="28" width="1" height="1"/>
<rect x="16" y="30" width="328" height="1"/>
<rect x="184" y="70" width="44" height="1"/>
<rect x="292" y="70" width="44" height="1"/>
<rect x="184" y="71" width="1" height="1"/>
<rect x="227" y="71" width="1" height="1"/>
<rect x="292" y="71" width="1" height="1"/>
<rect x="335" y="71" width="1" height="1"/>
<rect x="184" y="72" width="1" height="1"/>
<rect x="227" y="72" width="1" height="1"/>
<rect x="292" y="72" width="1" height="1"/>
<rect x="335" y="72" width="1" height="1"/>
<rect x="184" y="73" width="1" height="1"/>
<rect x="227" y="73" width="1" height="1"/>
<rect x="292" y="73" width="1" height="1"/>
<rect x="335" y="73" width="1" height="1"/>
<rect x="184" y="74" width="1" height="1"/>
<rect x="227" y="74" width="1" height="1"/>
<rect x="292" y="74" width="1" height="1"/>
<rect x="335" y="74" width="1" height="1"/>
<rect x="184" y="75" width="1" height="1"/>
<rect x="227" y="75" width="1" height="1"/>
<rect x="292" y="75" width="1" height="1"/>
<rect x="335" y="75" width="1" height="1"/>
<rect x="184" y="76" width="1" height="1"/>
<rect x="227" y="76" width="1" height="1"/>
<rect x="292" y="76" width="1" height="1"/>
<rect x="335" y="76" width="1" height="1"/>
<rect x="184" y="77" width="1" height="1"/>
<rect x="227" y="77" width="1" height="1"/>
<rect x="292" y="77" width="1" height="1"/>
<rect x="335" y="77" width="1" height="1"/>
<rect x="184" y="78" width="1" height="1"/>
<rect x="227" y="78" width="1" height="1"/>
<rect x="292" y="78" width="1" height="1"/>
<rect x="335" y="78" width="1" height="1"/>
<rect x="184" y="79" width="1" height="1"/>
<rect x="227" y="79" width="1" height="1"/>
<rect x="292" y="79" width="1" height="1"/>
<rect x="335" y="79" width="1" height="1"/>
<rect x="184" y="80" width="1" height="1"/>
<rect x="227" y="80" width="1" height="1"/>
<rect x="292" y="80" width="1" height="1"/>
<rect x="335" y="80" width="1" height="1"/>
<rect x="184" y="81" width="1" height="1"/>
<rect x="227" y="81" width="1" height="1"/>
<rect x="292" y="81" width="1" height="1"/>
<rect x="335" y="81" width="1" height="1"/>
<rect x="184" y="82" width="1" height="1"/>
<rect x="227" y="82" width="1" height="1"/>
<rect x="292" y="82" width="1" height="1"/>
<rect x="335" y="82" width="1" height="1"/>
<rect x="184" y="83" width="1" height="1"/>
<rect x="227" y="83" width="1" height="1"/>
<rect x="292" y="83" width="1" height="1"/>
<rect x="335" y="83" width="1" height="1"/>
<rect x="184" y="84" width="1" height="1"/>
<rect x="227" y="84" width="1" height="1"/>
<rect x="292" y="84" width="1" height="1"/>
<rect x="313" y="84" width="3" height="1"/>
<rect x="335" y="84" width="1" height="1"/>
<rect x="184" y="85" width="1" height="1"/>
<rect x="227" y="85" width="1" height="1"/>
<rect x="292" y="85" width="1" height="1"/>
<rect x="313" y="85" width="3" height="1"/>
<rect x="335" y="85" width="1" height="1"/>
<rect x="184" y="86" width="1" height="1"/>
<rect x="227" y="86" width="1" height="1"/>
<rect x="292" y="86" width="1" height="1"/>
<rect x="313" y="86" width="3" height="1"/>
<rect x="335" y="86" width="1" height="1"/>
<rect x="70" y="87" width="1" height="1"/>
<rect x="184" y="87" width="1" height="1"/>
<rect x="227" y="87" width="1" height="1"/>
<rect x="292" y="87" width="1" height="1"/>
<rect x="313" y="87" width="3" height="1"/>
<rect x="335" y="87" width="1" height="1"/>
<rect x="33" y="88" width="5" height="1"/>
<rect x="56" y="88" width="1" height="1"/>
<rect x="184" y="88" width="1" height="1"/>
<rect x="227" y="88" width="1" height="1"/>
<rect x="256" y="88" width="2" height="1"/>
<rect x="262" y="88" width="3" height="1"/>
<rect x="292" y="88" width="1" height="1"/>
<rect x="313" y="88" width="3" height="1"/>
<rect x="335" y="88" width="1" height="1"/>
<rect x="33" y="89" width="1" height="1"/>
<rect x="56" y="89" width="1" height="1"/>
<rect x="184" y="89" width="1" height="1"/>
<rect x="227" y="89" width="1" height="1"/>
<rect x="255" y="89" width="1" height="1"/>
<rect x="257" y="89" width="1" height="1"/>
<rect x="261" y="89" width="1" height="1"/>
<rect x="265" y="89" width="1" height="1"/>
<rect x="292" y="89" width="1" height="1"/>
<rect x="313" y="89" width="3" height="1"/>
<rect x="335" y="89" width="1" height="1"/>
<rect x="33" y="90" width="1" height="1"/>
<rect x="41" y="90" width="4" height="1"/>
<rect x="48" y="90" width="1" height="1"/>
<rect x="50" y="90" width="3" height="1"/>
<rect x="55" y="90" width="4" height="1"/>
<rect x="64" y="90" width="5" height="1"/>
<rect x="70" y="90" width="1" height="1"/>
<rect x="73" y="90" width="5" height="1"/>
<rect x="80" y="90" width="3" height="1"/>
<rect x="184" y="90" width="1" height="1"/>
<rect x="227" y="90" width="1" height="1"/>
<rect x="254" y="90" width="1" height="1"/>
<rect x="257" y="90" width="1" height="1"/>
<rect x="265" y="90" width="1" height="1"/>
<rect x="292" y="90" width="1" height="1"/>
<rect x="313" y="90" width="3" height="1"/>
<rect x="335" y="90" width="1" height="1"/>
<rect x="33" y="91" width="1" height="1"/>
<rect x="40" y="91" width="1" height="1"/>
<rect x="44" y="91" width="2" height="1"/>
<rect x="48" y="91" width="2" height="1"/>
<rect x="53" y="91" width="1" height="1"/>
<rect x="56" y="91" width="1" height="1"/>
<rect x="64" y="91" width="1" height="1"/>
<rect x="70" y="91" width="1" height="1"/>
<rect x="76" y="91" width="1" height="1"/>
<rect x="79" y="91" width="1" height="1"/>
<rect x="83" y="91" width="1" height="1"/>
<rect x="184" y="91" width="1" height="1"/>
<rect x="198" y="91" width="17" height="1"/>
<rect x="227" y="91" width="1" height="1"/>
<rect x="256" y="91" width="2" height="1"/>
<rect x="265" y="91" width="1" height="1"/>
<rect x="292" y="91" width="1" height="1"/>
<rect x="306" y="91" width="17" height="1"/>
<rect x="335" y="91" width="1" height="1"/>
<rect x="33" y="92" width="5" height="1"/>
<rect x="40" y="92" width="1" height="1"/>
<rect x="45" y="92" width="1" height="1"/>
<rect x="48" y="92" width="1" height="1"/>
<rect x="53" y="92" width="1" height="1"/>
<rect x="56" y="92" width="1" height="1"/>
<rect x="64" y="92" width="1" height="1"/>
<rect x="70" y="92" width="1" height="1"/>
<rect x="75" y="92" width="1" height="1"/>
<rect x="79" y="92" width="1" height="1"/>
<rect x="83" y="92" width="2" height="1"/>
<rect x="184" y="92" width="1" height="1"/>
<rect x="198" y="92" width="17" height="1"/>
<rect x="227" y="92" width="1" height="1"/>
<rect x="256" y="92" width="2" height="1"/>
<rect x="264" y="92" width="2" height="1"/>
<rect x="292" y="92" width="1" height="1"/>
<rect x="306" y="92" width="17" height="1"/>
<rect x="335" y="92" width="1" height="1"/>
<rect x="33" y="93" width="1" height="1"/>
<rect x="40" y="93" width="1" height="1"/>
<rect x="45" y="93" width="1" height="1"/>
<rect x="48" y="93" width="1" height="1"/>
<rect x="53" y="93" width="1" height="1"/>
<rect x="56" y="93" width="1" height="1"/>
<rect x="65" y="93" width="3" height="1"/>
<rect x="70" y="93" width="1" height="1"/>
<rect x="74" y="93" width="2" height="1"/>
<rect x="79" y="93" width="6" height="1"/>
<rect x="184" y="93" width="1" height="1"/>
<rect x="198" y="93" width="17" height="1"/>
<rect x="227" y="93" width="1" height="1"/>
<rect x="256" y="93" width="2" height="1"/>
<rect x="263" y="93" width="2" height="1"/>
<rect x="292" y="93" width="1" height="1"/>
<rect x="306" y="93" width="17" height="1"/>
<rect x="335" y="93" width="1" height="1"/>
<rect x="33" y="94" width="1" height="1"/>
<rect x="40" y="94" width="1" height="1"/>
<rect x="45" y="94" width="1" height="1"/>
<rect x="48" y="94" width="1" height="1"/>
<rect x="53" y="94" width="1" height="1"/>
<rect x="56" y="94" width="1" height="1"/>
<rect x="67" y="94" width="2" height="1"/>
<rect x="70" y="94" width="1" height="1"/>
<rect x="74" y="94" width="1" height="1"/>
<rect x="79" y="94" width="1" height="1"/>
<rect x="184" y="94" width="1" height="1"/>
<rect x="227" y="94" width="1" height="1"/>
<rect x="256" y="94" width="2" height="1"/>
<rect x="262" y="94" width="2" height="1"/>
<rect x="292" y="94" width="1" height="1"/>
<rect x="313" y="94" width="3" height="1"/>
<rect x="335" y="94" width="1" height="1"/>
<rect x="33" y="95" width="1" height="1"/>
<rect x="40" y="95" width="1" height="1"/>
<rect x="44" y="95" width="2" height="1"/>
<rect x="48" y="95" width="1" height="1"/>
<rect x="53" y="95" width="1" height="1"/>
<rect x="56" y="95" width="1" height="1"/>
<rect x="67" y="95" width="2" height="1"/>
<rect x="70" y="95" width="1" height="1"/>
<rect x="73" y="95" width="1" height="1"/>
<rect x="79" y="95" width="1" height="1"/>
<rect x="184" y="95" width="1" height="1"/>
<rect x="227" y="95" width="1" height="1"/>
<rect x="256" y="95" width="2" height="1"/>
<rect x="261" y="95" width="2" height="1"/>
<rect x="292" y="95" width="1" height="1"/>
<rect x="313" y="95" width="3" height="1"/>
<rect x="335" y="95" width="1" height="1"/>
<rect x="33" y="96" width="1" height="1"/>
<rect x="41" y="96" width="4" height="1"/>
<rect x="48" y="96" width="1" height="1"/>
<rect x="53" y="96" width="1" height="1"/>
<rect x="57" y="96" width="2" height="1"/>
<rect x="64" y="96" width="4" height="1"/>
<rect x="70" y="96" width="1" height="1"/>
<rect x="72" y="96" width="6" height="1"/>
<rect x="80" y="96" width="4" height="1"/>
<rect x="184" y="96" width="1" height="1"/>
<rect x="227" y="96" width="1" height="1"/>
<rect x="256" y="96" width="2" height="1"/>
<rect x="261" y="96" width="6" height="1"/>
<rect x="292" y="96" width="1" height="1"/>
<rect x="313" y="96" width="3" height="1"/>
<rect x="335" y="96" width="1" height="1"/>
<rect x="184" y="97" width="1" height="1"/>
<rect x="227" y="97" width="1" height="1"/>
<rect x="292" y="97" width="1" height="1"/>
<rect x="313" y="97" width="3" height="1"/>
<rect x="335" y="97" width="1" height="1"/>
<rect x="184" y="98" width="1" height="1"/>
<rect x="227" y="98" width="1" height="1"/>
<rect x="292" y="98" width="1" height="1"/>
<rect x="313" y="98" width="3" height="1"/>
<rect x="335" y="98" width="1" height="1"/>
<rect x="184" y="99" width="1" height="1"/>
<rect x="227" y="99" width="1" height="1"/>
<rect x="292" y="99" width="1" height="1"/>
<rect x="313" y="99" width="3" height="1"/>
<rect x="335" y="99" width="1" height="1"/>
<rect x="184" y="100" width="1" height="1"/>
<rect x="227" y="100" width="1" height="1"/>
<rect x="292" y="100" width="1" height="1"/>
<rect x="313" y="100" width="3" height="1"/>
<rect x="335" y="100" width="1" height="1"/>
<rect x="184" y="101" width="1" height="1"/>
<rect x="227" y="101" width="1" height="1"/>
<rect x="292" y="101" width="1" height="1"/>
<rect x="335" y="101" width="1" height="1"/>
<rect x="184" y="102" width="1" height="1"/>
<rect x="227" y="102" width="1" height="1"/>
<rect x="292" y="102" width="1" height="1"/>
<rect x="335" y="102" width="1" height="1"/>
<rect x="184" y="103" width="1" height="1"/>
<rect x="227" y="103" width="1" height="1"/>
<rect x="292" y="103" width="1" height="1"/>
<rect x="335" y="103" width="1" height="1"/>
<rect x="184" y="104" width="1" height="1"/>
<rect x="227" y="104" width="1" height="1"/>
<rect x="292" y="104" width="1" height="1"/>
<rect x="335" y="104" width="1" height="1"/>
<rect x="184" y="105" width="1" height="1"/>
<rect x="227" y="105" width="1" height="1"/>
<rect x="292" y="105" width="1" height="1"/>
<rect x="335" y="105" width="1" height="1"/>
<rect x="184" y="106" width="1" height="1"/>
<rect x="227" y="106" width="1" height="1"/>
<rect x="292" y="106" width="1" height="1"/>
<rect x="335" y="106" width="1" height="1"/>
<rect x="184" y="107" width="1" height="1"/>
<rect x="227" y="107" width="1" height="1"/>
<rect x="292" y="107" width="1" height="1"/>
<rect x="335" y="107" width="1" height="1"/>
<rect x="184" y="108" width="1" height="1"/>
<rect x="227" y="108" width="1" height="1"/>
<rect x="292" y="108" width="1" height="1"/>
<rect x="335" y="108" width="1" height="1"/>
<rect x="184" y="109" width="1" height="1"/>
<rect x="227" y="109" width="1" height="1"/>
<rect x="292" y="109" width="1" height="1"/>
<rect x="335" y="109" width="1" height="1"/>
<rect x="184" y="110" width="1" height="1"/>
<rect x="227" y="110" width="1" height="1"/>
<rect x="292" y="110" width="1" height="1"/>
<rect x="335" y="110" width="1" height="1"/>
<rect x="184" y="111" width="1" height="1"/>
<rect x="227" y="111" width="1" height="1"/>
<rect x="292" y="111" width="1" height="1"/>
<rect x="335" y="111" width="1" height="1"/>
<rect x="184" y="112" width="1" height="1"/>
<rect x="227" y="112" width="1" height="1"/>
<rect x="292" y="112" width="1" height="1"/>
<rect x="335" y="112" width="1" height="1"/>
<rect x="184" y="113" width="44" height="1"/>
<rect x="292" y="113" width="44" height="1"/>
</g>
</svg>
